STARTFONT 2.1
COMMENT
COMMENT Converted from OpenType font "NimbusSans-Regular.otf" by "otf2bdf 3.0".
COMMENT
FONT -FreeType-Nimbus Sans-Medium-R-Normal--50-360-100-100-P-261-ISO10646-1
SIZE 36 100 100
FONTBOUNDINGBOX 63 68 -11 -15
STARTPROPERTIES 19
FOUNDRY "FreeType"
FAMILY_NAME "Nimbus Sans"
WEIGHT_NAME "Medium"
SLANT "R"
SETWIDTH_NAME "Normal"
ADD_STYLE_NAME ""
PIXEL_SIZE 50
POINT_SIZE 360
RESOLUTION_X 100
RESOLUTION_Y 100
SPACING "P"
AVERAGE_WIDTH 261
CHARSET_REGISTRY "ISO10646"
CHARSET_ENCODING "1"
FONT_ASCENT 36
FONT_DESCENT 13
COPYRIGHT "(URW)++,Copyright 2014 by (URW)++ Design & Development"
_OTF_FONTFILE "NimbusSans-Regular.otf"
_OTF_PSNAME "NimbusSans-Regular"
ENDPROPERTIES
CHARS 854
STARTCHAR 0020
ENCODING 32
SWIDTH 280 0
DWIDTH 14 0
BBX 0 0 0 0
BITMAP
ENDCHAR
STARTCHAR 0021
ENCODING 33
SWIDTH 280 0
DWIDTH 14 0
BBX 4 36 6 0
BITMAP
F0
F0
F0
F0
F0
F0
F0
F0
F0
F0
F0
F0
F0
F0
F0
F0
F0
F0
F0
70
70
70
70
70
70
70
60
60
00
00
00
F0
F0
F0
F0
F0
ENDCHAR
STARTCHAR 0022
ENCODING 34
SWIDTH 360 0
DWIDTH 18 0
BBX 12 12 3 23
BITMAP
F0F0
F0F0
F0F0
F0F0
F0F0
F0F0
F0F0
F0F0
F0F0
E0E0
6060
6060
ENDCHAR
STARTCHAR 0023
ENCODING 35
SWIDTH 560 0
DWIDTH 28 0
BBX 26 36 1 -1
BITMAP
00781E00
00781E00
00781E00
00781E00
00701C00
00F03C00
00F03C00
00F03C00
00F03C00
00E03C00
3FFFFFC0
3FFFFFC0
3FFFFFC0
01E07800
01E07800
01C07000
03C0F000
03C0F000
03C0F000
03C0F000
0380F000
0780E000
FFFFFF80
FFFFFF80
FFFFFF80
0781E000
0701C000
0F03C000
0F03C000
0F03C000
0F03C000
0E03C000
1E038000
1E078000
1E078000
1E078000
ENDCHAR
STARTCHAR 0024
ENCODING 36
SWIDTH 560 0
DWIDTH 28 0
BBX 24 45 2 -6
BITMAP
003800
003800
003800
007F00
03FFC0
0FFFF0
1FFFF8
3F38FC
3C387C
7C383E
78381E
78381E
78381E
783800
783800
783800
7C3800
3F3800
3FF800
1FFE00
0FFFC0
03FFF0
007FF8
003FFC
0038FE
00383F
00381F
00380F
00380F
F0380F
F0380F
F0380F
F8380F
78381F
7C383E
7E387E
3FF9FC
1FFFF8
0FFFE0
01FF80
003800
003800
003800
003800
003800
ENDCHAR
STARTCHAR 0025
ENCODING 37
SWIDTH 880 0
DWIDTH 44 0
BBX 42 37 1 -1
BITMAP
000000078000
000000070000
07F8000F0000
0FFE000E0000
1FFF001C0000
3E1F001C0000
780780380000
780780380000
700380700000
F003C0F00000
F003C0E00000
700381E00000
700381C00000
780783C00000
7C0F03800000
3FFF07800000
1FFE07000000
0FFC0E000000
03F00E000000
00001C000000
00001C01F000
00003807FC00
0000381FFE00
0000701FFF00
0000F03C0F80
0000E0780780
0001E07803C0
0001C07003C0
0003C07003C0
0003807003C0
0007007803C0
000700780380
000E003C0780
000E001FFF00
001C001FFE00
001C0007FC00
00380003F000
ENDCHAR
STARTCHAR 0026
ENCODING 38
SWIDTH 660 0
DWIDTH 33 0
BBX 28 36 3 -1
BITMAP
007E0000
01FF8000
03FFC000
07FFE000
0F81F000
0F00F000
0F00F000
0F00F000
0F00F000
0F00F000
0F81F000
0783E000
07C7E000
03EFC000
01FF0000
01FE0000
03FC0000
07FC0000
0FBE0300
3F1F03C0
7C0F87C0
7807C780
F807E780
F003E780
F001FF00
F000FF00
F0007E00
F0007E00
F8007F00
F800FF00
FC01FF80
7F07F7C0
3FFFE7E0
1FFF83F0
0FFF01F0
03FC0000
ENDCHAR
STARTCHAR 0027
ENCODING 39
SWIDTH 200 0
DWIDTH 10 0
BBX 5 12 2 23
BITMAP
F8
F8
F8
F8
F8
F8
78
78
70
70
70
30
ENDCHAR
STARTCHAR 0028
ENCODING 40
SWIDTH 340 0
DWIDTH 17 0
BBX 10 47 4 -11
BITMAP
01C0
01C0
0380
0380
0700
0F00
0E00
1E00
1C00
1C00
3C00
3800
7800
7800
7800
7800
F000
F000
F000
F000
F000
F000
F000
F000
F000
F000
F000
F000
F000
F000
F000
7800
7800
7800
7800
3800
3C00
3C00
1C00
1E00
0E00
0F00
0700
0780
0380
01C0
01C0
ENDCHAR
STARTCHAR 0029
ENCODING 41
SWIDTH 340 0
DWIDTH 17 0
BBX 11 47 2 -11
BITMAP
E000
7000
7000
3800
3C00
1C00
1E00
0E00
0F00
0F00
0700
0780
0780
0380
03C0
03C0
03C0
03C0
03C0
01E0
01E0
01E0
01E0
01E0
01E0
01E0
01E0
01E0
03C0
03C0
03C0
03C0
03C0
0380
0780
0780
0700
0F00
0F00
0E00
1E00
1C00
3C00
3800
7000
7000
E000
ENDCHAR
STARTCHAR 002A
ENCODING 42
SWIDTH 380 0
DWIDTH 19 0
BBX 15 14 2 22
BITMAP
0380
0380
0380
0380
638C
FFFE
FFFE
1FF0
07C0
0FE0
0EF0
1C70
3C78
1830
ENDCHAR
STARTCHAR 002B
ENCODING 43
SWIDTH 580 0
DWIDTH 29 0
BBX 24 24 3 -1
BITMAP
003800
003800
003800
003800
003800
003800
003800
003800
003800
003800
FFFFFF
FFFFFF
FFFFFF
FFFFFF
003800
003800
003800
003800
003800
003800
003800
003800
003800
003800
ENDCHAR
STARTCHAR 002C
ENCODING 44
SWIDTH 280 0
DWIDTH 14 0
BBX 6 12 4 -7
BITMAP
FC
FC
FC
FC
FC
1C
1C
1C
18
18
F0
E0
ENDCHAR
STARTCHAR 002D
ENCODING 45
SWIDTH 340 0
DWIDTH 17 0
BBX 12 4 2 12
BITMAP
FFF0
FFF0
FFF0
FFF0
ENDCHAR
STARTCHAR 002E
ENCODING 46
SWIDTH 280 0
DWIDTH 14 0
BBX 6 5 4 0
BITMAP
FC
FC
FC
FC
FC
ENDCHAR
STARTCHAR 002F
ENCODING 47
SWIDTH 280 0
DWIDTH 14 0
BBX 14 37 0 -1
BITMAP
001C
001C
0018
0038
0038
0030
0070
0070
0060
00E0
00E0
00E0
01C0
01C0
01C0
0380
0380
0380
0300
0700
0700
0600
0E00
0E00
0C00
1C00
1C00
1800
3800
3800
3000
7000
7000
6000
E000
E000
E000
ENDCHAR
STARTCHAR 0030
ENCODING 48
SWIDTH 560 0
DWIDTH 28 0
BBX 23 37 2 -1
BITMAP
007E00
03FF80
07FFE0
0FFFF0
1F83F0
1F00F8
3E00F8
3C007C
7C003C
7C003C
78003E
78003E
78003E
F8001E
F8001E
F8001E
F8001E
F8001E
F8001E
F8001E
F8001E
F8001E
F8001E
F8001E
78001E
78003E
78003E
7C003C
7C003C
3C007C
3E0078
1F00F8
1F81F0
0FFFF0
07FFE0
03FF80
00FE00
ENDCHAR
STARTCHAR 0031
ENCODING 49
SWIDTH 560 0
DWIDTH 28 0
BBX 12 36 5 0
BITMAP
0070
0070
0070
00F0
00F0
03F0
1FF0
FFF0
FFF0
FFF0
00F0
00F0
00F0
00F0
00F0
00F0
00F0
00F0
00F0
00F0
00F0
00F0
00F0
00F0
00F0
00F0
00F0
00F0
00F0
00F0
00F0
00F0
00F0
00F0
00F0
00F0
ENDCHAR
STARTCHAR 0032
ENCODING 50
SWIDTH 560 0
DWIDTH 28 0
BBX 24 36 2 0
BITMAP
00FF00
03FFE0
0FFFF0
1FFFF8
1F81FC
3E007C
7E003E
7C003E
7C001E
78001F
78001F
78001F
00001E
00003E
00003E
00007C
0000FC
0001F8
0007F0
001FE0
003FC0
00FF00
01FC00
07F000
0FE000
1F8000
3F0000
3E0000
7C0000
780000
780000
F80000
FFFFFE
FFFFFE
FFFFFE
FFFFFE
ENDCHAR
STARTCHAR 0033
ENCODING 51
SWIDTH 560 0
DWIDTH 28 0
BBX 23 37 2 -1
BITMAP
00FE00
07FFC0
0FFFE0
1FFFF0
3F01F8
3E00F8
7C007C
78007C
78003C
78003C
F8003C
F8003C
00007C
00007C
0000F8
0007F0
007FE0
007FC0
007FF0
0007F8
0000FC
00007E
00003E
00003E
00001E
F0001E
F0001E
F0001E
F8003E
F8003E
7C007C
7C007C
3F01F8
3FFFF0
1FFFE0
07FFC0
01FE00
ENDCHAR
STARTCHAR 0034
ENCODING 52
SWIDTH 560 0
DWIDTH 28 0
BBX 25 36 1 0
BITMAP
0000F000
0001F000
0003F000
0003F000
0007F000
000FF000
000FF000
001FF000
003DF000
003DF000
0079F000
00F1F000
01F1F000
01E1F000
03C1F000
07C1F000
0781F000
0F01F000
1E01F000
3E01F000
3C01F000
7801F000
F801F000
FFFFFF80
FFFFFF80
FFFFFF80
FFFFFF80
0001F000
0001F000
0001F000
0001F000
0001F000
0001F000
0001F000
0001F000
0001F000
ENDCHAR
STARTCHAR 0035
ENCODING 53
SWIDTH 560 0
DWIDTH 28 0
BBX 24 36 2 -1
BITMAP
1FFFFC
1FFFFC
1FFFFC
1FFFFC
1E0000
1E0000
1E0000
3E0000
3C0000
3C0000
3C0000
3C0000
3C7F00
3DFFC0
7FFFF0
7FFFF8
7F01FC
7E00FC
78007E
00003E
00001E
00001F
00001F
00001F
00001F
00001F
F0001E
F8001E
F8003E
7C003C
7E007C
3F01F8
3FFFF0
0FFFE0
07FFC0
00FE00
ENDCHAR
STARTCHAR 0036
ENCODING 54
SWIDTH 560 0
DWIDTH 28 0
BBX 24 37 2 -1
BITMAP
003F00
01FFC0
03FFF0
07FFF8
0FC1F8
1F007C
1E007C
3E003E
3C003E
7C0000
7C0000
780000
780000
780000
F87F00
F9FFE0
FBFFF0
FFFFF8
FF81FC
FE007C
FC003E
FC003E
F8001E
F8001F
F8001F
78001F
78001F
78001E
7C001E
3C003E
3E003E
3F007C
1F81F8
0FFFF8
07FFE0
03FFC0
00FF00
ENDCHAR
STARTCHAR 0037
ENCODING 55
SWIDTH 560 0
DWIDTH 28 0
BBX 24 35 2 0
BITMAP
FFFFFF
FFFFFF
FFFFFF
FFFFFF
00001E
00001E
00003C
000078
000078
0000F0
0001E0
0001E0
0003C0
000780
000780
000F00
000F00
001E00
001E00
003C00
003C00
007C00
007800
00F800
00F000
00F000
01F000
01E000
01E000
03E000
03E000
03C000
03C000
07C000
07C000
ENDCHAR
STARTCHAR 0038
ENCODING 56
SWIDTH 560 0
DWIDTH 28 0
BBX 24 37 2 -1
BITMAP
00FF00
03FFC0
0FFFE0
1FFFF0
1F81F8
3E00FC
3C007C
7C003C
7C003C
7C003C
7C003C
7C003C
3C007C
3E0078
1F01F8
0FFFF0
07FFC0
07FFE0
0FFFF0
3F81F8
3E007C
7C003E
F8003E
F8001E
F0001F
F0001F
F0001F
F0001F
F8001E
F8003E
7C003E
7E007C
3F81FC
1FFFF8
0FFFF0
07FFC0
00FE00
ENDCHAR
STARTCHAR 0039
ENCODING 57
SWIDTH 560 0
DWIDTH 28 0
BBX 23 37 2 -1
BITMAP
00FE00
03FF80
0FFFE0
1FFFF0
3F03F0
3E00F8
7C007C
78003C
F8003C
F8003E
F0001E
F0001E
F0001E
F8003E
F8003E
F8003E
7C007E
7E00FE
3F03FE
1FFFFE
0FFFDE
07FF1E
01FC1E
00001E
00001E
00003E
00003C
00003C
78007C
7C0078
7C00F8
3E01F0
3F03F0
1FFFE0
0FFFC0
07FF00
01FC00
ENDCHAR
STARTCHAR 003A
ENCODING 58
SWIDTH 280 0
DWIDTH 14 0
BBX 5 26 6 0
BITMAP
F8
F8
F8
F8
F8
00
00
00
00
00
00
00
00
00
00
00
00
00
00
00
00
F8
F8
F8
F8
F8
ENDCHAR
STARTCHAR 003B
ENCODING 59
SWIDTH 280 0
DWIDTH 14 0
BBX 5 33 6 -7
BITMAP
F8
F8
F8
F8
F8
00
00
00
00
00
00
00
00
00
00
00
00
00
00
00
00
F8
F8
F8
F8
F8
38
38
38
30
30
F0
E0
ENDCHAR
STARTCHAR 003C
ENCODING 60
SWIDTH 580 0
DWIDTH 29 0
BBX 25 24 2 -1
BITMAP
00000180
00000780
00003F80
0000FF80
0003FE00
001FF800
007FC000
01FF0000
0FF80000
3FE00000
FF000000
FC000000
FE000000
FF800000
3FE00000
07FC0000
01FF0000
007FE000
000FF800
0003FE00
0000FF80
00001F80
00000780
00000180
ENDCHAR
STARTCHAR 003D
ENCODING 61
SWIDTH 580 0
DWIDTH 29 0
BBX 24 13 3 5
BITMAP
FFFFFF
FFFFFF
FFFFFF
FFFFFF
000000
000000
000000
000000
000000
FFFFFF
FFFFFF
FFFFFF
FFFFFF
ENDCHAR
STARTCHAR 003E
ENCODING 62
SWIDTH 580 0
DWIDTH 29 0
BBX 24 24 3 -1
BITMAP
800000
E00000
FC0000
FF0000
7FC000
0FF800
03FE00
00FFC0
001FF0
0007FC
0000FF
00003F
00003F
0000FF
0007FC
001FF0
00FF80
03FE00
1FF800
7FC000
FF0000
F80000
E00000
800000
ENDCHAR
STARTCHAR 003F
ENCODING 63
SWIDTH 560 0
DWIDTH 28 0
BBX 21 37 4 0
BITMAP
01FE00
07FF80
1FFFC0
3FFFE0
7E03F0
7C01F8
7800F8
F80078
F00078
F00078
F00078
F00078
0000F8
0000F8
0001F0
0003E0
0007E0
000FC0
001F00
003E00
007C00
007C00
00F800
00F800
00F800
00F800
00F800
000000
000000
000000
000000
000000
00F800
00F800
00F800
00F800
00F800
ENDCHAR
STARTCHAR 0040
ENCODING 64
SWIDTH 1020 0
DWIDTH 51 0
BBX 46 44 2 -7
BITMAP
00000FF80000
0000FFFF8000
0003FFFFE000
000FFFFFF800
003FE00FFC00
007F0001FE00
00FC00007F00
01F000001F80
03E000000FC0
07C0000007E0
0F80000003E0
1F0007E001F0
1E001FF1E1F0
3E007FF9E0F8
3C00FC7FE0F8
7C01F01FC078
7803E00FC078
7807C00FC07C
F807800F807C
F00F800F807C
F00F800F8078
F00F000F0078
F01F000F0078
F01F000F00F8
F01F001E00F0
F01F001E00F0
F01F003E01E0
F81F003C03E0
F80F807C07C0
780FC0FE0F80
7C07E3FFFF00
7C03FF9FFE00
3E01FF1FFC00
3F007C07E000
1F8000000000
0FC000000000
07E000000000
03F800000000
01FE00000000
00FFC0078000
003FFFFF8000
001FFFFFC000
0003FFFF0000
00007FF00000
ENDCHAR
STARTCHAR 0041
ENCODING 65
SWIDTH 660 0
DWIDTH 33 0
BBX 31 36 1 0
BITMAP
0007E000
000FE000
000FF000
000FF000
001FF000
001FF800
003EF800
003E7C00
003C7C00
007C7C00
007C3E00
00783E00
00F83E00
00F81F00
00F01F00
01F01F00
01E00F80
01E00F80
03E00F80
03C007C0
07C007C0
07FFFFE0
07FFFFE0
0FFFFFE0
0FFFFFF0
0F0001F0
1F0001F0
1F0000F8
1E0000F8
3E0000F8
3E00007C
7C00007C
7C00007C
7C00003E
F800003E
F800003E
ENDCHAR
STARTCHAR 0042
ENCODING 66
SWIDTH 660 0
DWIDTH 33 0
BBX 27 36 4 0
BITMAP
FFFFE000
FFFFF800
FFFFFE00
FFFFFF00
F8007F00
F8001F80
F8000F80
F8000F80
F80007C0
F80007C0
F80007C0
F8000780
F8000F80
F8000F80
F8001F00
F8007E00
FFFFFC00
FFFFF800
FFFFFE00
FFFFFF00
F8001F80
F80007C0
F80003E0
F80003E0
F80003E0
F80003E0
F80003E0
F80003E0
F80003E0
F80003E0
F80007C0
F8001FC0
FFFFFF80
FFFFFF00
FFFFFC00
FFFFF000
ENDCHAR
STARTCHAR 0043
ENCODING 67
SWIDTH 720 0
DWIDTH 36 0
BBX 32 38 2 -1
BITMAP
0007FC00
003FFF00
00FFFFC0
01FFFFE0
03F80FF0
07E003F8
0FC000F8
1F80007C
1F00007C
3E00003E
3E00003E
3C00003E
7C000000
7C000000
78000000
78000000
78000000
F8000000
F8000000
F8000000
F8000000
F8000000
78000000
7C000000
7C00001F
7C00001F
7C00003E
3E00003E
3E00003E
1F00007C
1F80007C
0FC000FC
07E003F8
07FC0FF0
03FFFFE0
00FFFFC0
007FFF00
000FF800
ENDCHAR
STARTCHAR 0044
ENCODING 68
SWIDTH 720 0
DWIDTH 36 0
BBX 29 36 4 0
BITMAP
FFFFE000
FFFFF800
FFFFFE00
FFFFFF00
F8007F80
F8001FC0
F80007E0
F80003E0
F80003F0
F80001F0
F80000F0
F80000F8
F80000F8
F80000F8
F80000F8
F8000078
F8000078
F8000078
F8000078
F8000078
F8000078
F8000078
F80000F8
F80000F8
F80000F8
F80000F0
F80001F0
F80001F0
F80003E0
F80007E0
F8000FC0
F8007F80
FFFFFF00
FFFFFE00
FFFFF800
FFFFC000
ENDCHAR
STARTCHAR 0045
ENCODING 69
SWIDTH 660 0
DWIDTH 33 0
BBX 26 36 5 0
BITMAP
FFFFFF80
FFFFFF80
FFFFFF80
FFFFFF80
F0000000
F0000000
F0000000
F0000000
F0000000
F0000000
F0000000
F0000000
F0000000
F0000000
F0000000
F0000000
FFFFFF00
FFFFFF00
FFFFFF00
FFFFFF00
F0000000
F0000000
F0000000
F0000000
F0000000
F0000000
F0000000
F0000000
F0000000
F0000000
F0000000
F0000000
FFFFFFC0
FFFFFFC0
FFFFFFC0
FFFFFFC0
ENDCHAR
STARTCHAR 0046
ENCODING 70
SWIDTH 620 0
DWIDTH 31 0
BBX 24 36 5 0
BITMAP
FFFFFF
FFFFFF
FFFFFF
FFFFFF
F00000
F00000
F00000
F00000
F00000
F00000
F00000
F00000
F00000
F00000
F00000
F00000
FFFFFC
FFFFFC
FFFFFC
FFFFFC
F00000
F00000
F00000
F00000
F00000
F00000
F00000
F00000
F00000
F00000
F00000
F00000
F00000
F00000
F00000
F00000
ENDCHAR
STARTCHAR 0047
ENCODING 71
SWIDTH 780 0
DWIDTH 39 0
BBX 33 38 2 -1
BITMAP
0007FC0000
003FFF8000
00FFFFE000
01FFFFF800
03FC07FC00
07F000FC00
0FC0007E00
1F80003F00
1F00001F00
3E00001F00
3E00000F80
7C00000F80
7C00000000
7C00000000
7800000000
7800000000
F800000000
F800000000
F8003FFF80
F8003FFF80
F8003FFF80
F8003FFF80
F800000780
7800000780
7C00000780
7C00000780
7C00000780
3E00000F80
3E00000F80
1F00001F80
1F80003F80
0FC0007F80
07F000FF80
03FE07F380
01FFFFE380
00FFFFC380
003FFF0380
0007F80000
ENDCHAR
STARTCHAR 0048
ENCODING 72
SWIDTH 720 0
DWIDTH 36 0
BBX 28 36 4 0
BITMAP
F80000F0
F80000F0
F80000F0
F80000F0
F80000F0
F80000F0
F80000F0
F80000F0
F80000F0
F80000F0
F80000F0
F80000F0
F80000F0
F80000F0
F80000F0
F80000F0
FFFFFFF0
FFFFFFF0
FFFFFFF0
FFFFFFF0
F80000F0
F80000F0
F80000F0
F80000F0
F80000F0
F80000F0
F80000F0
F80000F0
F80000F0
F80000F0
F80000F0
F80000F0
F80000F0
F80000F0
F80000F0
F80000F0
ENDCHAR
STARTCHAR 0049
ENCODING 73
SWIDTH 280 0
DWIDTH 14 0
BBX 5 36 5 0
BITMAP
F8
F8
F8
F8
F8
F8
F8
F8
F8
F8
F8
F8
F8
F8
F8
F8
F8
F8
F8
F8
F8
F8
F8
F8
F8
F8
F8
F8
F8
F8
F8
F8
F8
F8
F8
F8
ENDCHAR
STARTCHAR 004A
ENCODING 74
SWIDTH 500 0
DWIDTH 25 0
BBX 20 37 1 -1
BITMAP
0000F0
0000F0
0000F0
0000F0
0000F0
0000F0
0000F0
0000F0
0000F0
0000F0
0000F0
0000F0
0000F0
0000F0
0000F0
0000F0
0000F0
0000F0
0000F0
0000F0
0000F0
0000F0
0000F0
0000F0
F800F0
F800F0
F800F0
F800F0
F801F0
F801F0
F801F0
7C03E0
7E07E0
3FFFC0
1FFF80
0FFF00
03FC00
ENDCHAR
STARTCHAR 004B
ENCODING 75
SWIDTH 660 0
DWIDTH 33 0
BBX 29 36 4 0
BITMAP
F80003F0
F80007E0
F8000FC0
F8001F80
F8003F00
F8007E00
F800FC00
F801F800
F803F000
F807E000
F80FC000
F81F8000
F83F0000
F87E0000
F8FC0000
F9FC0000
FBFE0000
FFFF0000
FFDF8000
FF8F8000
FF07C000
FE07E000
FC03E000
F801F000
F801F800
F800FC00
F8007C00
F8007E00
F8003F00
F8001F00
F8000F80
F8000FC0
F80007C0
F80003E0
F80003F0
F80001F8
ENDCHAR
STARTCHAR 004C
ENCODING 76
SWIDTH 560 0
DWIDTH 28 0
BBX 23 36 4 0
BITMAP
F80000
F80000
F80000
F80000
F80000
F80000
F80000
F80000
F80000
F80000
F80000
F80000
F80000
F80000
F80000
F80000
F80000
F80000
F80000
F80000
F80000
F80000
F80000
F80000
F80000
F80000
F80000
F80000
F80000
F80000
F80000
F80000
FFFFFE
FFFFFE
FFFFFE
FFFFFE
ENDCHAR
STARTCHAR 004D
ENCODING 77
SWIDTH 840 0
DWIDTH 42 0
BBX 34 36 4 0
BITMAP
FC00001FC0
FE00001FC0
FE00001FC0
FE00003FC0
FF00003FC0
FF00003FC0
FF00007BC0
F780007BC0
F780007BC0
F78000F3C0
F3C000F3C0
F3C000F3C0
F3E001E3C0
F1E001E3C0
F1E001E3C0
F1F003C3C0
F0F003C3C0
F0F003C3C0
F0F80783C0
F0780783C0
F0780783C0
F07C0F03C0
F03C0F03C0
F03C0F03C0
F01E1E03C0
F01E1E03C0
F01E1E03C0
F00F3C03C0
F00F3C03C0
F00F3C03C0
F007F803C0
F007F803C0
F007F803C0
F003F003C0
F003F003C0
F003F003C0
ENDCHAR
STARTCHAR 004E
ENCODING 78
SWIDTH 720 0
DWIDTH 36 0
BBX 28 36 4 0
BITMAP
F80000F0
FC0000F0
FC0000F0
FE0000F0
FF0000F0
FF0000F0
FF8000F0
F7C000F0
F7C000F0
F3E000F0
F1F000F0
F1F000F0
F0F800F0
F0FC00F0
F07C00F0
F03E00F0
F03F00F0
F01F00F0
F00F80F0
F00F80F0
F007C0F0
F003E0F0
F003E0F0
F001F0F0
F000F8F0
F000F8F0
F0007CF0
F0003EF0
F0003EF0
F0001FF0
F0001FF0
F0000FF0
F00007F0
F00007F0
F00003F0
F00001F0
ENDCHAR
STARTCHAR 004F
ENCODING 79
SWIDTH 780 0
DWIDTH 39 0
BBX 35 38 2 -1
BITMAP
0007FC0000
003FFF8000
00FFFFE000
01FFFFF000
03FC07FC00
07E001FE00
0FC0007E00
1F80003F00
3F00001F80
3E00000F80
3E00000FC0
7C000007C0
7C000007C0
78000003E0
F8000003E0
F8000003E0
F8000003E0
F8000003E0
F8000003E0
F8000003E0
F8000003E0
F8000003E0
F8000003E0
F8000003E0
78000003E0
7C000007C0
7C000007C0
7E000007C0
3E00000F80
3F00001F80
1F80003F00
0FC0007E00
07F000FC00
07FC07FC00
01FFFFF000
00FFFFE000
003FFF8000
0007FC0000
ENDCHAR
STARTCHAR 0050
ENCODING 80
SWIDTH 660 0
DWIDTH 33 0
BBX 26 36 5 0
BITMAP
FFFFE000
FFFFF800
FFFFFE00
FFFFFF00
F000FF00
F0001F80
F0000F80
F0000FC0
F00007C0
F00007C0
F00007C0
F00007C0
F00007C0
F0000FC0
F0000F80
F0001F80
F0007F00
FFFFFF00
FFFFFE00
FFFFF800
FFFFE000
F0000000
F0000000
F0000000
F0000000
F0000000
F0000000
F0000000
F0000000
F0000000
F0000000
F0000000
F0000000
F0000000
F0000000
F0000000
ENDCHAR
STARTCHAR 0051
ENCODING 81
SWIDTH 780 0
DWIDTH 39 0
BBX 35 40 2 -3
BITMAP
0007FC0000
003FFF8000
00FFFFE000
01FFFFF000
03FC07FC00
07E001FE00
0FC0007E00
1F80003F00
3F00001F80
3E00000F80
7E00000FC0
7C000007C0
7C000007C0
78000003E0
F8000003E0
F8000003E0
F8000003E0
F8000003E0
F8000003E0
F8000003E0
F8000003E0
F8000003E0
F8000003E0
F8000003E0
78000003E0
7C000007C0
7C000007C0
7E000607C0
3E00070F80
3F000FDF80
1F8007FF00
0FC003FE00
07F001FC00
07FC07FC00
01FFFFFF00
00FFFFFF80
003FFF8FC0
0007FC03C0
0000000180
0000000080
ENDCHAR
STARTCHAR 0052
ENCODING 82
SWIDTH 720 0
DWIDTH 36 0
BBX 29 36 5 0
BITMAP
FFFFF800
FFFFFE00
FFFFFF80
FFFFFFC0
F0001FC0
F00007E0
F00003E0
F00003E0
F00001F0
F00001F0
F00001F0
F00001E0
F00003E0
F00003E0
F00007C0
F0001F80
FFFFFF00
FFFFFC00
FFFFFE00
FFFFFF80
F0001FC0
F00007C0
F00007C0
F00003E0
F00003E0
F00003E0
F00003E0
F00003E0
F00003E0
F00003E0
F00003E0
F00003E0
F00003E0
F00001F0
F00001F8
F00001F8
ENDCHAR
STARTCHAR 0053
ENCODING 83
SWIDTH 660 0
DWIDTH 33 0
BBX 29 38 2 -1
BITMAP
003FE000
01FFFC00
03FFFF00
0FFFFF80
1FC03FC0
1F8007C0
3E0003E0
3E0003E0
3C0001F0
3C0001F0
3C0001F0
3C000000
3E000000
3F000000
3FC00000
1FF80000
0FFF0000
07FFF000
01FFFE00
003FFF80
0003FFC0
00003FE0
000007F0
000003F0
000001F8
F80000F8
F80000F8
780000F8
780000F8
7C0000F8
7C0000F0
3E0001F0
3F8003E0
1FE01FE0
0FFFFFC0
07FFFF80
01FFFE00
003FF000
ENDCHAR
STARTCHAR 0054
ENCODING 84
SWIDTH 620 0
DWIDTH 31 0
BBX 29 36 1 0
BITMAP
FFFFFFF8
FFFFFFF8
FFFFFFF8
FFFFFFF8
000F8000
000F8000
000F8000
000F8000
000F8000
000F8000
000F8000
000F8000
000F8000
000F8000
000F8000
000F8000
000F8000
000F8000
000F8000
000F8000
000F8000
000F8000
000F8000
000F8000
000F8000
000F8000
000F8000
000F8000
000F8000
000F8000
000F8000
000F8000
000F8000
000F8000
000F8000
000F8000
ENDCHAR
STARTCHAR 0055
ENCODING 85
SWIDTH 720 0
DWIDTH 36 0
BBX 28 37 4 -1
BITMAP
F80000F0
F80000F0
F80000F0
F80000F0
F80000F0
F80000F0
F80000F0
F80000F0
F80000F0
F80000F0
F80000F0
F80000F0
F80000F0
F80000F0
F80000F0
F80000F0
F80000F0
F80000F0
F80000F0
F80000F0
F80000F0
F80000F0
F80000F0
F80000F0
F80000F0
F80000F0
F80000F0
F80001F0
7C0001F0
7C0003E0
7E0003E0
3F000FC0
1FE03FC0
0FFFFF80
07FFFE00
01FFFC00
007FE000
ENDCHAR
STARTCHAR 0056
ENCODING 86
SWIDTH 660 0
DWIDTH 33 0
BBX 30 36 2 0
BITMAP
F800007C
F800007C
F80000F8
7C0000F8
7C0000F8
7C0001F0
3E0001F0
3E0001F0
1E0003E0
1F0003E0
1F0003E0
0F8007C0
0F8007C0
0F8007C0
07C00F80
07C00F80
07C00F00
03E01F00
03E01F00
01E01E00
01F03E00
01F03E00
00F03C00
00F87C00
00F87C00
00787800
007CF800
007CF800
003EF000
003EF000
001FF000
001FE000
001FE000
000FC000
000FC000
000FC000
ENDCHAR
STARTCHAR 0057
ENCODING 87
SWIDTH 940 0
DWIDTH 47 0
BBX 45 36 1 0
BITMAP
F8000F8000F8
FC000FC000F8
7C000FC000F8
7C001FC001F8
7C001FE001F0
3E001FE001F0
3E003FE001F0
3E003DE001F0
3E003DF003E0
1F003CF003E0
1F007CF003E0
1F0078F803C0
1F0078F807C0
0F00787807C0
0F80F07807C0
0F80F07C0780
0F80F03C0F80
0781F03C0F80
07C1E03E0F80
07C1E03E0F00
07C1E01E0F00
03C3E01E1F00
03E3C01F1F00
03E3C00F1E00
03E7C00F1E00
01E7800FBE00
01F7800FBE00
01F78007BC00
01FF8007BC00
00FF0007FC00
00FF0003FC00
00FF0003F800
007F0003F800
007E0003F800
007E0001F800
007E0001F000
ENDCHAR
STARTCHAR 0058
ENCODING 88
SWIDTH 660 0
DWIDTH 33 0
BBX 31 36 1 0
BITMAP
7E00007E
3F0000FC
1F0000F8
1F8001F0
0FC003F0
07C003E0
07E007C0
03F00FC0
01F00F80
01F81F00
00FC3E00
007C3E00
003E7C00
003EF800
001FF800
000FF000
000FE000
0007E000
000FE000
000FF000
001FF800
003EF800
003E7C00
007C7E00
00F83E00
01F81F00
01F01F80
03E00FC0
07E007C0
07C007E0
0F8003F0
1F8001F0
1F0001F8
3E0000FC
7E00007C
FC00007E
ENDCHAR
STARTCHAR 0059
ENCODING 89
SWIDTH 660 0
DWIDTH 33 0
BBX 32 36 1 0
BITMAP
FC00003F
7C00003E
7E00007C
3F0000FC
1F0000F8
1F8001F8
0F8001F0
0FC003E0
07E007E0
03E007C0
03F00F80
01F00F80
00F81F00
00FC3F00
007C3E00
003E7C00
003E7C00
001FF800
000FF000
000FF000
0007E000
0007E000
0003C000
0003C000
0003C000
0003C000
0003C000
0003C000
0003C000
0003C000
0003C000
0003C000
0003C000
0003C000
0003C000
0003C000
ENDCHAR
STARTCHAR 005A
ENCODING 90
SWIDTH 620 0
DWIDTH 31 0
BBX 28 36 1 0
BITMAP
3FFFFFF0
3FFFFFF0
3FFFFFF0
3FFFFFF0
000003F0
000007E0
00000FC0
00000F80
00001F80
00003F00
00007E00
0000FC00
0000FC00
0001F800
0003F000
0007E000
0007C000
000FC000
001F8000
003F0000
007E0000
007C0000
00FC0000
01F80000
03F00000
07E00000
07C00000
0FC00000
1F800000
3F000000
7E000000
7E000000
FFFFFFF0
FFFFFFF0
FFFFFFF0
FFFFFFF0
ENDCHAR
STARTCHAR 005B
ENCODING 91
SWIDTH 280 0
DWIDTH 14 0
BBX 10 47 3 -11
BITMAP
FFC0
FFC0
FFC0
FFC0
F000
F000
F000
F000
F000
F000
F000
F000
F000
F000
F000
F000
F000
F000
F000
F000
F000
F000
F000
F000
F000
F000
F000
F000
F000
F000
F000
F000
F000
F000
F000
F000
F000
F000
F000
F000
F000
F000
F000
FFC0
FFC0
FFC0
FFC0
ENDCHAR
STARTCHAR 005C
ENCODING 92
SWIDTH 280 0
DWIDTH 14 0
BBX 14 37 0 -1
BITMAP
E000
E000
E000
6000
7000
7000
3000
3800
3800
1800
1C00
1C00
0C00
0E00
0E00
0600
0700
0700
0700
0380
0380
0380
01C0
01C0
01C0
00E0
00E0
00E0
0060
0070
0070
0030
0038
0038
0018
001C
001C
ENDCHAR
STARTCHAR 005D
ENCODING 93
SWIDTH 280 0
DWIDTH 14 0
BBX 9 47 1 -11
BITMAP
FF80
FF80
FF80
FF80
0780
0780
0780
0780
0780
0780
0780
0780
0780
0780
0780
0780
0780
0780
0780
0780
0780
0780
0780
0780
0780
0780
0780
0780
0780
0780
0780
0780
0780
0780
0780
0780
0780
0780
0780
0780
0780
0780
0780
FF80
FF80
FF80
FF80
ENDCHAR
STARTCHAR 005E
ENCODING 94
SWIDTH 460 0
DWIDTH 23 0
BBX 19 19 2 16
BITMAP
01F000
01F000
01F800
03F800
03BC00
07BC00
079C00
071E00
0F0E00
0E0F00
1E0F00
1C0700
1C0780
3C0380
3803C0
7801C0
7001C0
7001E0
F000E0
ENDCHAR
STARTCHAR 005F
ENCODING 95
SWIDTH 560 0
DWIDTH 28 0
BBX 30 3 -1 -9
BITMAP
FFFFFFFC
FFFFFFFC
FFFFFFFC
ENDCHAR
STARTCHAR 0060
ENCODING 96
SWIDTH 340 0
DWIDTH 17 0
BBX 9 7 2 30
BITMAP
F800
7C00
3C00
1E00
0F00
0700
0380
ENDCHAR
STARTCHAR 0061
ENCODING 97
SWIDTH 560 0
DWIDTH 28 0
BBX 25 28 2 -1
BITMAP
00FF0000
07FFE000
0FFFF000
1FFFF800
3F01F800
3E007800
7C007C00
7C007C00
00007C00
00007C00
00007C00
0003FC00
00FFFC00
0FFFFC00
1FFF7C00
3FC07C00
7E007C00
78007C00
F8007C00
F0007C00
F0007C00
F800FC00
F801FC00
7C03FC00
7FFFBF80
3FFF3F80
1FFC3F80
07F01F80
ENDCHAR
STARTCHAR 0062
ENCODING 98
SWIDTH 560 0
DWIDTH 28 0
BBX 23 37 3 -1
BITMAP
F00000
F00000
F00000
F00000
F00000
F00000
F00000
F00000
F00000
F07F00
F1FFC0
F7FFE0
FFFFF0
FF03F8
FE00F8
FC007C
F8007C
F8003E
F0003E
F0003E
F0001E
F0001E
F0001E
F0001E
F0001E
F0001E
F0003E
F8003E
F8003C
F8007C
FC007C
FE00F8
FF03F0
EFFFF0
E7FFE0
E3FF80
00FE00
ENDCHAR
STARTCHAR 0063
ENCODING 99
SWIDTH 500 0
DWIDTH 25 0
BBX 22 28 2 -1
BITMAP
00FE00
03FF80
0FFFE0
1FFFF0
3F03F0
3E00F8
7C00F8
780078
F80078
F8007C
F00000
F00000
F00000
F00000
F00000
F00000
F00000
F00000
F0003C
F8007C
780078
7C00F8
7E00F8
3F03F0
1FFFE0
0FFFC0
07FF80
00FE00
ENDCHAR
STARTCHAR 0064
ENCODING 100
SWIDTH 560 0
DWIDTH 28 0
BBX 24 37 1 -1
BITMAP
00000F
00000F
00000F
00000F
00000F
00000F
00000F
00000F
00000F
00FE0F
03FF8F
07FFCF
0FFFEF
1F81FF
3F007F
3E007F
7C003F
7C001F
78001F
78001F
F8001F
F8000F
F8000F
F8000F
F8000F
F8001F
78001F
78001F
7C001F
7C003F
3E003F
3F007F
1FC1FF
0FFFEF
07FFCF
03FF8F
00FE00
ENDCHAR
STARTCHAR 0065
ENCODING 101
SWIDTH 560 0
DWIDTH 28 0
BBX 24 28 2 -1
BITMAP
007F00
03FFC0
07FFE0
0FFFF8
1F81F8
3E00FC
3C007C
7C003E
78001E
78001E
F8001E
F8001F
FFFFFF
FFFFFF
FFFFFF
F00000
F00000
F80000
F80000
78001E
7C003E
7C003C
3E007C
1F81F8
1FFFF8
0FFFE0
03FFC0
00FE00
ENDCHAR
STARTCHAR 0066
ENCODING 102
SWIDTH 280 0
DWIDTH 14 0
BBX 12 37 1 0
BITMAP
01F0
07F0
0FF0
0FF0
0F00
1F00
1F00
1F00
1F00
1F00
1F00
FFF0
FFF0
FFF0
1F00
1F00
1F00
1F00
1F00
1F00
1F00
1F00
1F00
1F00
1F00
1F00
1F00
1F00
1F00
1F00
1F00
1F00
1F00
1F00
1F00
1F00
1F00
ENDCHAR
STARTCHAR 0067
ENCODING 103
SWIDTH 560 0
DWIDTH 28 0
BBX 22 38 2 -11
BITMAP
00FC00
07FE3C
0FFF3C
1FFFBC
3F03FC
3E01FC
7C00FC
78007C
78007C
F8007C
F0007C
F0003C
F0003C
F0003C
F0003C
F0003C
F0003C
F0003C
F8007C
F8007C
78007C
7C00FC
3E01FC
3F03FC
1FFFBC
0FFF3C
07FE3C
01F83C
00003C
00007C
780078
780078
7C00F8
3E01F0
3FFFE0
1FFFC0
0FFF80
01FE00
ENDCHAR
STARTCHAR 0068
ENCODING 104
SWIDTH 560 0
DWIDTH 28 0
BBX 20 36 4 0
BITMAP
F00000
F00000
F00000
F00000
F00000
F00000
F00000
F00000
F00000
F07F00
F1FFC0
F7FFE0
FFFFE0
FE03F0
FC01F0
F800F0
F800F0
F000F0
F000F0
F000F0
F000F0
F000F0
F000F0
F000F0
F000F0
F000F0
F000F0
F000F0
F000F0
F000F0
F000F0
F000F0
F000F0
F000F0
F000F0
F000F0
ENDCHAR
STARTCHAR 0069
ENCODING 105
SWIDTH 220 0
DWIDTH 11 0
BBX 5 36 3 0
BITMAP
F8
F8
F8
F8
F8
00
00
00
00
00
F8
F8
F8
F8
F8
F8
F8
F8
F8
F8
F8
F8
F8
F8
F8
F8
F8
F8
F8
F8
F8
F8
F8
F8
F8
F8
ENDCHAR
STARTCHAR 006A
ENCODING 106
SWIDTH 220 0
DWIDTH 11 0
BBX 9 47 -1 -11
BITMAP
0F80
0F80
0F80
0F80
0F80
0000
0000
0000
0000
0000
0F80
0F80
0F80
0F80
0F80
0F80
0F80
0F80
0F80
0F80
0F80
0F80
0F80
0F80
0F80
0F80
0F80
0F80
0F80
0F80
0F80
0F80
0F80
0F80
0F80
0F80
0F80
0F80
0F80
0F80
0F80
0F80
0F80
FF00
FF00
FE00
F800
ENDCHAR
STARTCHAR 006B
ENCODING 107
SWIDTH 500 0
DWIDTH 25 0
BBX 22 36 3 0
BITMAP
F00000
F00000
F00000
F00000
F00000
F00000
F00000
F00000
F00000
F00000
F001F0
F003E0
F007C0
F00F80
F01F00
F03E00
F07C00
F0F800
F1F000
F3F000
F7F000
FFF800
FEFC00
FC7C00
F83E00
F03F00
F01F00
F00F80
F00F80
F007C0
F007E0
F003E0
F001F0
F001F8
F000F8
F0007C
ENDCHAR
STARTCHAR 006C
ENCODING 108
SWIDTH 220 0
DWIDTH 11 0
BBX 5 36 3 0
BITMAP
F8
F8
F8
F8
F8
F8
F8
F8
F8
F8
F8
F8
F8
F8
F8
F8
F8
F8
F8
F8
F8
F8
F8
F8
F8
F8
F8
F8
F8
F8
F8
F8
F8
F8
F8
F8
ENDCHAR
STARTCHAR 006D
ENCODING 109
SWIDTH 840 0
DWIDTH 42 0
BBX 34 27 4 0
BITMAP
007E01FC00
E1FF87FF00
E7FF8FFF80
EFFFDFFF80
EE07FC0FC0
FC03F807C0
F803F007C0
F001F003C0
F001E003C0
F001E003C0
F001E003C0
F001E003C0
F001E003C0
F001E003C0
F001E003C0
F001E003C0
F001E003C0
F001E003C0
F001E003C0
F001E003C0
F001E003C0
F001E003C0
F001E003C0
F001E003C0
F001E003C0
F001E003C0
F001E003C0
ENDCHAR
STARTCHAR 006E
ENCODING 110
SWIDTH 560 0
DWIDTH 28 0
BBX 20 27 4 0
BITMAP
007E00
E1FFC0
E3FFE0
E7FFE0
EE03F0
FC01F0
F800F0
F800F0
F000F0
F000F0
F000F0
F000F0
F000F0
F000F0
F000F0
F000F0
F000F0
F000F0
F000F0
F000F0
F000F0
F000F0
F000F0
F000F0
F000F0
F000F0
F000F0
ENDCHAR
STARTCHAR 006F
ENCODING 111
SWIDTH 560 0
DWIDTH 28 0
BBX 24 28 2 -1
BITMAP
00FE00
03FFC0
0FFFE0
1FFFF0
3F81F8
3E00FC
7C007C
7C003E
78003E
F8001E
F8001E
F0001E
F0001E
F0001F
F0001F
F0001E
F0001E
F8001E
F8001E
78003E
7C003E
7C007C
3E00FC
3F81F8
1FFFF0
0FFFE0
03FFC0
00FE00
ENDCHAR
STARTCHAR 0070
ENCODING 112
SWIDTH 560 0
DWIDTH 28 0
BBX 23 38 3 -11
BITMAP
007E00
F1FFC0
F3FFE0
F7FFF0
FF03F8
FE00F8
FC007C
F8007C
F8003C
F8003E
F0003E
F0001E
F0001E
F0001E
F0001E
F0001E
F0001E
F0003E
F8003E
F8003C
F8007C
FC007C
FE00F8
FF03F8
FFFFF0
F7FFE0
F3FFC0
F07E00
F00000
F00000
F00000
F00000
F00000
F00000
F00000
F00000
F00000
F00000
ENDCHAR
STARTCHAR 0071
ENCODING 113
SWIDTH 560 0
DWIDTH 28 0
BBX 24 38 1 -11
BITMAP
00FE00
03FF8F
07FFCF
0FFFEF
1F81FF
3F007F
3E007F
7C003F
7C001F
78001F
78001F
78001F
F8000F
F8000F
F8000F
F8000F
F8001F
78001F
78001F
7C001F
7C003F
3E003F
3F007F
1FC1FF
1FFFEF
0FFFCF
03FF8F
00FE0F
00000F
00000F
00000F
00000F
00000F
00000F
00000F
00000F
00000F
00000F
ENDCHAR
STARTCHAR 0072
ENCODING 114
SWIDTH 340 0
DWIDTH 17 0
BBX 13 27 3 0
BITMAP
0078
F0F8
F1F8
F3F8
F7F8
FF00
FE00
FC00
FC00
F800
F800
F800
F800
F800
F800
F800
F800
F800
F800
F800
F800
F800
F800
F800
F800
F800
F800
ENDCHAR
STARTCHAR 0073
ENCODING 115
SWIDTH 500 0
DWIDTH 25 0
BBX 21 28 2 -1
BITMAP
01FC00
0FFF80
1FFFC0
3FFFE0
7E07E0
7C01F0
F801F0
F801F0
F80000
F80000
7E0000
7FC000
3FFC00
1FFF80
07FFE0
007FF0
0007F0
0001F8
0000F8
F00078
F00078
F800F8
F800F0
7E03F0
7FFFE0
3FFFC0
1FFF80
03FC00
ENDCHAR
STARTCHAR 0074
ENCODING 116
SWIDTH 280 0
DWIDTH 14 0
BBX 12 34 1 -1
BITMAP
1E00
1E00
1E00
1E00
1E00
1E00
1E00
FFF0
FFF0
FFF0
1E00
1E00
1E00
1E00
1E00
1E00
1E00
1E00
1E00
1E00
1E00
1E00
1E00
1E00
1E00
1E00
1E00
1E00
1E00
1F00
1FF0
0FF0
0FF0
07F0
ENDCHAR
STARTCHAR 0075
ENCODING 117
SWIDTH 560 0
DWIDTH 28 0
BBX 21 27 3 -1
BITMAP
F00078
F00078
F00078
F00078
F00078
F00078
F00078
F00078
F00078
F00078
F00078
F00078
F00078
F00078
F00078
F00078
F00078
F00078
F000F8
F800F8
F801F8
F801F8
7E07F8
7FFF78
3FFF78
1FFC78
07F000
ENDCHAR
STARTCHAR 0076
ENCODING 118
SWIDTH 500 0
DWIDTH 25 0
BBX 23 26 1 0
BITMAP
F0003E
F8003E
F8003C
78007C
7C007C
7C0078
3C00F8
3E00F0
3E00F0
1E01F0
1F01E0
0F01E0
0F03C0
0F83C0
0783C0
078780
07C780
03CF80
03CF00
03EF00
01FE00
01FE00
01FE00
00FC00
00FC00
00F800
ENDCHAR
STARTCHAR 0077
ENCODING 119
SWIDTH 720 0
DWIDTH 36 0
BBX 35 26 0 0
BITMAP
F801F001E0
7801F803E0
7C01F803E0
7C03F803C0
3C03FC03C0
3C03FC07C0
3E03BC0780
3E07BC0780
1E07BE0780
1E079E0F80
1F071E0F00
0F0F1E0F00
0F0F1F1F00
0F0F0F1E00
078E0F1E00
079E0F1E00
079E0FBC00
07DE07BC00
03DC07BC00
03FC07BC00
03FC07F800
01FC03F800
01F803F800
01F803F000
01F801F000
00F801F000
ENDCHAR
STARTCHAR 0078
ENCODING 120
SWIDTH 500 0
DWIDTH 25 0
BBX 22 26 1 0
BITMAP
78007C
7C0078
3E00F8
1E01F0
1F01E0
0F83E0
0787C0
07C780
03EF00
01FF00
00FE00
00FC00
007C00
007C00
00FE00
01FF00
03EF00
03CF80
07C7C0
0F83C0
0F03E0
1F01F0
3E01F0
3C00F8
7C007C
F8007C
ENDCHAR
STARTCHAR 0079
ENCODING 121
SWIDTH 500 0
DWIDTH 25 0
BBX 23 37 1 -11
BITMAP
F8003E
F8003C
78003C
7C007C
3C0078
3C00F8
3E00F8
1E00F0
1E01F0
1F01E0
0F01E0
0F03E0
0F83C0
0783C0
0787C0
07C780
03C780
03CF00
03EF00
01FF00
01FE00
01FE00
00FE00
00FC00
00FC00
007C00
007800
00F800
00F000
00F000
01F000
01E000
03E000
3FC000
3FC000
3F8000
3E0000
ENDCHAR
STARTCHAR 007A
ENCODING 122
SWIDTH 500 0
DWIDTH 25 0
BBX 21 26 2 0
BITMAP
7FFFF0
7FFFF0
7FFFF0
7FFFF0
0003E0
0003E0
0007C0
000F80
001F00
003E00
007C00
007C00
00F800
01F000
03E000
07C000
0F8000
0F8000
1F0000
3E0000
7C0000
F80000
FFFFF8
FFFFF8
FFFFF8
FFFFF8
ENDCHAR
STARTCHAR 007B
ENCODING 123
SWIDTH 340 0
DWIDTH 17 0
BBX 12 47 2 -11
BITMAP
01F0
03F0
07F0
0780
0F00
0F00
0F00
0F00
0F00
0F00
0F00
0F00
0F00
0F00
0F00
0F00
0F00
0F00
0F00
1E00
1E00
7E00
FC00
F000
F800
7C00
1E00
1E00
0F00
0F00
0F00
0F00
0F00
0F00
0F00
0F00
0F00
0F00
0F00
0F00
0F00
0F00
0F00
0F80
07F0
03F0
01F0
ENDCHAR
STARTCHAR 007C
ENCODING 124
SWIDTH 260 0
DWIDTH 13 0
BBX 3 47 5 -11
BITMAP
E0
E0
E0
E0
E0
E0
E0
E0
E0
E0
E0
E0
E0
E0
E0
E0
E0
E0
E0
E0
E0
E0
E0
E0
E0
E0
E0
E0
E0
E0
E0
E0
E0
E0
E0
E0
E0
E0
E0
E0
E0
E0
E0
E0
E0
E0
E0
ENDCHAR
STARTCHAR 007D
ENCODING 125
SWIDTH 340 0
DWIDTH 17 0
BBX 12 47 1 -11
BITMAP
F800
FE00
FE00
1F00
0F00
0F00
0F00
0F00
0F00
0F00
0F00
0F00
0F00
0F00
0F00
0F00
0F00
0780
0780
0780
07C0
03E0
01F0
00F0
01F0
03E0
07C0
0780
0780
0700
0700
0F00
0F00
0F00
0F00
0F00
0F00
0F00
0F00
0F00
0F00
0F00
0F00
1F00
FE00
FE00
F800
ENDCHAR
STARTCHAR 007E
ENCODING 126
SWIDTH 580 0
DWIDTH 29 0
BBX 21 8 4 14
BITMAP
1E0000
3F8018
7FE018
FBF018
E0FC38
E03FF8
C01FF0
0007E0
ENDCHAR
STARTCHAR 00A0
ENCODING 160
SWIDTH 280 0
DWIDTH 14 0
BBX 0 0 0 0
BITMAP
ENDCHAR
STARTCHAR 00A1
ENCODING 161
SWIDTH 340 0
DWIDTH 17 0
BBX 4 36 6 -10
BITMAP
F0
F0
F0
F0
F0
00
00
00
60
60
60
60
70
70
70
F0
F0
F0
F0
F0
F0
F0
F0
F0
F0
F0
F0
F0
F0
F0
F0
F0
F0
F0
F0
F0
ENDCHAR
STARTCHAR 00A2
ENCODING 162
SWIDTH 560 0
DWIDTH 28 0
BBX 22 37 3 -6
BITMAP
003800
003800
003800
003800
007E00
03FFC0
07FFE0
1FFFF0
1FB9F8
3E38F8
7C387C
78387C
F8383C
F8383C
F03800
F03800
F03800
F03800
F03800
F03800
F03800
F03800
F8383C
F8383C
78383C
7C387C
3E38F8
3F39F8
1FFFF0
0FFFE0
07FFC0
00FF00
003800
003800
003800
003800
003800
ENDCHAR
STARTCHAR 00A3
ENCODING 163
SWIDTH 560 0
DWIDTH 28 0
BBX 25 37 1 -1
BITMAP
003F8000
00FFF000
03FFF800
07FFFC00
0FC07E00
1F003F00
1E001F00
3E001F00
3E000F00
3C000F80
3C000F80
3E000000
3E000000
3E000000
1F000000
1F000000
0F800000
FFFF8000
FFFF8000
FFFF8000
03E00000
01E00000
01E00000
01E00000
01E00000
01E00000
01E00000
03C00000
03800000
07800000
0F000000
1EFE0100
3FFFFF80
7FFFFF80
3FFFFF80
380FFF00
0000FC00
ENDCHAR
STARTCHAR 00A4
ENCODING 164
SWIDTH 560 0
DWIDTH 28 0
BBX 20 20 4 7
BITMAP
600040
F1F8E0
FFFFF0
7FFFF0
3FFFE0
3E0FC0
7C03C0
7803E0
7801E0
F001E0
F001E0
7801E0
7803E0
7C03C0
3E0FC0
3FFFC0
7FFFE0
FFFFF0
71F8E0
200040
ENDCHAR
STARTCHAR 00A5
ENCODING 165
SWIDTH 560 0
DWIDTH 28 0
BBX 26 35 1 0
BITMAP
F00003C0
78000780
78000F80
3C000F00
3E001F00
1E001E00
1F003C00
0F003C00
07807800
07807800
03C0F000
03E1F000
01E1E000
01F3C000
00F3C000
007F8000
007F8000
3FFFFF00
3FFFFF00
3FFFFF00
001E0000
001E0000
001E0000
3FFFFF00
3FFFFF00
3FFFFF00
001E0000
001E0000
001E0000
001E0000
001E0000
001E0000
001E0000
001E0000
001E0000
ENDCHAR
STARTCHAR 00A6
ENCODING 166
SWIDTH 260 0
DWIDTH 13 0
BBX 3 47 5 -11
BITMAP
E0
E0
E0
E0
E0
E0
E0
E0
E0
E0
E0
E0
E0
E0
E0
E0
E0
E0
E0
E0
00
00
00
00
00
00
00
E0
E0
E0
E0
E0
E0
E0
E0
E0
E0
E0
E0
E0
E0
E0
E0
E0
E0
E0
E0
ENDCHAR
STARTCHAR 00A7
ENCODING 167
SWIDTH 560 0
DWIDTH 28 0
BBX 23 47 2 -11
BITMAP
007F00
01FFC0
03FFE0
07FFF0
0FC1F0
0F80F8
1F0078
1F0078
1F0078
1F0078
0F8000
0FC000
07F000
07F800
1FFE00
3E7F00
783FC0
780FF0
F007F8
F001FC
F000FC
F0007E
F8003E
7C001E
7E001E
3F001E
3FC01E
0FE01E
07F81E
03FC3C
00FEF8
007FF0
001FC0
000FE0
0003E0
0001F0
0001F0
3C00F0
3C00F8
3C00F0
3E00F0
1F01F0
1F83E0
0FFFE0
07FFC0
03FF00
00FC00
ENDCHAR
STARTCHAR 00A8
ENCODING 168
SWIDTH 340 0
DWIDTH 17 0
BBX 13 5 2 31
BITMAP
F8F8
F8F8
F8F8
F8F8
F8F8
ENDCHAR
STARTCHAR 00A9
ENCODING 169
SWIDTH 740 0
DWIDTH 37 0
BBX 39 38 -1 -1
BITMAP
0001FF0000
000FFFE000
003FFFF800
007F01FC00
01F8003F00
03E0001F80
07C00007C0
07800003E0
0F007E01E0
1E01FF80F0
1C07FFC070
3C0783E078
380F01E038
781E00F03C
781E00F03C
701C00701C
703C00001C
F03C00001C
F03C00001E
F03C00001E
F03C00001E
F03C00001C
703C00701C
701C00701C
781E00F03C
781E00F03C
3C0F01E038
3C0FC3E078
1E07FFC0F0
1F01FF81F0
0F807E03E0
07C00007C0
03E0000F80
01F8003F00
00FF01FE00
003FFFF800
000FFFE000
0001FF0000
ENDCHAR
STARTCHAR 00AA
ENCODING 170
SWIDTH 380 0
DWIDTH 19 0
BBX 15 22 2 15
BITMAP
0FC0
3FF0
7FF8
7038
7038
0038
0038
0FF8
3FF8
7C38
E038
E038
E038
E078
FFFC
7FBE
3F1E
0000
0000
FFFC
FFFC
FFFC
ENDCHAR
STARTCHAR 00AB
ENCODING 171
SWIDTH 560 0
DWIDTH 28 0
BBX 18 17 5 5
BITMAP
010040
0300C0
0701C0
1F03C0
3E0F80
7C1F00
F83E00
E03C00
C03800
F03C00
F83E00
7C1F00
3E0FC0
1F03C0
0701C0
0300C0
010040
ENDCHAR
STARTCHAR 00AC
ENCODING 172
SWIDTH 580 0
DWIDTH 29 0
BBX 25 14 2 5
BITMAP
FFFFFF80
FFFFFF80
FFFFFF80
FFFFFF80
00000380
00000380
00000380
00000380
00000380
00000380
00000380
00000380
00000380
00000380
ENDCHAR
STARTCHAR 00AD
ENCODING 173
SWIDTH 340 0
DWIDTH 17 0
BBX 12 4 2 12
BITMAP
FFF0
FFF0
FFF0
FFF0
ENDCHAR
STARTCHAR 00AE
ENCODING 174
SWIDTH 740 0
DWIDTH 37 0
BBX 39 38 -1 -1
BITMAP
0001FF0000
000FFFE000
003FFFF800
007F01FE00
01F8003F00
03E0000F80
07C00007C0
0F800003E0
0F1FFF81E0
1E1FFFE0F0
3C1FFFF078
3C1E01F078
381E00F038
781E00703C
701E00703C
701E00701C
701E00F01C
F01E01F01C
F01FFFE01E
F01FFFC01E
F01FFFE01E
701E01F01C
701E00F01C
701E00F01C
781E00F03C
781E00F038
3C1E00F078
3C1E007078
1E1E0078F0
1F1E0079E0
0F800003E0
07C00007C0
03E0000F80
01F8003F00
00FF01FE00
003FFFF800
000FFFE000
0001FF0000
ENDCHAR
STARTCHAR 00AF
ENCODING 175
SWIDTH 340 0
DWIDTH 17 0
BBX 14 4 1 31
BITMAP
FFFC
FFFC
FFFC
FFFC
ENDCHAR
STARTCHAR 00B0
ENCODING 176
SWIDTH 400 0
DWIDTH 20 0
BBX 16 15 2 19
BITMAP
07E0
0FF8
3FFC
3C3C
700E
700E
E007
E007
E006
700E
781E
3C3C
3FF8
0FF0
03C0
ENDCHAR
STARTCHAR 00B1
ENCODING 177
SWIDTH 580 0
DWIDTH 29 0
BBX 24 32 3 -1
BITMAP
003800
003800
003800
003800
003800
003800
003800
003800
003800
003800
FFF800
FFFFFF
FFFFFF
FFFFFF
003800
003800
003800
003800
003800
003800
003800
003800
003800
003800
000000
000000
000000
000000
FFFFFF
FFFFFF
FFFFFF
FFFFFF
ENDCHAR
STARTCHAR 00B2
ENCODING 178
SWIDTH 340 0
DWIDTH 17 0
BBX 15 21 1 14
BITMAP
0FE0
3FF8
7FFC
783C
F01E
E00E
E00E
E00E
001C
003C
00F8
03F0
07C0
1F00
3C00
7800
F000
E000
FFFE
FFFE
FFFE
ENDCHAR
STARTCHAR 00B3
ENCODING 179
SWIDTH 340 0
DWIDTH 17 0
BBX 16 22 0 13
BITMAP
07E0
1FF8
3FFC
381E
701E
700E
700E
000E
003C
03F8
03F8
00FC
001E
000F
000F
F00F
700F
700E
7C1E
3FFC
1FF8
0180
ENDCHAR
STARTCHAR 00B4
ENCODING 180
SWIDTH 340 0
DWIDTH 17 0
BBX 10 7 5 30
BITMAP
0FC0
1F80
1F00
3E00
7C00
7800
F000
ENDCHAR
STARTCHAR 00B5
ENCODING 181
SWIDTH 560 0
DWIDTH 28 0
BBX 24 37 3 -11
BITMAP
F00078
F00078
F00078
F00078
F00078
F00078
F00078
F00078
F00078
F00078
F00078
F00078
F00078
F00078
F00078
F00078
F00078
F00078
F000F8
F800F8
F801F8
F801F8
FE07F8
FFFFFF
FFFF7F
FFFC3F
F3F01F
F00000
F00000
F00000
F00000
F00000
F00000
F00000
F00000
F00000
F00000
ENDCHAR
STARTCHAR 00B6
ENCODING 182
SWIDTH 540 0
DWIDTH 27 0
BBX 24 45 2 -9
BITMAP
007FFF
03FFFF
07FFFF
0FFC38
1FFC38
3FFC38
3FFC38
7FFC38
7FFC38
7FFC38
7FFC38
FFFC38
FFFC38
FFFC38
7FFC38
7FFC38
7FFC38
3FFC38
3FFC38
1FFC38
0FFC38
07FC38
03FC38
001C38
001C38
001C38
001C38
001C38
001C38
001C38
001C38
001C38
001C38
001C38
001C38
001C38
001C38
001C38
001C38
001C38
001C38
001C38
001C38
001C38
001C38
ENDCHAR
STARTCHAR 00B7
ENCODING 183
SWIDTH 280 0
DWIDTH 14 0
BBX 5 5 6 11
BITMAP
F8
F8
F8
F8
F8
ENDCHAR
STARTCHAR 00B8
ENCODING 184
SWIDTH 340 0
DWIDTH 17 0
BBX 12 11 2 -11
BITMAP
0300
0300
0600
07E0
0FF0
00F0
0070
40F0
F0F0
FFE0
1F80
ENDCHAR
STARTCHAR 00B9
ENCODING 185
SWIDTH 340 0
DWIDTH 17 0
BBX 8 21 3 14
BITMAP
07
07
0F
7F
FF
FF
07
07
07
07
07
07
07
07
07
07
07
07
07
07
07
ENDCHAR
STARTCHAR 00BA
ENCODING 186
SWIDTH 360 0
DWIDTH 18 0
BBX 14 22 2 15
BITMAP
0FC0
1FF0
3FF8
7838
703C
E01C
E01C
E01C
E01C
E01C
E01C
E01C
703C
7838
3FF8
1FF0
0FC0
0000
0000
7FFC
7FFC
7FFC
ENDCHAR
STARTCHAR 00BB
ENCODING 187
SWIDTH 560 0
DWIDTH 28 0
BBX 18 15 5 6
BITMAP
C03000
E03800
F03C00
F83E00
3E1F80
1F07C0
0F03C0
0701C0
0F03C0
1F07C0
7C1F00
F83E00
F03C00
E03800
802000
ENDCHAR
STARTCHAR 00BC
ENCODING 188
SWIDTH 840 0
DWIDTH 42 0
BBX 40 36 1 -1
BITMAP
0300000700
0300000E00
0700000C00
3F00001C00
FF00003800
FF00003800
0700007000
070000E000
070000E000
070001C000
070001C000
0700038000
0700070000
0700070000
07000E0070
07000C0070
07001C00F0
07003801F0
07003803F0
07007003F0
0700E00770
0000E00E70
0001C01C70
0001801C70
0003803870
0007007070
000700E070
000E00FFFF
001C00FFFF
001C00FFFF
0038000070
0030000070
0070000070
00E0000070
00E0000070
01C0000000
ENDCHAR
STARTCHAR 00BD
ENCODING 189
SWIDTH 840 0
DWIDTH 42 0
BBX 39 36 1 -1
BITMAP
0300000E00
0300001C00
0700003800
1F00003800
FF00007000
FF00006000
070000E000
070001C000
070001C000
0700038000
0700070000
0700070000
07000E0000
07000C0000
07001C07E0
0700381FF8
0700383FFC
070070781E
0700E0700E
0700E0700E
0701C0700E
000180700E
000380000E
000700001C
000700007C
000E0001F0
001C0007E0
001C000F80
0038003E00
0030003800
0070007800
00E0007000
00E000FFFE
01C000FFFE
038000FFFE
0380000000
ENDCHAR
STARTCHAR 00BE
ENCODING 190
SWIDTH 840 0
DWIDTH 42 0
BBX 40 36 1 -1
BITMAP
07E0000380
1FF8000380
3FFC000700
781C000600
701E000E00
700E001C00
700E001C00
001E003800
003C007000
03F8007000
03F800E000
00FC00C000
001E01C000
000E038000
000F038030
E00F070070
F00E0E00F0
700E0E01F0
783E1C03F0
3FFC1803F0
1FF0380770
0180700E70
0000701C70
0000E01C70
0001C03870
0001C07070
000380E070
000300FFFF
000700FFFF
000E00FFFF
000E000070
001C000070
0038000070
0038000070
0070000070
00E0000000
ENDCHAR
STARTCHAR 00BF
ENCODING 191
SWIDTH 620 0
DWIDTH 31 0
BBX 21 37 5 -11
BITMAP
007800
007800
007800
007800
007800
000000
000000
000000
000000
000000
007800
007800
007800
007800
00F800
00F800
01F000
03E000
07C000
0F8000
1F0000
3E0000
7C0000
7C0000
F80000
F80078
F00078
F00078
F00078
F80078
F800F8
7C01F0
7F03F0
3FFFE0
1FFFC0
0FFF80
01FC00
ENDCHAR
STARTCHAR 00C0
ENCODING 192
SWIDTH 660 0
DWIDTH 33 0
BBX 31 47 1 0
BITMAP
007C0000
003E0000
001E0000
000F0000
00078000
00038000
0001C000
0000E000
00000000
00000000
00000000
0007E000
000FE000
000FF000
000FF000
001FF000
001FF800
003EF800
003E7C00
003C7C00
007C7C00
007C3E00
00783E00
00F83E00
00F81F00
00F01F00
01F01F00
01E00F80
01E00F80
03E00F80
03C007C0
07C007C0
07FFFFE0
07FFFFE0
0FFFFFE0
0FFFFFF0
0F0001F0
1F0001F0
1F0000F8
1E0000F8
3E0000F8
3E00007C
7C00007C
7C00007C
7C00003E
F800003E
F800003E
ENDCHAR
STARTCHAR 00C1
ENCODING 193
SWIDTH 660 0
DWIDTH 33 0
BBX 31 47 1 0
BITMAP
00007E00
00007C00
0000F800
0000F000
0001E000
0003C000
00038000
00070000
00000000
00000000
00000000
0007E000
000FE000
000FF000
000FF000
001FF000
001FF800
003EF800
003E7C00
003C7C00
007C7C00
007C3E00
00783E00
00F83E00
00F81F00
00F01F00
01F01F00
01E00F80
01E00F80
03E00F80
03C007C0
07C007C0
07FFFFE0
07FFFFE0
0FFFFFE0
0FFFFFF0
0F0001F0
1F0001F0
1F0000F8
1E0000F8
3E0000F8
3E00007C
7C00007C
7C00007C
7C00003E
F800003E
F800003E
ENDCHAR
STARTCHAR 00C2
ENCODING 194
SWIDTH 660 0
DWIDTH 33 0
BBX 31 47 1 0
BITMAP
0007C000
0007E000
000FE000
001EF000
001E7800
003C3800
00381C00
00701E00
00000000
00000000
00000000
0007E000
000FE000
000FF000
000FF000
001FF000
001FF800
003EF800
003E7C00
003C7C00
007C7C00
007C3E00
00783E00
00F83E00
00F81F00
00F01F00
01F01F00
01E00F80
01E00F80
03E00F80
03C007C0
07C007C0
07FFFFE0
07FFFFE0
0FFFFFE0
0FFFFFF0
0F0001F0
1F0001F0
1F0000F8
1E0000F8
3E0000F8
3E00007C
7C00007C
7C00007C
7C00003E
F800003E
F800003E
ENDCHAR
STARTCHAR 00C3
ENCODING 195
SWIDTH 660 0
DWIDTH 33 0
BBX 31 45 1 0
BITMAP
003E0E00
007FDE00
007FFE00
00E3FC00
00E07800
00000000
00000000
00000000
00000000
0007E000
000FE000
000FF000
000FF000
001FF000
001FF800
003EF800
003E7C00
003C7C00
007C7C00
007C3E00
00783E00
00F83E00
00F81F00
00F01F00
01F01F00
01E00F80
01E00F80
03E00F80
03C007C0
07C007C0
07FFFFE0
07FFFFE0
0FFFFFE0
0FFFFFF0
0F0001F0
1F0001F0
1F0000F8
1E0000F8
3E0000F8
3E00007C
7C00007C
7C00007C
7C00003E
F800003E
F800003E
ENDCHAR
STARTCHAR 00C4
ENCODING 196
SWIDTH 660 0
DWIDTH 33 0
BBX 31 45 1 0
BITMAP
007C7C00
007C7C00
007C7C00
007C7C00
007C7C00
00000000
00000000
00000000
00000000
0007E000
000FE000
000FF000
000FF000
001FF000
001FF800
003EF800
003E7C00
003C7C00
007C7C00
007C3E00
00783E00
00F83E00
00F81F00
00F01F00
01F01F00
01E00F80
01E00F80
03E00F80
03C007C0
07C007C0
07FFFFE0
07FFFFE0
0FFFFFE0
0FFFFFF0
0F0001F0
1F0001F0
1F0000F8
1E0000F8
3E0000F8
3E00007C
7C00007C
7C00007C
7C00003E
F800003E
F800003E
ENDCHAR
STARTCHAR 00C5
ENCODING 197
SWIDTH 660 0
DWIDTH 33 0
BBX 31 47 1 0
BITMAP
0007C000
000FE000
000C7000
001C3000
001C3000
000C7000
000FE000
0007C000
00000000
00000000
00000000
0007E000
000FE000
000FF000
000FF000
001FF000
001FF800
003EF800
003E7C00
003C7C00
007C7C00
007C3E00
00783E00
00F83E00
00F81F00
00F01F00
01F01F00
01E00F80
01E00F80
03E00F80
03C007C0
07C007C0
07FFFFE0
07FFFFE0
0FFFFFE0
0FFFFFF0
0F0001F0
1F0001F0
1F0000F8
1E0000F8
3E0000F8
3E00007C
7C00007C
7C00007C
7C00003E
F800003E
F800003E
ENDCHAR
STARTCHAR 00C6
ENCODING 198
SWIDTH 1000 0
DWIDTH 50 0
BBX 47 36 1 0
BITMAP
0003FFFFFFFC
0003FFFFFFFC
0007FFFFFFFC
0007FFFFFFFC
000783E00000
000F83E00000
000F03E00000
001F03E00000
001F03E00000
001E03E00000
003E03E00000
003C03E00000
007C03E00000
007C03E00000
00F803E00000
00F803E00000
00F003FFFFF8
01F003FFFFF8
01F003FFFFF8
03E003FFFFF8
03E003E00000
03FFFFE00000
07FFFFE00000
07FFFFE00000
0FFFFFE00000
0F8003E00000
1F0003E00000
1F0003E00000
1F0003E00000
3E0003E00000
3E0003E00000
7C0003E00000
7C0003FFFFFE
7C0003FFFFFE
F80003FFFFFE
F80003FFFFFE
ENDCHAR
STARTCHAR 00C7
ENCODING 199
SWIDTH 720 0
DWIDTH 36 0
BBX 32 48 2 -11
BITMAP
0007FC00
003FFF00
00FFFFC0
01FFFFE0
03FC0FF0
07E003F8
0FC000F8
1F80007C
1F00007C
3E00003E
3E00003E
3C00003E
7C000000
7C000000
7C000000
78000000
78000000
F8000000
F8000000
F8000000
F8000000
78000000
78000000
7C000000
7C00001F
7C00001F
7C00003E
3E00003E
3E00003E
1F00007C
1F80007C
0FC000FC
07E001F8
07FC0FF0
03FFFFE0
00FFFFC0
007FFF00
000FFC00
00018000
00030000
0003F800
0006F800
00003C00
00003C00
00203800
00387800
003FF000
000FC000
ENDCHAR
STARTCHAR 00C8
ENCODING 200
SWIDTH 660 0
DWIDTH 33 0
BBX 26 47 5 0
BITMAP
07E00000
03F00000
01F00000
00F80000
007C0000
003C0000
001E0000
000F0000
00000000
00000000
00000000
FFFFFF80
FFFFFF80
FFFFFF80
FFFFFF80
F0000000
F0000000
F0000000
F0000000
F0000000
F0000000
F0000000
F0000000
F0000000
F0000000
F0000000
F0000000
FFFFFF00
FFFFFF00
FFFFFF00
FFFFFF00
F0000000
F0000000
F0000000
F0000000
F0000000
F0000000
F0000000
F0000000
F0000000
F0000000
F0000000
F0000000
FFFFFFC0
FFFFFFC0
FFFFFFC0
FFFFFFC0
ENDCHAR
STARTCHAR 00C9
ENCODING 201
SWIDTH 660 0
DWIDTH 33 0
BBX 26 47 5 0
BITMAP
0007E000
0007C000
000F8000
001F0000
001E0000
003C0000
00780000
00700000
00000000
00000000
00000000
FFFFFF80
FFFFFF80
FFFFFF80
FFFFFF80
F0000000
F0000000
F0000000
F0000000
F0000000
F0000000
F0000000
F0000000
F0000000
F0000000
F0000000
F0000000
FFFFFF00
FFFFFF00
FFFFFF00
FFFFFF00
F0000000
F0000000
F0000000
F0000000
F0000000
F0000000
F0000000
F0000000
F0000000
F0000000
F0000000
F0000000
FFFFFFC0
FFFFFFC0
FFFFFFC0
FFFFFFC0
ENDCHAR
STARTCHAR 00CA
ENCODING 202
SWIDTH 660 0
DWIDTH 33 0
BBX 26 47 5 0
BITMAP
003E0000
007E0000
007F0000
00F78000
01E78000
01C3C000
0381C000
0780E000
00000000
00000000
00000000
FFFFFF80
FFFFFF80
FFFFFF80
FFFFFF80
F0000000
F0000000
F0000000
F0000000
F0000000
F0000000
F0000000
F0000000
F0000000
F0000000
F0000000
F0000000
FFFFFF00
FFFFFF00
FFFFFF00
FFFFFF00
F0000000
F0000000
F0000000
F0000000
F0000000
F0000000
F0000000
F0000000
F0000000
F0000000
F0000000
F0000000
FFFFFFC0
FFFFFFC0
FFFFFFC0
FFFFFFC0
ENDCHAR
STARTCHAR 00CB
ENCODING 203
SWIDTH 660 0
DWIDTH 33 0
BBX 26 45 5 0
BITMAP
03E3E000
03E3E000
03E3E000
03E3E000
03E3E000
00000000
00000000
00000000
00000000
FFFFFF80
FFFFFF80
FFFFFF80
FFFFFF80
F0000000
F0000000
F0000000
F0000000
F0000000
F0000000
F0000000
F0000000
F0000000
F0000000
F0000000
F0000000
FFFFFF00
FFFFFF00
FFFFFF00
FFFFFF00
F0000000
F0000000
F0000000
F0000000
F0000000
F0000000
F0000000
F0000000
F0000000
F0000000
F0000000
F0000000
FFFFFFC0
FFFFFFC0
FFFFFFC0
FFFFFFC0
ENDCHAR
STARTCHAR 00CC
ENCODING 204
SWIDTH 280 0
DWIDTH 14 0
BBX 10 47 0 0
BITMAP
FC00
7C00
3E00
1F00
0F00
0780
03C0
01C0
0000
0000
0000
07C0
07C0
07C0
07C0
07C0
07C0
07C0
07C0
07C0
07C0
07C0
07C0
07C0
07C0
07C0
07C0
07C0
07C0
07C0
07C0
07C0
07C0
07C0
07C0
07C0
07C0
07C0
07C0
07C0
07C0
07C0
07C0
07C0
07C0
07C0
07C0
ENDCHAR
STARTCHAR 00CD
ENCODING 205
SWIDTH 280 0
DWIDTH 14 0
BBX 10 47 4 0
BITMAP
0FC0
0F80
1F00
3E00
3C00
7800
F000
E000
0000
0000
0000
7C00
7C00
7C00
7C00
7C00
7C00
7C00
7C00
7C00
7C00
7C00
7C00
7C00
7C00
7C00
7C00
7C00
7C00
7C00
7C00
7C00
7C00
7C00
7C00
7C00
7C00
7C00
7C00
7C00
7C00
7C00
7C00
7C00
7C00
7C00
7C00
ENDCHAR
STARTCHAR 00CE
ENCODING 206
SWIDTH 280 0
DWIDTH 14 0
BBX 14 47 0 0
BITMAP
07C0
0FC0
1FE0
1FE0
3CF0
3878
7038
F01C
0000
0000
0000
07C0
07C0
07C0
07C0
07C0
07C0
07C0
07C0
07C0
07C0
07C0
07C0
07C0
07C0
07C0
07C0
07C0
07C0
07C0
07C0
07C0
07C0
07C0
07C0
07C0
07C0
07C0
07C0
07C0
07C0
07C0
07C0
07C0
07C0
07C0
07C0
ENDCHAR
STARTCHAR 00CF
ENCODING 207
SWIDTH 280 0
DWIDTH 14 0
BBX 14 45 0 0
BITMAP
FC7C
FC7C
FC7C
FC7C
FC7C
0000
0000
0000
0000
07C0
07C0
07C0
07C0
07C0
07C0
07C0
07C0
07C0
07C0
07C0
07C0
07C0
07C0
07C0
07C0
07C0
07C0
07C0
07C0
07C0
07C0
07C0
07C0
07C0
07C0
07C0
07C0
07C0
07C0
07C0
07C0
07C0
07C0
07C0
07C0
ENDCHAR
STARTCHAR 00D0
ENCODING 208
SWIDTH 720 0
DWIDTH 36 0
BBX 32 36 1 0
BITMAP
1FFFFC00
1FFFFF00
1FFFFFC0
1FFFFFE0
1F000FF0
1F0003F8
1F0000FC
1F00007C
1F00007E
1F00003E
1F00001E
1F00001F
1F00001F
1F00001F
1F00000F
1F00000F
FFFF800F
FFFF800F
FFFF800F
1F00000F
1F00000F
1F00000F
1F00001F
1F00001F
1F00001F
1F00001E
1F00003E
1F00003E
1F00007C
1F0000FC
1F0001F8
1F000FF0
1FFFFFE0
1FFFFFC0
1FFFFF00
1FFFFC00
ENDCHAR
STARTCHAR 00D1
ENCODING 209
SWIDTH 720 0
DWIDTH 36 0
BBX 28 45 4 0
BITMAP
007C1C00
00FFBC00
01FFF800
01C7F800
01C0F000
00000000
00000000
00000000
00000000
F80000F0
FC0000F0
FC0000F0
FE0000F0
FF0000F0
FF0000F0
FF8000F0
F7C000F0
F7C000F0
F3E000F0
F1F000F0
F1F000F0
F0F800F0
F0FC00F0
F07C00F0
F03E00F0
F03F00F0
F01F00F0
F00F80F0
F00F80F0
F007C0F0
F003E0F0
F003E0F0
F001F0F0
F000F8F0
F000F8F0
F0007CF0
F0003EF0
F0003EF0
F0001FF0
F0001FF0
F0000FF0
F00007F0
F00007F0
F00003F0
F00001F0
ENDCHAR
STARTCHAR 00D2
ENCODING 210
SWIDTH 780 0
DWIDTH 39 0
BBX 35 48 2 -1
BITMAP
001F000000
000F800000
0007800000
0003C00000
0001E00000
0000E00000
0000700000
0000380000
0000000000
0000000000
0007FC0000
003FFF8000
00FFFFE000
01FFFFF000
03FC07FC00
07E001FE00
0FC0007E00
1F80003F00
3F00001F80
3E00000F80
3E00000FC0
7C000007C0
7C000007C0
78000003E0
F8000003E0
F8000003E0
F8000003E0
F8000003E0
F8000003E0
F8000003E0
F8000003E0
F8000003E0
F8000003E0
F8000003E0
78000003E0
7C000007C0
7C000007C0
7E000007C0
3E00000F80
3F00001F80
1F80003F00
0FC0007E00
07F000FC00
07FC07FC00
01FFFFF000
00FFFFE000
003FFF8000
0007FC0000
ENDCHAR
STARTCHAR 00D3
ENCODING 211
SWIDTH 780 0
DWIDTH 39 0
BBX 35 48 2 -1
BITMAP
00001F0000
00003E0000
00007C0000
0000780000
0000F00000
0001E00000
0001C00000
0003800000
0000000000
0000000000
0007FC0000
003FFF8000
00FFFFE000
01FFFFF000
03FC07FC00
07E001FE00
0FC0007E00
1F80003F00
3F00001F80
3E00000F80
3E00000FC0
7C000007C0
7C000007C0
78000003E0
F8000003E0
F8000003E0
F8000003E0
F8000003E0
F8000003E0
F8000003E0
F8000003E0
F8000003E0
F8000003E0
F8000003E0
78000003E0
7C000007C0
7C000007C0
7E000007C0
3E00000F80
3F00001F80
1F80003F00
0FC0007E00
07F000FC00
07FC07FC00
01FFFFF000
00FFFFE000
003FFF8000
0007FC0000
ENDCHAR
STARTCHAR 00D4
ENCODING 212
SWIDTH 780 0
DWIDTH 39 0
BBX 35 48 2 -1
BITMAP
0001F00000
0003F80000
0003F80000
0007BC0000
000F1E0000
000E0E0000
001C070000
003C078000
0000000000
0000000000
0007FC0000
003FFF8000
00FFFFE000
01FFFFF000
03FC07FC00
07E001FE00
0FC0007E00
1F80003F00
3F00001F80
3E00000F80
3E00000FC0
7C000007C0
7C000007C0
78000003E0
F8000003E0
F8000003E0
F8000003E0
F8000003E0
F8000003E0
F8000003E0
F8000003E0
F8000003E0
F8000003E0
F8000003E0
78000003E0
7C000007C0
7C000007C0
7E000007C0
3E00000F80
3F00001F80
1F80003F00
0FC0007E00
07F000FC00
07FC07FC00
01FFFFF000
00FFFFE000
003FFF8000
0007FC0000
ENDCHAR
STARTCHAR 00D5
ENCODING 213
SWIDTH 780 0
DWIDTH 39 0
BBX 35 47 2 -1
BITMAP
000F018000
001FE38000
001FFF8000
003DFF0000
00383E0000
0000000000
0000000000
0000000000
0000000000
0007FC0000
003FFF8000
00FFFFE000
01FFFFF000
03FC07FC00
07E001FE00
0FC0007E00
1F80003F00
3F00001F80
3E00000F80
3E00000FC0
7C000007C0
7C000007C0
78000003E0
F8000003E0
F8000003E0
F8000003E0
F8000003E0
F8000003E0
F8000003E0
F8000003E0
F8000003E0
F8000003E0
F8000003E0
78000003E0
7C000007C0
7C000007C0
7E000007C0
3E00000F80
3F00001F80
1F80003F00
0FC0007E00
07F000FC00
07FC07FC00
01FFFFF000
00FFFFE000
003FFF8000
0007FC0000
ENDCHAR
STARTCHAR 00D6
ENCODING 214
SWIDTH 780 0
DWIDTH 39 0
BBX 35 47 2 -1
BITMAP
001F1F0000
001F1F0000
001F1F0000
001F1F0000
001F1F0000
0000000000
0000000000
0000000000
0000000000
0007FC0000
003FFF8000
00FFFFE000
01FFFFF000
03FC07FC00
07E001FE00
0FC0007E00
1F80003F00
3F00001F80
3E00000F80
3E00000FC0
7C000007C0
7C000007C0
78000003E0
F8000003E0
F8000003E0
F8000003E0
F8000003E0
F8000003E0
F8000003E0
F8000003E0
F8000003E0
F8000003E0
F8000003E0
78000003E0
7C000007C0
7C000007C0
7E000007C0
3E00000F80
3F00001F80
1F80003F00
0FC0007E00
07F000FC00
07FC07FC00
01FFFFF000
00FFFFE000
003FFF8000
0007FC0000
ENDCHAR
STARTCHAR 00D7
ENCODING 215
SWIDTH 580 0
DWIDTH 29 0
BBX 19 19 5 2
BITMAP
6000C0
F001E0
F803E0
7C07C0
3E0F80
1F1F00
0FBE00
07FC00
03F800
01F000
03F800
07FC00
0FBE00
1F1F00
3E0F80
7C07C0
F803E0
F001E0
6000C0
ENDCHAR
STARTCHAR 00D8
ENCODING 216
SWIDTH 780 0
DWIDTH 39 0
BBX 35 38 2 0
BITMAP
0007FC00E0
003FFF81E0
00FFFFE3C0
01FFFFF780
07FC07FF00
0FE001FE00
0FC0007E00
1F80003F00
3F00007F00
3E0000EF80
7C0001EF80
7C0003C7C0
78000787C0
F8000F03C0
F8001E03E0
F8003C03E0
F8007803E0
F000F003E0
F000E003E0
F001C003E0
F0038003E0
F8070003E0
F80E0003E0
F81E0003E0
F83C0003C0
7C780007C0
7CF00007C0
7DE0000F80
3FC0000F80
3F80001F00
1F80003F00
0FC0007E00
1FE001FC00
3FFC07F800
73FFFFF000
E0FFFFE000
E03FFF8000
4007FC0000
ENDCHAR
STARTCHAR 00D9
ENCODING 217
SWIDTH 720 0
DWIDTH 36 0
BBX 28 48 4 -1
BITMAP
01F80000
00F80000
007C0000
003E0000
001E0000
000F0000
00078000
00038000
00000000
00000000
00000000
F80000F0
F80000F0
F80000F0
F80000F0
F80000F0
F80000F0
F80000F0
F80000F0
F80000F0
F80000F0
F80000F0
F80000F0
F80000F0
F80000F0
F80000F0
F80000F0
F80000F0
F80000F0
F80000F0
F80000F0
F80000F0
F80000F0
F80000F0
F80000F0
F80000F0
F80000F0
F80000F0
F80001F0
7C0001F0
7C0003E0
7E0003E0
3F000FC0
1FE03FC0
0FFFFF80
07FFFE00
01FFFC00
003FE000
ENDCHAR
STARTCHAR 00DA
ENCODING 218
SWIDTH 720 0
DWIDTH 36 0
BBX 28 48 4 -1
BITMAP
0001F800
0001F000
0003E000
0007C000
00078000
000F0000
001E0000
001C0000
00000000
00000000
00000000
F80000F0
F80000F0
F80000F0
F80000F0
F80000F0
F80000F0
F80000F0
F80000F0
F80000F0
F80000F0
F80000F0
F80000F0
F80000F0
F80000F0
F80000F0
F80000F0
F80000F0
F80000F0
F80000F0
F80000F0
F80000F0
F80000F0
F80000F0
F80000F0
F80000F0
F80000F0
F80000F0
F80001F0
7C0001F0
7C0003E0
7E0003E0
3F000FC0
1FE03FC0
0FFFFF80
07FFFE00
01FFFC00
003FE000
ENDCHAR
STARTCHAR 00DB
ENCODING 219
SWIDTH 720 0
DWIDTH 36 0
BBX 28 48 4 -1
BITMAP
000F8000
001F8000
001FC000
003DE000
0079E000
0070F000
00E07800
01E03800
00000000
00000000
00000000
F80000F0
F80000F0
F80000F0
F80000F0
F80000F0
F80000F0
F80000F0
F80000F0
F80000F0
F80000F0
F80000F0
F80000F0
F80000F0
F80000F0
F80000F0
F80000F0
F80000F0
F80000F0
F80000F0
F80000F0
F80000F0
F80000F0
F80000F0
F80000F0
F80000F0
F80000F0
F80000F0
F80001F0
7C0001F0
7C0003E0
7E0003E0
3F000FC0
1FE03FC0
0FFFFF80
07FFFE00
01FFFC00
003FE000
ENDCHAR
STARTCHAR 00DC
ENCODING 220
SWIDTH 720 0
DWIDTH 36 0
BBX 28 46 4 -1
BITMAP
00F8F800
00F8F800
00F8F800
00F8F800
00F8F800
00000000
00000000
00000000
00000000
F80000F0
F80000F0
F80000F0
F80000F0
F80000F0
F80000F0
F80000F0
F80000F0
F80000F0
F80000F0
F80000F0
F80000F0
F80000F0
F80000F0
F80000F0
F80000F0
F80000F0
F80000F0
F80000F0
F80000F0
F80000F0
F80000F0
F80000F0
F80000F0
F80000F0
F80000F0
F80000F0
F80001F0
7C0001F0
7C0003E0
7E0003E0
3F000FC0
1FE03FC0
0FFFFF80
07FFFE00
01FFFC00
003FE000
ENDCHAR
STARTCHAR 00DD
ENCODING 221
SWIDTH 660 0
DWIDTH 33 0
BBX 32 47 1 0
BITMAP
00007E00
00007C00
0000F800
0001F000
0001E000
0003C000
00078000
00070000
00000000
00000000
00000000
FC00003F
7C00003E
7E00007C
3F0000FC
3F0000F8
1F8001F8
0F8001F0
0FC003E0
07E007E0
03E007C0
03F00F80
01F00F80
00F81F00
00FC3F00
007C3E00
003E7C00
003E7C00
001FF800
001FF000
000FF000
0007E000
0007E000
0003C000
0003C000
0003C000
0003C000
0003C000
0003C000
0003C000
0003C000
0003C000
0003C000
0003C000
0003C000
0003C000
0003C000
ENDCHAR
STARTCHAR 00DE
ENCODING 222
SWIDTH 660 0
DWIDTH 33 0
BBX 26 36 5 0
BITMAP
F0000000
F0000000
F0000000
F0000000
F0000000
F0000000
FFFFE000
FFFFF800
FFFFFE00
FFFFFF00
F0007F00
F0001F80
F0000F80
F0000FC0
F00007C0
F00007C0
F00007C0
F00007C0
F00007C0
F0000F80
F0000F80
F0001F80
F0007F00
FFFFFE00
FFFFFE00
FFFFF800
FFFFE000
F0000000
F0000000
F0000000
F0000000
F0000000
F0000000
F0000000
F0000000
F0000000
ENDCHAR
STARTCHAR 00DF
ENCODING 223
SWIDTH 620 0
DWIDTH 31 0
BBX 24 37 4 -1
BITMAP
01FE00
0FFFC0
1FFFE0
3FFFF0
7E03F8
F800F8
F8007C
F0007C
F0003C
F0003C
F0003C
F0007C
F000F8
F001F0
F00FE0
F03FC0
F03F80
F03FE0
F03FF8
F000FC
F0007E
F0003E
F0001E
F0001F
F0001F
F0001F
F0001F
F0001F
F0001E
F0003E
F0007E
F000FC
F003FC
F07FF8
F07FF0
F07FC0
007E00
ENDCHAR
STARTCHAR 00E0
ENCODING 224
SWIDTH 560 0
DWIDTH 28 0
BBX 25 38 2 -1
BITMAP
07E00000
03E00000
01F00000
00F80000
00780000
003C0000
001E0000
00000000
00000000
00000000
00FF0000
07FFE000
0FFFF000
1FFFF800
3F01F800
3E007800
7C007C00
7C007C00
00007C00
00007C00
00007C00
0003FC00
00FFFC00
0FFFFC00
1FFF7C00
3FC07C00
7E007C00
78007C00
F8007C00
F0007C00
F0007C00
F800FC00
F801FC00
7C03FC00
7FFFBF80
3FFF3F80
1FFC3F80
07F01F80
ENDCHAR
STARTCHAR 00E1
ENCODING 225
SWIDTH 560 0
DWIDTH 28 0
BBX 25 38 2 -1
BITMAP
0007C000
000F8000
000F0000
001E0000
003C0000
00380000
00700000
00000000
00000000
00000000
00FF0000
07FFE000
0FFFF000
1FFFF800
3F01F800
3E007800
7C007C00
7C007C00
00007C00
00007C00
00007C00
0003FC00
00FFFC00
0FFFFC00
1FFF7C00
3FC07C00
7E007C00
78007C00
F8007C00
F0007C00
F0007C00
F800FC00
F801FC00
7C03FC00
7FFFBF80
3FFF3F80
1FFC3F80
07F01F80
ENDCHAR
STARTCHAR 00E2
ENCODING 226
SWIDTH 560 0
DWIDTH 28 0
BBX 25 38 2 -1
BITMAP
007C0000
00FE0000
00FF0000
01EF0000
03C78000
0383C000
0781C000
00000000
00000000
00000000
00FF0000
07FFE000
0FFFF000
1FFFF800
3F01F800
3E007800
7C007C00
7C007C00
00007C00
00007C00
00007C00
0003FC00
00FFFC00
0FFFFC00
1FFF7C00
3FC07C00
7E007C00
78007C00
F8007C00
F0007C00
F0007C00
F800FC00
F801FC00
7C03FC00
7FFFBF80
3FFF3F80
1FFC3F80
07F01F80
ENDCHAR
STARTCHAR 00E3
ENCODING 227
SWIDTH 560 0
DWIDTH 28 0
BBX 25 37 2 -1
BITMAP
03C07000
07F8E000
07FFE000
0F7FC000
0E0FC000
00000000
00000000
00000000
00000000
00FF0000
07FFE000
0FFFF000
1FFFF800
3F01F800
3E007800
7C007C00
7C007C00
00007C00
00007C00
00007C00
0003FC00
00FFFC00
0FFFFC00
1FFF7C00
3FC07C00
7E007C00
78007C00
F8007C00
F0007C00
F0007C00
F800FC00
F801FC00
7C03FC00
7FFFBF80
3FFF3F80
1FFC3F80
07F01F80
ENDCHAR
STARTCHAR 00E4
ENCODING 228
SWIDTH 560 0
DWIDTH 28 0
BBX 25 37 2 -1
BITMAP
07C7C000
07C7C000
07C7C000
07C7C000
07C7C000
00000000
00000000
00000000
00000000
00FF0000
07FFE000
0FFFF000
1FFFF800
3F01F800
3E007800
7C007C00
7C007C00
00007C00
00007C00
00007C00
0003FC00
00FFFC00
0FFFFC00
1FFF7C00
3FC07C00
7E007C00
78007C00
F8007C00
F0007C00
F0007C00
F800FC00
F801FC00
7C03FC00
7FFFBF80
3FFF3F80
1FFC3F80
07F01F80
ENDCHAR
STARTCHAR 00E5
ENCODING 229
SWIDTH 560 0
DWIDTH 28 0
BBX 25 39 2 -1
BITMAP
003C0000
007E0000
00E70000
01C30000
01C30000
01C30000
00E70000
00FE0000
003C0000
00000000
00000000
00FF0000
07FFE000
0FFFF000
1FFFF800
3F01F800
3E007800
7C007C00
7C007C00
00007C00
00007C00
00007C00
0003FC00
00FFFC00
0FFFFC00
1FFF7C00
3FC07C00
7E007C00
78007C00
F8007C00
F0007C00
F0007C00
F800FC00
F801FC00
7C03FC00
7FFFBF80
3FFF3F80
1FFC3F80
07F01F80
ENDCHAR
STARTCHAR 00E6
ENCODING 230
SWIDTH 880 0
DWIDTH 44 0
BBX 40 28 2 -1
BITMAP
01FE007F00
07FFC1FFE0
1FFFE3FFF0
3FFFF7FFF8
3F01FFC0FC
7C00FF007E
7C007E003E
78007C001E
78007C001F
00007C001F
000078000F
0001F8000F
00FFFFFFFF
0FFFFFFFFF
1FFF7FFFFF
7FE0780000
7E00780000
F800780000
F000780000
F0007C001F
F0007C001E
F000FE003E
F801FF007C
FC07DFC0FC
7FFF8FFFF8
3FFF07FFF0
1FFC01FFE0
07E0007F00
ENDCHAR
STARTCHAR 00E7
ENCODING 231
SWIDTH 500 0
DWIDTH 25 0
BBX 22 38 2 -11
BITMAP
00FE00
03FF80
0FFFE0
1FFFF0
3F03F0
3E00F8
7C00F8
780078
F80078
F00000
F00000
F00000
F00000
F00000
F00000
F00000
F00000
F00000
F0003C
F8007C
780078
7C00F8
3E01F8
3F83F0
1FFFE0
0FFFC0
03FF80
00FC00
006000
00F800
00FE00
009F00
000F00
000F00
080F00
0E1E00
0FFC00
03F800
ENDCHAR
STARTCHAR 00E8
ENCODING 232
SWIDTH 560 0
DWIDTH 28 0
BBX 24 38 2 -1
BITMAP
07E000
03F000
01F000
00F800
007C00
003C00
001E00
000000
000000
000000
007F00
03FFC0
07FFE0
0FFFF8
1F81F8
3E00FC
3C007C
7C003E
78001E
78001E
F8001E
F8001F
FFFFFF
FFFFFF
FFFFFF
F00000
F00000
F80000
F80000
78001E
7C003E
7C003C
3E007C
1F81F8
1FFFF8
0FFFE0
03FFC0
00FE00
ENDCHAR
STARTCHAR 00E9
ENCODING 233
SWIDTH 560 0
DWIDTH 28 0
BBX 24 38 2 -1
BITMAP
0007E0
000FC0
000F80
001F00
003E00
003800
007000
000000
000000
000000
007F00
03FFC0
07FFE0
0FFFF8
1F81F8
3E00FC
3C007C
7C003E
78001E
78001E
F8001E
F8001F
FFFFFF
FFFFFF
FFFFFF
F00000
F00000
F80000
F80000
78001E
7C003E
7C003C
3E007C
1F81F8
1FFFF8
0FFFE0
03FFC0
00FE00
ENDCHAR
STARTCHAR 00EA
ENCODING 234
SWIDTH 560 0
DWIDTH 28 0
BBX 24 38 2 -1
BITMAP
003E00
007F00
00FF00
00F780
01E3C0
03C1C0
0380E0
000000
000000
000000
007F00
03FFC0
07FFE0
0FFFF8
1F81F8
3E00FC
3C007C
7C003E
78001E
78001E
F8001E
F8001F
FFFFFF
FFFFFF
FFFFFF
F00000
F00000
F80000
F80000
78001E
7C003E
7C003C
3E007C
1F81F8
1FFFF8
0FFFE0
03FFC0
00FE00
ENDCHAR
STARTCHAR 00EB
ENCODING 235
SWIDTH 560 0
DWIDTH 28 0
BBX 24 37 2 -1
BITMAP
03E3E0
03E3E0
03E3E0
03E3E0
03E3E0
000000
000000
000000
000000
007F00
03FFC0
07FFE0
0FFFF8
1F81F8
3E00FC
3C007C
7C003E
78001E
78001E
F8001E
F8001F
FFFFFF
FFFFFF
FFFFFF
F00000
F00000
F80000
F80000
78001E
7C003E
7C003C
3E007C
1F81F8
1FFFF8
0FFFE0
03FFC0
00FE00
ENDCHAR
STARTCHAR 00EC
ENCODING 236
SWIDTH 280 0
DWIDTH 14 0
BBX 10 37 0 0
BITMAP
FC00
7C00
3E00
1F00
0F00
0780
03C0
01C0
0000
0000
0000
0780
0780
0780
0780
0780
0780
0780
0780
0780
0780
0780
0780
0780
0780
0780
0780
0780
0780
0780
0780
0780
0780
0780
0780
0780
0780
ENDCHAR
STARTCHAR 00ED
ENCODING 237
SWIDTH 280 0
DWIDTH 14 0
BBX 10 37 3 0
BITMAP
07C0
0F80
1F00
1E00
3C00
3800
7000
E000
0000
0000
0000
3C00
3C00
3C00
3C00
3C00
3C00
3C00
3C00
3C00
3C00
3C00
3C00
3C00
3C00
3C00
3C00
3C00
3C00
3C00
3C00
3C00
3C00
3C00
3C00
3C00
3C00
ENDCHAR
STARTCHAR 00EE
ENCODING 238
SWIDTH 280 0
DWIDTH 14 0
BBX 14 37 0 0
BITMAP
0FC0
1FC0
1FE0
3DE0
38F0
7878
F038
E01C
0000
0000
0000
0780
0780
0780
0780
0780
0780
0780
0780
0780
0780
0780
0780
0780
0780
0780
0780
0780
0780
0780
0780
0780
0780
0780
0780
0780
0780
ENDCHAR
STARTCHAR 00EF
ENCODING 239
SWIDTH 280 0
DWIDTH 14 0
BBX 13 35 0 0
BITMAP
F8F8
F8F8
F8F8
F8F8
F8F8
0000
0000
0000
0000
0780
0780
0780
0780
0780
0780
0780
0780
0780
0780
0780
0780
0780
0780
0780
0780
0780
0780
0780
0780
0780
0780
0780
0780
0780
0780
ENDCHAR
STARTCHAR 00F0
ENCODING 240
SWIDTH 560 0
DWIDTH 28 0
BBX 24 38 2 -1
BITMAP
0C0000
1F0300
1F8F80
07FE00
03F800
07FC00
1FFE00
1C3F00
000F80
0007C0
00FBE0
07FFF0
0FFFF0
1FFFF8
3F01F8
3E00FC
7C007C
7C003E
F8003E
F8001E
F0001E
F0001E
F0001F
F0001F
F0001F
F0001E
F0001E
F8001E
F8001E
F8003E
7C003E
7C007C
3E00FC
3F81F8
1FFFF0
0FFFE0
07FFC0
00FE00
ENDCHAR
STARTCHAR 00F1
ENCODING 241
SWIDTH 560 0
DWIDTH 28 0
BBX 20 36 4 0
BITMAP
0781C0
0FE3C0
1FFF80
1DFF80
383F00
000000
000000
000000
000000
007E00
E1FFC0
E3FFE0
E7FFE0
EE03F0
FC01F0
F800F0
F800F0
F000F0
F000F0
F000F0
F000F0
F000F0
F000F0
F000F0
F000F0
F000F0
F000F0
F000F0
F000F0
F000F0
F000F0
F000F0
F000F0
F000F0
F000F0
F000F0
ENDCHAR
STARTCHAR 00F2
ENCODING 242
SWIDTH 560 0
DWIDTH 28 0
BBX 24 38 2 -1
BITMAP
07E000
03E000
01F000
00F800
007800
003C00
001C00
000200
000000
000000
00FE00
03FFC0
0FFFE0
1FFFF0
3F81F8
3E00FC
7C007C
7C003E
78003E
F8001E
F8001E
F0001E
F0001E
F0001F
F0001F
F0001E
F0001E
F8001E
F8001E
78003E
7C003E
7C007C
3E00FC
3F81F8
1FFFF0
0FFFE0
03FFC0
00FE00
ENDCHAR
STARTCHAR 00F3
ENCODING 243
SWIDTH 560 0
DWIDTH 28 0
BBX 24 38 2 -1
BITMAP
0007C0
000F80
001F00
001E00
003C00
007800
007000
000000
000000
000000
00FE00
03FFC0
0FFFE0
1FFFF0
3F81F8
3E00FC
7C007C
7C003E
78003E
F8001E
F8001E
F0001E
F0001E
F0001F
F0001F
F0001E
F0001E
F8001E
F8001E
78003E
7C003E
7C007C
3E00FC
3F81F8
1FFFF0
0FFFE0
03FFC0
00FE00
ENDCHAR
STARTCHAR 00F4
ENCODING 244
SWIDTH 560 0
DWIDTH 28 0
BBX 24 38 2 -1
BITMAP
007C00
00FE00
00FF00
01EF00
03C780
0383C0
0701C0
000000
000000
000000
00FE00
03FFC0
0FFFE0
1FFFF0
3F81F8
3E00FC
7C007C
7C003E
78003E
F8001E
F8001E
F0001E
F0001E
F0001F
F0001F
F0001E
F0001E
F8001E
F8001E
78003E
7C003E
7C007C
3E00FC
3F81F8
1FFFF0
0FFFE0
03FFC0
00FE00
ENDCHAR
STARTCHAR 00F5
ENCODING 245
SWIDTH 560 0
DWIDTH 28 0
BBX 24 37 2 -1
BITMAP
01C070
07F8E0
07FFE0
0F7FC0
0E0FC0
000000
000000
000000
000000
00FE00
03FFC0
0FFFE0
1FFFF0
3F81F8
3E00FC
7C007C
7C003E
78003E
F8001E
F8001E
F0001E
F0001E
F0001F
F0001F
F0001E
F0001E
F8001E
F8001E
78003E
7C003E
7C007C
3E00FC
3F81F8
1FFFF0
0FFFE0
03FFC0
00FE00
ENDCHAR
STARTCHAR 00F6
ENCODING 246
SWIDTH 560 0
DWIDTH 28 0
BBX 24 37 2 -1
BITMAP
07C7C0
07C7C0
07C7C0
07C7C0
07C7C0
000000
000000
000000
000000
00FE00
03FFC0
0FFFE0
1FFFF0
3F81F8
3E00FC
7C007C
7C003E
78003E
F8001E
F8001E
F0001E
F0001E
F0001F
F0001F
F0001E
F0001E
F8001E
F8001E
78003E
7C003E
7C007C
3E00FC
3F81F8
1FFFF0
0FFFE0
03FFC0
00FE00
ENDCHAR
STARTCHAR 00F7
ENCODING 247
SWIDTH 580 0
DWIDTH 29 0
BBX 24 24 3 0
BITMAP
007C00
007C00
007C00
007C00
007C00
000000
000000
000000
000000
000000
FFFFFF
FFFFFF
FFFFFF
FFFFFF
000000
000000
000000
000000
000000
007C00
007C00
007C00
007C00
007C00
ENDCHAR
STARTCHAR 00F8
ENCODING 248
SWIDTH 620 0
DWIDTH 31 0
BBX 25 28 1 -1
BITMAP
007F0100
01FFE180
07FFF300
0FFFFF00
1FC0FE00
1F007E00
3E003E00
3E007F00
3C00FF00
7C01CF00
7C018F00
78030F00
78070F00
780E0F80
781C0F80
78380F00
78700F00
7CE00F00
7DC00F00
7F801F00
3F001F00
3F003E00
1F007E00
1FC0FC00
3FFFF800
77FFF000
E1FFE000
407F0000
ENDCHAR
STARTCHAR 00F9
ENCODING 249
SWIDTH 560 0
DWIDTH 28 0
BBX 21 38 3 -1
BITMAP
0F8000
07C000
03E000
01E000
00F000
007800
003800
000000
000000
000000
000000
F00078
F00078
F00078
F00078
F00078
F00078
F00078
F00078
F00078
F00078
F00078
F00078
F00078
F00078
F00078
F00078
F00078
F00078
F000F8
F800F8
F801F8
F801F8
7E07F8
7FFF78
3FFF78
1FFC78
07F000
ENDCHAR
STARTCHAR 00FA
ENCODING 250
SWIDTH 560 0
DWIDTH 28 0
BBX 21 38 3 -1
BITMAP
001F80
001F00
003E00
003C00
007800
00F000
00E000
010000
000000
000000
000000
F00078
F00078
F00078
F00078
F00078
F00078
F00078
F00078
F00078
F00078
F00078
F00078
F00078
F00078
F00078
F00078
F00078
F00078
F000F8
F800F8
F801F8
F801F8
7E07F8
7FFF78
3FFF78
1FFC78
07F000
ENDCHAR
STARTCHAR 00FB
ENCODING 251
SWIDTH 560 0
DWIDTH 28 0
BBX 21 38 3 -1
BITMAP
00F800
01FC00
01FE00
03DE00
078F00
070780
0F0380
0E01C0
000000
000000
000000
F00078
F00078
F00078
F00078
F00078
F00078
F00078
F00078
F00078
F00078
F00078
F00078
F00078
F00078
F00078
F00078
F00078
F00078
F000F8
F800F8
F801F8
F801F8
7E07F8
7FFF78
3FFF78
1FFC78
07F000
ENDCHAR
STARTCHAR 00FC
ENCODING 252
SWIDTH 560 0
DWIDTH 28 0
BBX 21 37 3 -1
BITMAP
0F8F80
0F8F80
0F8F80
0F8F80
0F8F80
000000
000000
000000
000000
000000
F00078
F00078
F00078
F00078
F00078
F00078
F00078
F00078
F00078
F00078
F00078
F00078
F00078
F00078
F00078
F00078
F00078
F00078
F000F8
F800F8
F801F8
F801F8
7E07F8
7FFF78
3FFF78
1FFC78
07F000
ENDCHAR
STARTCHAR 00FD
ENCODING 253
SWIDTH 500 0
DWIDTH 25 0
BBX 23 48 1 -11
BITMAP
000FC0
000F80
001F00
003E00
003C00
007800
00F000
00E000
000000
000000
000000
F8003E
F8003C
78003C
7C007C
3C0078
3C00F8
3E00F8
1E00F0
1E01F0
1F01E0
0F01E0
0F03E0
0F83C0
0783C0
0787C0
07C780
03C780
03CF00
03EF00
01FF00
01FE00
01FE00
00FE00
00FC00
00FC00
007C00
007800
00F800
00F000
00F000
01F000
01E000
03E000
3FC000
3FC000
3F8000
3E0000
ENDCHAR
STARTCHAR 00FE
ENCODING 254
SWIDTH 560 0
DWIDTH 28 0
BBX 23 47 3 -11
BITMAP
F00000
F00000
F00000
F00000
F00000
F00000
F00000
F00000
F00000
F07E00
F1FF80
F7FFE0
FFFFF0
FF03F8
FE00F8
FC007C
F8007C
F8003C
F0003E
F0003E
F0001E
F0001E
F0001E
F0001E
F0001E
F0001E
F0003E
F8003E
F8003C
F8007C
FC007C
FE00F8
FF03F8
FFFFF0
F7FFE0
F3FF80
F0FE00
F00000
F00000
F00000
F00000
F00000
F00000
F00000
F00000
F00000
F00000
ENDCHAR
STARTCHAR 00FF
ENCODING 255
SWIDTH 500 0
DWIDTH 25 0
BBX 23 47 1 -11
BITMAP
07C7C0
07C7C0
07C7C0
07C7C0
07C7C0
000000
000000
000000
000000
000000
F8003E
F8003C
78003C
7C007C
3C0078
3C00F8
3E00F8
1E00F0
1E01F0
1F01E0
0F01E0
0F03E0
0F83C0
0783C0
0787C0
07C780
03C780
03CF00
03EF00
01FF00
01FE00
01FE00
00FE00
00FC00
00FC00
007C00
007800
00F800
00F000
00F000
01F000
01E000
03E000
3FC000
3FC000
3F8000
3E0000
ENDCHAR
STARTCHAR 0100
ENCODING 256
SWIDTH 660 0
DWIDTH 33 0
BBX 31 45 1 0
BITMAP
007FFE00
007FFE00
007FFE00
007FFE00
00000000
00000000
00000000
00000000
00000000
0007E000
000FE000
000FF000
000FF000
001FF000
001FF800
003EF800
003E7C00
003C7C00
007C7C00
007C3E00
00783E00
00F83E00
00F81F00
00F01F00
01F01F00
01E00F80
01E00F80
03E00F80
03C007C0
07C007C0
07FFFFE0
07FFFFE0
0FFFFFE0
0FFFFFF0
0F0001F0
1F0001F0
1F0000F8
1E0000F8
3E0000F8
3E00007C
7C00007C
7C00007C
7C00003E
F800003E
F800003E
ENDCHAR
STARTCHAR 0101
ENCODING 257
SWIDTH 560 0
DWIDTH 28 0
BBX 25 36 2 -1
BITMAP
07FFE000
07FFE000
07FFE000
07FFE000
00000000
00000000
00000000
00000000
00FF0000
07FFE000
0FFFF000
1FFFF800
3F01F800
3E007800
7C007C00
7C007C00
00007C00
00007C00
00007C00
0003FC00
00FFFC00
0FFFFC00
1FFF7C00
3FC07C00
7E007C00
78007C00
F8007C00
F0007C00
F0007C00
F800FC00
F801FC00
7C03FC00
7FFFBF80
3FFF3F80
1FFC3F80
07F01F80
ENDCHAR
STARTCHAR 0102
ENCODING 258
SWIDTH 660 0
DWIDTH 33 0
BBX 31 46 1 0
BITMAP
00E00E00
00F00E00
00783E00
007FFC00
003FF800
001FF000
00000000
00000000
00000000
00000000
0007E000
000FE000
000FF000
000FF000
001FF000
001FF800
003EF800
003E7C00
003C7C00
007C7C00
007C3E00
00783E00
00F83E00
00F81F00
00F01F00
01F01F00
01E00F80
01E00F80
03E00F80
03C007C0
07C007C0
07FFFFE0
07FFFFE0
0FFFFFE0
0FFFFFF0
0F0001F0
1F0001F0
1F0000F8
1E0000F8
3E0000F8
3E00007C
7C00007C
7C00007C
7C00003E
F800003E
F800003E
ENDCHAR
STARTCHAR 0103
ENCODING 259
SWIDTH 560 0
DWIDTH 28 0
BBX 25 38 2 -1
BITMAP
0E00E000
0F00E000
0701E000
07EFC000
03FFC000
01FF8000
00FE0000
00000000
00000000
00000000
00FF0000
07FFE000
0FFFF000
1FFFF800
3F01F800
3E007800
7C007C00
7C007C00
00007C00
00007C00
00007C00
0003FC00
00FFFC00
0FFFFC00
1FFF7C00
3FC07C00
7E007C00
78007C00
F8007C00
F0007C00
F0007C00
F800FC00
F801FC00
7C03FC00
7FFFBF80
3FFF3F80
1FFC3F80
07F01F80
ENDCHAR
STARTCHAR 0104
ENCODING 260
SWIDTH 660 0
DWIDTH 33 0
BBX 34 46 1 -10
BITMAP
0007E00000
000FE00000
000FF00000
000FF00000
001FF00000
001FF80000
003EF80000
003E7C0000
003C7C0000
007C7C0000
007C3E0000
00783E0000
00F83E0000
00F81F0000
00F01F0000
01F01F0000
01E00F8000
01E00F8000
03E00F8000
03C007C000
07C007C000
07FFFFE000
07FFFFE000
0FFFFFE000
0FFFFFF000
0F0001F000
1F0001F000
1F0000F800
1E0000F800
3E0000F800
3E00007C00
7C00007C00
7C00007C00
7C00003E00
F800003E00
F800003E00
0000001E00
0000003800
000000F000
000000E000
000001E000
000001E000
000001E000
000000F000
000000FFC0
0000003FC0
ENDCHAR
STARTCHAR 0105
ENCODING 261
SWIDTH 560 0
DWIDTH 28 0
BBX 28 37 2 -10
BITMAP
00FF0000
07FFE000
0FFFF000
1FFFF800
3F01F800
3E007C00
3C007C00
7C007C00
00007C00
00007C00
00007C00
0003FC00
00FFFC00
0FFFFC00
1FFF7C00
3FC07C00
7E007C00
78007C00
F8007C00
F0007C00
F0007C00
F800FC00
F801FC00
7C03FC00
7FFFBF80
3FFF3F80
1FFE3F80
07F01F80
00000E00
00001C00
00003800
00003800
00007800
00003800
00003E30
00001FF0
000007F0
ENDCHAR
STARTCHAR 0106
ENCODING 262
SWIDTH 720 0
DWIDTH 36 0
BBX 32 48 2 -1
BITMAP
00003F00
00007E00
00007C00
0000F800
0001F000
0001E000
0003C000
00078000
00000000
00000000
0007FC00
003FFF00
00FFFFC0
01FFFFE0
03F80FF0
07E003F8
0FC000F8
1F80007C
1F00007C
3E00003E
3E00003E
3C00003E
7C000000
7C000000
78000000
78000000
78000000
F8000000
F8000000
F8000000
F8000000
F8000000
78000000
7C000000
7C00001F
7C00001F
7C00003E
3E00003E
3E00003E
1F00007C
1F80007C
0FC000FC
07E003F8
07FC0FF0
03FFFFE0
00FFFFC0
007FFF00
000FF800
ENDCHAR
STARTCHAR 0107
ENCODING 263
SWIDTH 500 0
DWIDTH 25 0
BBX 22 38 2 -1
BITMAP
0007C0
000F80
001F00
001E00
003C00
007800
007000
000000
000000
000000
00FE00
03FF80
0FFFE0
1FFFF0
3F03F0
3E00F8
7C00F8
780078
F80078
F8007C
F00000
F00000
F00000
F00000
F00000
F00000
F00000
F00000
F0003C
F8007C
780078
7C00F8
7E00F8
3F03F0
1FFFE0
0FFFC0
07FF80
00FE00
ENDCHAR
STARTCHAR 0108
ENCODING 264
SWIDTH 720 0
DWIDTH 36 0
BBX 32 48 2 -1
BITMAP
0003E000
0007F000
0007F800
000F7800
001E3C00
001C1E00
003C0E00
00380700
00000000
00000000
0007FC00
003FFF00
00FFFFC0
01FFFFE0
03F80FF0
07E003F8
0FC000F8
1F80007C
1F00007C
3E00003E
3E00003E
3C00003E
7C000000
7C000000
78000000
78000000
78000000
F8000000
F8000000
F8000000
F8000000
F8000000
78000000
7C000000
7C00001F
7C00001F
7C00003E
3E00003E
3E00003E
1F00007C
1F80007C
0FC000FC
07E003F8
07FC0FF0
03FFFFE0
00FFFFC0
007FFF00
000FF800
ENDCHAR
STARTCHAR 0109
ENCODING 265
SWIDTH 500 0
DWIDTH 25 0
BBX 22 38 2 -1
BITMAP
007C00
00FE00
01FE00
01EF00
03C780
078380
0701C0
000000
000000
000000
00FE00
03FF80
0FFFE0
1FFFF0
3F03F0
3E00F8
7C00F8
780078
F80078
F8007C
F00000
F00000
F00000
F00000
F00000
F00000
F00000
F00000
F0003C
F8007C
780078
7C00F8
7E00F8
3F03F0
1FFFE0
0FFFC0
07FF80
00FE00
ENDCHAR
STARTCHAR 010A
ENCODING 266
SWIDTH 720 0
DWIDTH 36 0
BBX 32 47 2 -1
BITMAP
0003F000
0003F000
0003F000
0003F000
0003F000
00000000
00000000
00000000
00000000
0007FC00
003FFF00
00FFFFC0
01FFFFE0
03F80FF0
07E003F8
0FC000F8
1F80007C
1F00007C
3E00003E
3E00003E
3C00003E
7C000000
7C000000
78000000
78000000
78000000
F8000000
F8000000
F8000000
F8000000
F8000000
78000000
7C000000
7C00001F
7C00001F
7C00003E
3E00003E
3E00003E
1F00007C
1F80007C
0FC000FC
07E003F8
07FC0FF0
03FFFFE0
00FFFFC0
007FFF00
000FF800
ENDCHAR
STARTCHAR 010B
ENCODING 267
SWIDTH 500 0
DWIDTH 25 0
BBX 22 37 2 -1
BITMAP
007C00
007C00
007C00
007C00
007C00
000000
000000
000000
000000
00FE00
03FF80
0FFFE0
1FFFF0
3F03F0
3E00F8
7C00F8
780078
F80078
F8007C
F00000
F00000
F00000
F00000
F00000
F00000
F00000
F00000
F0003C
F8007C
780078
7C00F8
7E00F8
3F03F0
1FFFE0
0FFFC0
07FF80
00FE00
ENDCHAR
STARTCHAR 010C
ENCODING 268
SWIDTH 720 0
DWIDTH 36 0
BBX 32 48 2 -1
BITMAP
00380700
001C0E00
001E1E00
000F3C00
0007F800
0007F800
0003F000
0001E000
00000000
00000000
0007FC00
003FFF00
00FFFFC0
01FFFFE0
03F80FF0
07E003F8
0FC000F8
1F80007C
1F00007C
3E00003E
3E00003E
3C00003E
7C000000
7C000000
78000000
78000000
78000000
F8000000
F8000000
F8000000
F8000000
F8000000
78000000
7C000000
7C00001F
7C00001F
7C00003E
3E00003E
3E00003E
1F00007C
1F80007C
0FC000FC
07E003F8
07FC0FF0
03FFFFE0
00FFFFC0
007FFF00
000FF800
ENDCHAR
STARTCHAR 010D
ENCODING 269
SWIDTH 500 0
DWIDTH 25 0
BBX 22 38 2 -1
BITMAP
0F01C0
078380
038780
03CF00
01EF00
00FE00
00FC00
000000
000000
000000
00FE00
03FF80
0FFFE0
1FFFF0
3F03F0
3E00F8
7C00F8
780078
F80078
F8007C
F00000
F00000
F00000
F00000
F00000
F00000
F00000
F00000
F0003C
F8007C
780078
7C00F8
7E00F8
3F03F0
1FFFE0
0FFFC0
07FF80
00FE00
ENDCHAR
STARTCHAR 010E
ENCODING 270
SWIDTH 720 0
DWIDTH 36 0
BBX 29 47 4 0
BITMAP
03807000
03C0E000
01E1E000
00E3C000
00F3C000
007F8000
003F0000
003F0000
00000000
00000000
00000000
FFFFE000
FFFFF800
FFFFFE00
FFFFFF00
F8007F80
F8001FC0
F80007E0
F80003E0
F80003F0
F80001F0
F80000F0
F80000F8
F80000F8
F80000F8
F80000F8
F8000078
F8000078
F8000078
F8000078
F8000078
F8000078
F8000078
F80000F8
F80000F8
F80000F8
F80000F0
F80001F0
F80001F0
F80003E0
F80007E0
F8000FC0
F8007F80
FFFFFF00
FFFFFE00
FFFFF800
FFFFC000
ENDCHAR
STARTCHAR 010F
ENCODING 271
SWIDTH 640 0
DWIDTH 32 0
BBX 31 37 1 -1
BITMAP
00000F3E
00000F3E
00000F3E
00000F3E
00000F3E
00000F06
00000F06
00000F06
00000F0E
00FE0F3C
03FF8F30
07FFCF00
0FFFEF00
1F81FF00
3F007F00
3E007F00
7C003F00
7C001F00
78001F00
78001F00
F8001F00
F8000F00
F8000F00
F8000F00
F8000F00
F8001F00
78001F00
78001F00
7C001F00
7C003F00
3E003F00
3F007F00
1FC1FF00
0FFFEF00
07FFCF00
03FF8F00
00FE0000
ENDCHAR
STARTCHAR 0110
ENCODING 272
SWIDTH 720 0
DWIDTH 36 0
BBX 32 36 1 0
BITMAP
1FFFFC00
1FFFFF00
1FFFFFC0
1FFFFFE0
1F000FF0
1F0003F8
1F0000FC
1F00007C
1F00007E
1F00003E
1F00001E
1F00001F
1F00001F
1F00001F
1F00000F
1F00000F
FFFF800F
FFFF800F
FFFF800F
1F00000F
1F00000F
1F00000F
1F00001F
1F00001F
1F00001F
1F00001E
1F00003E
1F00003E
1F00007C
1F0000FC
1F0001F8
1F000FF0
1FFFFFE0
1FFFFFC0
1FFFFF00
1FFFFC00
ENDCHAR
STARTCHAR 0111
ENCODING 273
SWIDTH 560 0
DWIDTH 28 0
BBX 27 37 1 -1
BITMAP
00000F00
00000F00
00000F00
000FFFE0
000FFFE0
000FFFE0
00000F00
00000F00
00000F00
00FE0F00
03FF8F00
07FFCF00
0FFFEF00
1FC3FF00
3F00FF00
3E007F00
7C003F00
7C001F00
78001F00
78001F00
F8001F00
F8001F00
F8000F00
F8000F00
F8000F00
F8001F00
78001F00
78001F00
7C001F00
7C003F00
3E007F00
3F00FF00
1FC1FF00
0FFFEF00
07FFCF00
03FF8F00
00FE0000
ENDCHAR
STARTCHAR 0112
ENCODING 274
SWIDTH 660 0
DWIDTH 33 0
BBX 26 45 5 0
BITMAP
07FFE000
07FFE000
07FFE000
07FFE000
00000000
00000000
00000000
00000000
00000000
FFFFFF80
FFFFFF80
FFFFFF80
FFFFFF80
F0000000
F0000000
F0000000
F0000000
F0000000
F0000000
F0000000
F0000000
F0000000
F0000000
F0000000
F0000000
FFFFFF00
FFFFFF00
FFFFFF00
FFFFFF00
F0000000
F0000000
F0000000
F0000000
F0000000
F0000000
F0000000
F0000000
F0000000
F0000000
F0000000
F0000000
FFFFFFC0
FFFFFFC0
FFFFFFC0
FFFFFFC0
ENDCHAR
STARTCHAR 0113
ENCODING 275
SWIDTH 560 0
DWIDTH 28 0
BBX 24 36 2 -1
BITMAP
07FFE0
07FFE0
07FFE0
07FFE0
000000
000000
000000
000000
007F00
03FFC0
07FFE0
0FFFF8
1F81F8
3E00FC
3C007C
7C003E
78001E
78001E
F8001E
F8001F
FFFFFF
FFFFFF
FFFFFF
F00000
F00000
F80000
F80000
78001E
7C003E
7C003C
3E007C
1F81F8
1FFFF8
0FFFE0
03FFC0
00FE00
ENDCHAR
STARTCHAR 0114
ENCODING 276
SWIDTH 660 0
DWIDTH 33 0
BBX 26 46 5 0
BITMAP
07007000
0700E000
07C1E000
03FFE000
01FFC000
00FF0000
00000000
00000000
00000000
00000000
FFFFFF80
FFFFFF80
FFFFFF80
FFFFFF80
F0000000
F0000000
F0000000
F0000000
F0000000
F0000000
F0000000
F0000000
F0000000
F0000000
F0000000
F0000000
FFFFFF00
FFFFFF00
FFFFFF00
FFFFFF00
F0000000
F0000000
F0000000
F0000000
F0000000
F0000000
F0000000
F0000000
F0000000
F0000000
F0000000
F0000000
FFFFFFC0
FFFFFFC0
FFFFFFC0
FFFFFFC0
ENDCHAR
STARTCHAR 0115
ENCODING 277
SWIDTH 560 0
DWIDTH 28 0
BBX 24 38 2 -1
BITMAP
070070
070070
0780E0
07F7E0
03FFC0
01FF80
007E00
000000
000000
000000
007F00
03FFC0
07FFE0
0FFFF8
1F81F8
3E00FC
3C007C
7C003E
78001E
78001E
F8001E
F8001F
FFFFFF
FFFFFF
FFFFFF
F00000
F00000
F80000
F80000
78001E
7C003E
7C003C
3E007C
1F81F8
1FFFF8
0FFFE0
03FFC0
00FE00
ENDCHAR
STARTCHAR 0116
ENCODING 278
SWIDTH 660 0
DWIDTH 33 0
BBX 26 45 5 0
BITMAP
003E0000
003E0000
003E0000
003E0000
003E0000
00000000
00000000
00000000
00000000
FFFFFF80
FFFFFF80
FFFFFF80
FFFFFF80
F0000000
F0000000
F0000000
F0000000
F0000000
F0000000
F0000000
F0000000
F0000000
F0000000
F0000000
F0000000
FFFFFF00
FFFFFF00
FFFFFF00
FFFFFF00
F0000000
F0000000
F0000000
F0000000
F0000000
F0000000
F0000000
F0000000
F0000000
F0000000
F0000000
F0000000
FFFFFFC0
FFFFFFC0
FFFFFFC0
FFFFFFC0
ENDCHAR
STARTCHAR 0117
ENCODING 279
SWIDTH 560 0
DWIDTH 28 0
BBX 24 37 2 -1
BITMAP
003E00
003E00
003E00
003E00
003E00
000000
000000
000000
000000
007F00
03FFC0
07FFE0
0FFFF8
1F81F8
3E00FC
3C007C
7C003E
78001E
78001E
F8001E
F8001F
FFFFFF
FFFFFF
FFFFFF
F00000
F00000
F80000
F80000
78001E
7C003E
7C003C
3E007C
1F81F8
1FFFF8
0FFFE0
03FFC0
00FE00
ENDCHAR
STARTCHAR 0118
ENCODING 280
SWIDTH 660 0
DWIDTH 33 0
BBX 28 46 5 -10
BITMAP
FFFFFF80
FFFFFF80
FFFFFF80
FFFFFF80
F0000000
F0000000
F0000000
F0000000
F0000000
F0000000
F0000000
F0000000
F0000000
F0000000
F0000000
F0000000
FFFFFF00
FFFFFF00
FFFFFF00
FFFFFF00
F0000000
F0000000
F0000000
F0000000
F0000000
F0000000
F0000000
F0000000
F0000000
F0000000
F0000000
F0000000
FFFFFFC0
FFFFFFC0
FFFFFFC0
FFFFFFC0
00000780
00000E00
00003C00
00003800
00007800
00007800
00007800
00003C00
00003FF0
00000FF0
ENDCHAR
STARTCHAR 0119
ENCODING 281
SWIDTH 560 0
DWIDTH 28 0
BBX 24 37 2 -10
BITMAP
007F00
03FFC0
07FFF0
0FFFF8
1F81F8
3E00FC
3C007C
7C003E
78001E
78001E
F8001E
F8001F
FFFFFF
FFFFFF
FFFFFF
F00000
F00000
F80000
F80000
78001E
7C003E
7C003C
3E007C
3F81F8
1FFFF8
0FFFF0
03FFE0
00FFC0
000380
000700
000700
000F00
000F00
000F00
000F80
0007FC
0001FC
ENDCHAR
STARTCHAR 011A
ENCODING 282
SWIDTH 660 0
DWIDTH 33 0
BBX 26 47 5 0
BITMAP
0700E000
0381E000
03C1C000
01E38000
00F78000
00FF0000
007F0000
003E0000
00000000
00000000
00000000
FFFFFF80
FFFFFF80
FFFFFF80
FFFFFF80
F0000000
F0000000
F0000000
F0000000
F0000000
F0000000
F0000000
F0000000
F0000000
F0000000
F0000000
F0000000
FFFFFF00
FFFFFF00
FFFFFF00
FFFFFF00
F0000000
F0000000
F0000000
F0000000
F0000000
F0000000
F0000000
F0000000
F0000000
F0000000
F0000000
F0000000
FFFFFFC0
FFFFFFC0
FFFFFFC0
FFFFFFC0
ENDCHAR
STARTCHAR 011B
ENCODING 283
SWIDTH 560 0
DWIDTH 28 0
BBX 24 38 2 -1
BITMAP
0780E0
03C1E0
01C3C0
01E780
00F780
007F00
007E00
000000
000000
000000
007F00
03FFC0
07FFE0
0FFFF8
1F81F8
3E00FC
3C007C
7C003E
78001E
78001E
F8001E
F8001F
FFFFFF
FFFFFF
FFFFFF
F00000
F00000
F80000
F80000
78001E
7C003E
7C003C
3E007C
1F81F8
1FFFF8
0FFFE0
03FFC0
00FE00
ENDCHAR
STARTCHAR 011C
ENCODING 284
SWIDTH 780 0
DWIDTH 39 0
BBX 33 48 2 -1
BITMAP
0001F00000
0003F80000
0007F80000
0007BC0000
000F1C0000
001E0E0000
001C0F0000
0038070000
0000000000
0000000000
0007FC0000
003FFF8000
00FFFFE000
01FFFFF800
03FC07FC00
07F000FC00
0FC0007E00
1F80003F00
1F00001F00
3E00001F00
3E00000F80
7C00000F80
7C00000000
7C00000000
7800000000
7800000000
F800000000
F800000000
F8003FFF80
F8003FFF80
F8003FFF80
F8003FFF80
F800000780
7800000780
7C00000780
7C00000780
7C00000780
3E00000F80
3E00000F80
1F00001F80
1F80003F80
0FC0007F80
07F000FF80
03FE07F380
01FFFFE380
00FFFFC380
003FFF0380
0007F80000
ENDCHAR
STARTCHAR 011D
ENCODING 285
SWIDTH 560 0
DWIDTH 28 0
BBX 22 48 2 -11
BITMAP
007C00
00FE00
00FF00
01EF00
03C780
038380
0781C0
0F01E0
000000
000000
00FC00
07FE3C
0FFF3C
1FFFBC
3F03FC
3E01FC
7C00FC
78007C
78007C
F8007C
F0007C
F0003C
F0003C
F0003C
F0003C
F0003C
F0003C
F0003C
F8007C
F8007C
78007C
7C00FC
3E01FC
3F03FC
1FFFBC
0FFF3C
07FE3C
01F83C
00003C
00007C
780078
780078
7C00F8
3E01F0
3FFFE0
1FFFC0
0FFF80
01FE00
ENDCHAR
STARTCHAR 011E
ENCODING 286
SWIDTH 780 0
DWIDTH 39 0
BBX 33 47 2 -1
BITMAP
001C038000
001C038000
001E078000
001FFF0000
000FFF0000
0003FC0000
0000000000
0000000000
0000000000
0007FC0000
003FFF8000
00FFFFE000
01FFFFF800
03FC07FC00
07F000FC00
0FC0007E00
1F80003F00
1F00001F00
3E00001F00
3E00000F80
7C00000F80
7C00000000
7C00000000
7800000000
7800000000
F800000000
F800000000
F8003FFF80
F8003FFF80
F8003FFF80
F8003FFF80
F800000780
7800000780
7C00000780
7C00000780
7C00000780
3E00000F80
3E00000F80
1F00001F80
1F80003F80
0FC0007F80
07F000FF80
03FE07F380
01FFFFE380
00FFFFC380
003FFF0380
0007F80000
ENDCHAR
STARTCHAR 011F
ENCODING 287
SWIDTH 560 0
DWIDTH 28 0
BBX 22 48 2 -11
BITMAP
0E00E0
0E00E0
0F01E0
07EFC0
07FFC0
03FF80
00FE00
000000
000000
000000
00FC00
07FE3C
0FFF3C
1FFFBC
3F03FC
3E01FC
7C00FC
78007C
78007C
F8007C
F0007C
F0003C
F0003C
F0003C
F0003C
F0003C
F0003C
F0003C
F8007C
F8007C
78007C
7C00FC
3E01FC
3F03FC
1FFFBC
0FFF3C
07FE3C
01F83C
00003C
00007C
780078
780078
7C00F8
3E01F0
3FFFE0
1FFFC0
0FFF80
01FE00
ENDCHAR
STARTCHAR 0120
ENCODING 288
SWIDTH 780 0
DWIDTH 39 0
BBX 33 47 2 -1
BITMAP
0001F00000
0001F00000
0001F00000
0001F00000
0001F00000
0000000000
0000000000
0000000000
0000000000
0007FC0000
003FFF8000
00FFFFE000
01FFFFF800
03FC07FC00
07F000FC00
0FC0007E00
1F80003F00
1F00001F00
3E00001F00
3E00000F80
7C00000F80
7C00000000
7C00000000
7800000000
7800000000
F800000000
F800000000
F8003FFF80
F8003FFF80
F8003FFF80
F8003FFF80
F800000780
7800000780
7C00000780
7C00000780
7C00000780
3E00000F80
3E00000F80
1F00001F80
1F80003F80
0FC0007F80
07F000FF80
03FE07F380
01FFFFE380
00FFFFC380
003FFF0380
0007F80000
ENDCHAR
STARTCHAR 0121
ENCODING 289
SWIDTH 560 0
DWIDTH 28 0
BBX 22 47 2 -11
BITMAP
007C00
007C00
007C00
007C00
007C00
000000
000000
000000
000000
00FC00
07FE3C
0FFF3C
1FFFBC
3F03FC
3E01FC
7C00FC
78007C
78007C
F8007C
F0007C
F0003C
F0003C
F0003C
F0003C
F0003C
F0003C
F0003C
F8007C
F8007C
78007C
7C00FC
3E01FC
3F03FC
1FFFBC
0FFF3C
07FE3C
01F83C
00003C
00007C
780078
780078
7C00F8
3E01F0
3FFFE0
1FFFC0
0FFF80
01FE00
ENDCHAR
STARTCHAR 0122
ENCODING 290
SWIDTH 780 0
DWIDTH 39 0
BBX 33 51 2 -14
BITMAP
0007FC0000
003FFF8000
00FFFFE000
01FFFFF800
03FC07FC00
07F000FC00
0FC0007E00
1F80003F00
1F00001F00
3E00001F00
3E00000F80
7C00000F80
7C00000000
7C00000000
7800000000
7800000000
F800000000
F800000000
F8003FFF80
F8003FFF80
F8003FFF80
F8003FFF80
F800000780
7800000780
7C00000780
7C00000780
7C00000780
3E00000F80
3E00000F80
1F00001F80
1F80003F80
0FC0007F80
07F000FF80
03FE07F380
01FFFFE380
00FFFFC380
003FFF0380
0007F80000
0000000000
0000000000
0001F00000
0001F00000
0001F00000
0001F00000
0001F00000
0000300000
0000300000
0000700000
0000600000
0001E00000
0001800000
ENDCHAR
STARTCHAR 0123
ENCODING 291
SWIDTH 560 0
DWIDTH 28 0
BBX 22 52 2 -11
BITMAP
001C00
003C00
007000
006000
006000
006000
007C00
007C00
007C00
007C00
007C00
000000
000000
000000
00FC00
07FE3C
0FFF3C
1FFFBC
3F03FC
3E01FC
7C00FC
78007C
78007C
F8007C
F0007C
F0003C
F0003C
F0003C
F0003C
F0003C
F0003C
F0003C
F8007C
F8007C
78007C
7C00FC
3E01FC
3F03FC
1FFFBC
0FFF3C
07FE3C
01F83C
00003C
00007C
780078
780078
7C00F8
3E01F0
3FFFE0
1FFFC0
0FFF80
01FE00
ENDCHAR
STARTCHAR 0124
ENCODING 292
SWIDTH 720 0
DWIDTH 36 0
BBX 28 47 4 0
BITMAP
000F8000
000FC000
001FC000
003DE000
0038F000
00787000
00F07800
00E03800
00000000
00000000
00000000
F80000F0
F80000F0
F80000F0
F80000F0
F80000F0
F80000F0
F80000F0
F80000F0
F80000F0
F80000F0
F80000F0
F80000F0
F80000F0
F80000F0
F80000F0
F80000F0
FFFFFFF0
FFFFFFF0
FFFFFFF0
FFFFFFF0
F80000F0
F80000F0
F80000F0
F80000F0
F80000F0
F80000F0
F80000F0
F80000F0
F80000F0
F80000F0
F80000F0
F80000F0
F80000F0
F80000F0
F80000F0
F80000F0
ENDCHAR
STARTCHAR 0125
ENCODING 293
SWIDTH 560 0
DWIDTH 28 0
BBX 25 47 -1 0
BITMAP
0F800000
0FC00000
1FC00000
3DE00000
3CF00000
78700000
F0780000
E03C0000
00000000
00000000
00000000
0F800000
0F800000
0F800000
0F800000
0F800000
0F800000
0F800000
0F800000
0F800000
0F83F800
0F8FFE00
0FBFFF00
0FFFFF00
0FF01F80
0FE00F80
0FC00780
0FC00780
0F800780
0F800780
0F800780
0F800780
0F800780
0F800780
0F800780
0F800780
0F800780
0F800780
0F800780
0F800780
0F800780
0F800780
0F800780
0F800780
0F800780
0F800780
0F800780
ENDCHAR
STARTCHAR 0126
ENCODING 294
SWIDTH 720 0
DWIDTH 36 0
BBX 36 36 0 0
BITMAP
0F80000F00
0F80000F00
0F80000F00
0F80000F00
0F80000F00
0F80000F00
0F80000F00
FF80000F00
FFFFFFFFF0
FFFFFFFFF0
FFFFFFFFF0
0F80000F00
0F80000F00
0F80000F00
0F80000F00
0F80000F00
0FFFFFFF00
0FFFFFFF00
0FFFFFFF00
0FFFFFFF00
0F80000F00
0F80000F00
0F80000F00
0F80000F00
0F80000F00
0F80000F00
0F80000F00
0F80000F00
0F80000F00
0F80000F00
0F80000F00
0F80000F00
0F80000F00
0F80000F00
0F80000F00
0F80000F00
ENDCHAR
STARTCHAR 0127
ENCODING 295
SWIDTH 560 0
DWIDTH 28 0
BBX 23 36 1 0
BITMAP
3E0000
3E0000
3E0000
FFFF80
FFFF80
FFFF80
3E0000
3E0000
3E0000
3E0FE0
3E3FF8
3EFFFC
3FFFFC
3FC07E
3F803E
3F001E
3F001E
3E001E
3E001E
3E001E
3E001E
3E001E
3E001E
3E001E
3E001E
3E001E
3E001E
3E001E
3E001E
3E001E
3E001E
3E001E
3E001E
3E001E
3E001E
3E001E
ENDCHAR
STARTCHAR 0128
ENCODING 296
SWIDTH 280 0
DWIDTH 14 0
BBX 15 45 -1 0
BITMAP
3E0E
7FDE
7FFE
E3FC
E078
0000
0000
0000
0000
03E0
03E0
03E0
03E0
03E0
03E0
03E0
03E0
03E0
03E0
03E0
03E0
03E0
03E0
03E0
03E0
03E0
03E0
03E0
03E0
03E0
03E0
03E0
03E0
03E0
03E0
03E0
03E0
03E0
03E0
03E0
03E0
03E0
03E0
03E0
03E0
ENDCHAR
STARTCHAR 0129
ENCODING 297
SWIDTH 280 0
DWIDTH 14 0
BBX 15 36 -1 0
BITMAP
3C06
7F8E
7FFE
F7FC
E0F8
0000
0000
0000
0000
0000
03C0
03C0
03C0
03C0
03C0
03C0
03C0
03C0
03C0
03C0
03C0
03C0
03C0
03C0
03C0
03C0
03C0
03C0
03C0
03C0
03C0
03C0
03C0
03C0
03C0
03C0
ENDCHAR
STARTCHAR 012A
ENCODING 298
SWIDTH 280 0
DWIDTH 14 0
BBX 13 45 1 0
BITMAP
FFF8
FFF8
FFF8
FFF8
0000
0000
0000
0000
0000
0F80
0F80
0F80
0F80
0F80
0F80
0F80
0F80
0F80
0F80
0F80
0F80
0F80
0F80
0F80
0F80
0F80
0F80
0F80
0F80
0F80
0F80
0F80
0F80
0F80
0F80
0F80
0F80
0F80
0F80
0F80
0F80
0F80
0F80
0F80
0F80
ENDCHAR
STARTCHAR 012B
ENCODING 299
SWIDTH 280 0
DWIDTH 14 0
BBX 12 35 1 0
BITMAP
FFF0
FFF0
FFF0
FFF0
0000
0000
0000
0000
0000
0F00
0F00
0F00
0F00
0F00
0F00
0F00
0F00
0F00
0F00
0F00
0F00
0F00
0F00
0F00
0F00
0F00
0F00
0F00
0F00
0F00
0F00
0F00
0F00
0F00
0F00
ENDCHAR
STARTCHAR 012C
ENCODING 300
SWIDTH 280 0
DWIDTH 14 0
BBX 15 46 -1 0
BITMAP
F00E
700E
781E
7FFC
3FFC
0FF0
0000
0000
0000
0000
03C0
03C0
03C0
03C0
03C0
03C0
03C0
03C0
03C0
03C0
03C0
03C0
03C0
03C0
03C0
03C0
03C0
03C0
03C0
03C0
03C0
03C0
03C0
03C0
03C0
03C0
03C0
03C0
03C0
03C0
03C0
03C0
03C0
03C0
03C0
03C0
ENDCHAR
STARTCHAR 012D
ENCODING 301
SWIDTH 280 0
DWIDTH 14 0
BBX 15 37 -1 0
BITMAP
E00E
700E
781E
7EFE
3FFC
1FF8
07E0
0000
0000
0000
0000
03C0
03C0
03C0
03C0
03C0
03C0
03C0
03C0
03C0
03C0
03C0
03C0
03C0
03C0
03C0
03C0
03C0
03C0
03C0
03C0
03C0
03C0
03C0
03C0
03C0
03C0
ENDCHAR
STARTCHAR 012E
ENCODING 302
SWIDTH 280 0
DWIDTH 14 0
BBX 9 46 3 -10
BITMAP
3E00
3E00
3E00
3E00
3E00
3E00
3E00
3E00
3E00
3E00
3E00
3E00
3E00
3E00
3E00
3E00
3E00
3E00
3E00
3E00
3E00
3E00
3E00
3E00
3E00
3E00
3E00
3E00
3E00
3E00
3E00
3E00
3E00
3E00
3E00
3E00
0C00
3800
7800
7000
F000
F000
F000
7800
7F80
3F80
ENDCHAR
STARTCHAR 012F
ENCODING 303
SWIDTH 220 0
DWIDTH 11 0
BBX 9 46 1 -10
BITMAP
3E00
3E00
3E00
3E00
3E00
0000
0000
0000
0000
0000
3E00
3E00
3E00
3E00
3E00
3E00
3E00
3E00
3E00
3E00
3E00
3E00
3E00
3E00
3E00
3E00
3E00
3E00
3E00
3E00
3E00
3E00
3E00
3E00
3E00
3E00
1C00
3800
7800
7000
F000
F000
F000
7800
7F80
3F80
ENDCHAR
STARTCHAR 0130
ENCODING 304
SWIDTH 280 0
DWIDTH 14 0
BBX 5 45 5 0
BITMAP
F8
F8
F8
F8
F8
00
00
00
00
F8
F8
F8
F8
F8
F8
F8
F8
F8
F8
F8
F8
F8
F8
F8
F8
F8
F8
F8
F8
F8
F8
F8
F8
F8
F8
F8
F8
F8
F8
F8
F8
F8
F8
F8
F8
ENDCHAR
STARTCHAR 0131
ENCODING 305
SWIDTH 280 0
DWIDTH 14 0
BBX 4 26 5 0
BITMAP
F0
F0
F0
F0
F0
F0
F0
F0
F0
F0
F0
F0
F0
F0
F0
F0
F0
F0
F0
F0
F0
F0
F0
F0
F0
F0
ENDCHAR
STARTCHAR 0132
ENCODING 306
SWIDTH 740 0
DWIDTH 37 0
BBX 28 37 5 -1
BITMAP
F80001F0
F80001F0
F80001F0
F80001F0
F80001F0
F80001F0
F80001F0
F80001F0
F80001F0
F80001F0
F80001F0
F80001F0
F80001F0
F80001F0
F80001F0
F80001F0
F80001F0
F80001F0
F80001F0
F80001F0
F80001F0
F80001F0
F80001F0
F80001F0
F9F001F0
F9F001F0
F9F001F0
F9F001F0
F9F001F0
F8F801F0
F8F803E0
F8FC03E0
F87E0FC0
F87FFFC0
F83FFF80
F81FFE00
0003F800
ENDCHAR
STARTCHAR 0133
ENCODING 307
SWIDTH 440 0
DWIDTH 22 0
BBX 14 47 4 -11
BITMAP
F83C
F83C
F83C
F83C
F83C
0000
0000
0000
0000
0000
F83C
F83C
F83C
F83C
F83C
F83C
F83C
F83C
F83C
F83C
F83C
F83C
F83C
F83C
F83C
F83C
F83C
F83C
F83C
F83C
F83C
F83C
F83C
F83C
F83C
F83C
003C
003C
003C
003C
003C
003C
007C
03FC
03F8
03F0
03E0
ENDCHAR
STARTCHAR 0134
ENCODING 308
SWIDTH 500 0
DWIDTH 25 0
BBX 24 48 1 -1
BITMAP
0001F0
0003F0
0003F8
0007BC
000F3C
000E1E
001E0F
003C07
000000
000000
000000
0000F0
0000F0
0000F0
0000F0
0000F0
0000F0
0000F0
0000F0
0000F0
0000F0
0000F0
0000F0
0000F0
0000F0
0000F0
0000F0
0000F0
0000F0
0000F0
0000F0
0000F0
0000F0
0000F0
0000F0
F800F0
F800F0
F800F0
F800F0
F801F0
F801F0
F801F0
7C03E0
7E07E0
3FFFC0
1FFF80
0FFF00
03FC00
ENDCHAR
STARTCHAR 0135
ENCODING 309
SWIDTH 220 0
DWIDTH 11 0
BBX 14 48 -2 -11
BITMAP
07C0
0FE0
1FE0
1EF0
3C78
3838
703C
E01C
0000
0000
0000
07C0
07C0
07C0
07C0
07C0
07C0
07C0
07C0
07C0
07C0
07C0
07C0
07C0
07C0
07C0
07C0
07C0
07C0
07C0
07C0
07C0
07C0
07C0
07C0
07C0
07C0
07C0
07C0
07C0
07C0
07C0
07C0
07C0
7F80
7F80
7F00
7C00
ENDCHAR
STARTCHAR 0136
ENCODING 310
SWIDTH 660 0
DWIDTH 33 0
BBX 29 50 4 -14
BITMAP
F80003F0
F80007E0
F8000FC0
F8001F80
F8003F00
F8007E00
F800FC00
F801F800
F803F000
F807E000
F80FC000
F81F8000
F83F0000
F87E0000
F8FC0000
F9FC0000
FBFE0000
FFFF0000
FFDF8000
FF8F8000
FF07C000
FE07E000
FC03E000
F801F000
F801F800
F800FC00
F8007C00
F8007E00
F8003F00
F8001F00
F8000F80
F8000FC0
F80007C0
F80003E0
F80003F0
F80001F8
00000000
00000000
00000000
001F0000
001F0000
001F0000
001F0000
001F0000
00030000
00030000
00070000
00060000
001E0000
001C0000
ENDCHAR
STARTCHAR 0137
ENCODING 311
SWIDTH 500 0
DWIDTH 25 0
BBX 22 50 3 -14
BITMAP
F00000
F00000
F00000
F00000
F00000
F00000
F00000
F00000
F00000
F00000
F001F0
F003E0
F007C0
F00F80
F01F00
F03E00
F07C00
F0F800
F1F000
F3F000
F7F000
FFF800
FEFC00
FC7C00
F83E00
F03F00
F01F00
F00F80
F00F80
F007C0
F007E0
F003E0
F001F0
F001F8
F000F8
F0007C
000000
000000
000000
00F800
00F800
00F800
00F800
00F800
001800
001800
003800
003000
00F000
00C000
ENDCHAR
STARTCHAR 0138
ENCODING 312
SWIDTH 500 0
DWIDTH 25 0
BBX 20 26 2 0
BITMAP
E000F0
E001E0
E003C0
E00780
E00F00
E01E00
E03C00
E07800
E0F000
E1E000
E3C000
E7C000
EFE000
FEF000
FCF000
F87800
F03C00
E01C00
E01E00
E00F00
E00700
E00780
E003C0
E001E0
E001E0
E000F0
ENDCHAR
STARTCHAR 0139
ENCODING 313
SWIDTH 560 0
DWIDTH 28 0
BBX 23 47 4 0
BITMAP
0FC000
0F8000
1F0000
3E0000
3C0000
780000
F00000
E00000
000000
000000
000000
F80000
F80000
F80000
F80000
F80000
F80000
F80000
F80000
F80000
F80000
F80000
F80000
F80000
F80000
F80000
F80000
F80000
F80000
F80000
F80000
F80000
F80000
F80000
F80000
F80000
F80000
F80000
F80000
F80000
F80000
F80000
F80000
FFFFFE
FFFFFE
FFFFFE
FFFFFE
ENDCHAR
STARTCHAR 013A
ENCODING 314
SWIDTH 220 0
DWIDTH 11 0
BBX 11 47 3 0
BITMAP
07E0
0FC0
0F80
1F00
3E00
3C00
7800
F000
0000
0000
0000
F800
F800
F800
F800
F800
F800
F800
F800
F800
F800
F800
F800
F800
F800
F800
F800
F800
F800
F800
F800
F800
F800
F800
F800
F800
F800
F800
F800
F800
F800
F800
F800
F800
F800
F800
F800
ENDCHAR
STARTCHAR 013B
ENCODING 315
SWIDTH 560 0
DWIDTH 28 0
BBX 23 50 4 -14
BITMAP
F80000
F80000
F80000
F80000
F80000
F80000
F80000
F80000
F80000
F80000
F80000
F80000
F80000
F80000
F80000
F80000
F80000
F80000
F80000
F80000
F80000
F80000
F80000
F80000
F80000
F80000
F80000
F80000
F80000
F80000
F80000
F80000
FFFFFE
FFFFFE
FFFFFE
FFFFFE
000000
000000
000000
007C00
007C00
007C00
007C00
007C00
000C00
000C00
001C00
001800
007800
006000
ENDCHAR
STARTCHAR 013C
ENCODING 316
SWIDTH 220 0
DWIDTH 11 0
BBX 5 50 3 -14
BITMAP
F8
F8
F8
F8
F8
F8
F8
F8
F8
F8
F8
F8
F8
F8
F8
F8
F8
F8
F8
F8
F8
F8
F8
F8
F8
F8
F8
F8
F8
F8
F8
F8
F8
F8
F8
F8
00
00
00
F8
F8
F8
F8
F8
18
18
18
30
F0
E0
ENDCHAR
STARTCHAR 013D
ENCODING 317
SWIDTH 560 0
DWIDTH 28 0
BBX 23 36 4 0
BITMAP
F83E00
F83E00
F83E00
F83E00
F83E00
F80E00
F80E00
F80C00
F80C00
F83800
F83000
F80000
F80000
F80000
F80000
F80000
F80000
F80000
F80000
F80000
F80000
F80000
F80000
F80000
F80000
F80000
F80000
F80000
F80000
F80000
F80000
F80000
FFFFFE
FFFFFE
FFFFFE
FFFFFE
ENDCHAR
STARTCHAR 013E
ENCODING 318
SWIDTH 300 0
DWIDTH 15 0
BBX 12 36 3 0
BITMAP
F9F0
F9F0
F9F0
F9F0
F9F0
F830
F830
F830
F870
F9E0
F9C0
F800
F800
F800
F800
F800
F800
F800
F800
F800
F800
F800
F800
F800
F800
F800
F800
F800
F800
F800
F800
F800
F800
F800
F800
F800
ENDCHAR
STARTCHAR 013F
ENCODING 319
SWIDTH 560 0
DWIDTH 28 0
BBX 23 36 4 0
BITMAP
F80000
F80000
F80000
F80000
F80000
F80000
F80000
F80000
F80000
F80000
F80000
F80000
F80000
F80000
F80000
F80000
F807C0
F807C0
F807C0
F807C0
F807C0
F80000
F80000
F80000
F80000
F80000
F80000
F80000
F80000
F80000
F80000
F80000
FFFFFE
FFFFFE
FFFFFE
FFFFFE
ENDCHAR
STARTCHAR 0140
ENCODING 320
SWIDTH 340 0
DWIDTH 17 0
BBX 12 36 4 0
BITMAP
F000
F000
F000
F000
F000
F000
F000
F000
F000
F000
F000
F000
F000
F000
F000
F000
F1F0
F1F0
F1F0
F1F0
F1F0
F000
F000
F000
F000
F000
F000
F000
F000
F000
F000
F000
F000
F000
F000
F000
ENDCHAR
STARTCHAR 0141
ENCODING 321
SWIDTH 560 0
DWIDTH 28 0
BBX 28 36 0 0
BITMAP
0F800000
0F800000
0F800000
0F800000
0F800000
0F800000
0F800000
0F800000
0F800000
0F800000
0F808000
0F818000
0F838000
0F8F8000
0F9F0000
0FFE0000
0FF80000
0FF00000
0FC00000
3F800000
7F800000
FF800000
FF800000
CF800000
8F800000
0F800000
0F800000
0F800000
0F800000
0F800000
0F800000
0F800000
0FFFFFF0
0FFFFFF0
0FFFFFF0
0FFFFFF0
ENDCHAR
STARTCHAR 0142
ENCODING 322
SWIDTH 220 0
DWIDTH 11 0
BBX 11 36 0 0
BITMAP
1E00
1E00
1E00
1E00
1E00
1E00
1E00
1E00
1E00
1E00
1E00
1E00
1E00
1E20
1EE0
1FE0
1FC0
1F00
3E00
FE00
FE00
DE00
9E00
1E00
1E00
1E00
1E00
1E00
1E00
1E00
1E00
1E00
1E00
1E00
1E00
1E00
ENDCHAR
STARTCHAR 0143
ENCODING 323
SWIDTH 720 0
DWIDTH 36 0
BBX 28 47 4 0
BITMAP
0001F800
0001F000
0003E000
0003C000
00078000
000F0000
000E0000
001C0000
00000000
00000000
00000000
F80000F0
FC0000F0
FC0000F0
FE0000F0
FF0000F0
FF0000F0
FF8000F0
F7C000F0
F7C000F0
F3E000F0
F1F000F0
F1F000F0
F0F800F0
F0FC00F0
F07C00F0
F03E00F0
F03F00F0
F01F00F0
F00F80F0
F00F80F0
F007C0F0
F003E0F0
F003E0F0
F001F0F0
F000F8F0
F000F8F0
F0007CF0
F0003EF0
F0003EF0
F0001FF0
F0001FF0
F0000FF0
F00007F0
F00007F0
F00003F0
F00001F0
ENDCHAR
STARTCHAR 0144
ENCODING 324
SWIDTH 560 0
DWIDTH 28 0
BBX 20 37 4 0
BITMAP
001F80
001F00
003E00
007C00
007800
00F000
01E000
01C000
000000
000000
007E00
E1FFC0
E3FFE0
E7FFE0
EE03F0
FC01F0
F800F0
F800F0
F000F0
F000F0
F000F0
F000F0
F000F0
F000F0
F000F0
F000F0
F000F0
F000F0
F000F0
F000F0
F000F0
F000F0
F000F0
F000F0
F000F0
F000F0
F000F0
ENDCHAR
STARTCHAR 0145
ENCODING 325
SWIDTH 720 0
DWIDTH 36 0
BBX 28 50 4 -14
BITMAP
F80000F0
FC0000F0
FC0000F0
FE0000F0
FF0000F0
FF0000F0
FF8000F0
F7C000F0
F7C000F0
F3E000F0
F1F000F0
F1F000F0
F0F800F0
F0FC00F0
F07C00F0
F03E00F0
F03F00F0
F01F00F0
F00F80F0
F00F80F0
F007C0F0
F003E0F0
F003E0F0
F001F0F0
F000F8F0
F000F8F0
F0007CF0
F0003EF0
F0003EF0
F0001FF0
F0001FF0
F0000FF0
F00007F0
F00007F0
F00003F0
F00001F0
00000000
00000000
00000000
001F0000
001F0000
001F0000
001F0000
001F0000
00030000
00030000
00070000
00060000
001E0000
001C0000
ENDCHAR
STARTCHAR 0146
ENCODING 326
SWIDTH 560 0
DWIDTH 28 0
BBX 20 41 4 -14
BITMAP
007E00
E1FFC0
E3FFE0
E7FFE0
EE03F0
FC01F0
F800F0
F800F0
F000F0
F000F0
F000F0
F000F0
F000F0
F000F0
F000F0
F000F0
F000F0
F000F0
F000F0
F000F0
F000F0
F000F0
F000F0
F000F0
F000F0
F000F0
F000F0
000000
000000
000000
01F000
01F000
01F000
01F000
01F000
003000
003000
003000
007000
01E000
01C000
ENDCHAR
STARTCHAR 0147
ENCODING 327
SWIDTH 720 0
DWIDTH 36 0
BBX 28 47 4 0
BITMAP
01C03800
00E07800
00F0F000
0079E000
0079E000
003FC000
001F8000
001F8000
00000000
00000000
00000000
F80000F0
FC0000F0
FC0000F0
FE0000F0
FF0000F0
FF0000F0
FF8000F0
F7C000F0
F7C000F0
F3E000F0
F1F000F0
F1F000F0
F0F800F0
F0FC00F0
F07C00F0
F03E00F0
F03F00F0
F01F00F0
F00F80F0
F00F80F0
F007C0F0
F003E0F0
F003E0F0
F001F0F0
F000F8F0
F000F8F0
F0007CF0
F0003EF0
F0003EF0
F0001FF0
F0001FF0
F0000FF0
F00007F0
F00007F0
F00003F0
F00001F0
ENDCHAR
STARTCHAR 0148
ENCODING 328
SWIDTH 560 0
DWIDTH 28 0
BBX 20 37 4 0
BITMAP
1C0780
0E0700
0F0F00
079E00
03FC00
03FC00
01F800
01F000
000000
000000
007E00
E1FFC0
E3FFE0
E7FFE0
EE03F0
FC01F0
F800F0
F800F0
F000F0
F000F0
F000F0
F000F0
F000F0
F000F0
F000F0
F000F0
F000F0
F000F0
F000F0
F000F0
F000F0
F000F0
F000F0
F000F0
F000F0
F000F0
F000F0
ENDCHAR
STARTCHAR 0149
ENCODING 329
SWIDTH 600 0
DWIDTH 30 0
BBX 26 38 1 0
BITMAP
F8000000
F8000000
F8000000
F8000000
F8000000
38000000
30000000
30000000
70000000
E0000000
C0000000
0001F800
078FFE00
079FFF00
07BFFF80
07F81F80
07F007C0
07E007C0
07C007C0
07C003C0
078003C0
078003C0
078003C0
078003C0
078003C0
078003C0
078003C0
078003C0
078003C0
078003C0
078003C0
078003C0
078003C0
078003C0
078003C0
078003C0
078003C0
078003C0
ENDCHAR
STARTCHAR 014A
ENCODING 330
SWIDTH 720 0
DWIDTH 36 0
BBX 27 52 5 -15
BITMAP
000FE000
F03FFC00
F0FFFE00
F1FFFF00
F3E07F80
F7801FC0
FF000FC0
FE0007C0
FC0003E0
FC0003E0
F80003E0
F80003E0
F80003E0
F80003E0
F00003E0
F00003E0
F00003E0
F00003E0
F00003E0
F00003E0
F00003E0
F00003E0
F00003E0
F00003E0
F00003E0
F00003E0
F00003E0
F00003E0
F00003E0
F00003E0
F00003E0
F00003E0
F00003E0
F00003E0
F00003E0
F00003E0
F00003E0
000003E0
000003E0
000003E0
000003E0
000003E0
000003E0
000003E0
000003E0
000003E0
000007C0
00001FC0
0001FFC0
0001FF80
0001FF00
0001FC00
ENDCHAR
STARTCHAR 014B
ENCODING 331
SWIDTH 560 0
DWIDTH 28 0
BBX 20 38 4 -11
BITMAP
007E00
E1FFC0
E3FFE0
E7FFE0
EF03F0
FC01F0
F800F0
F800F0
F000F0
F000F0
F000F0
F000F0
F000F0
F000F0
F000F0
F000F0
F000F0
F000F0
F000F0
F000F0
F000F0
F000F0
F000F0
F000F0
F000F0
F000F0
F000F0
0000F0
0000F0
0000F0
0000F0
0000F0
0000F0
0000F0
000FF0
000FF0
000FE0
000F80
ENDCHAR
STARTCHAR 014C
ENCODING 332
SWIDTH 780 0
DWIDTH 39 0
BBX 35 46 2 -1
BITMAP
001FFF0000
001FFF0000
001FFF0000
001FFF0000
0000000000
0000000000
0000000000
0000000000
0007FC0000
003FFF8000
00FFFFE000
01FFFFF000
03FC07FC00
07E001FE00
0FC0007E00
1F80003F00
3F00001F80
3E00000F80
3E00000FC0
7C000007C0
7C000007C0
78000003E0
F8000003E0
F8000003E0
F8000003E0
F8000003E0
F8000003E0
F8000003E0
F8000003E0
F8000003E0
F8000003E0
F8000003E0
78000003E0
7C000007C0
7C000007C0
7E000007C0
3E00000F80
3F00001F80
1F80003F00
0FC0007E00
07F000FC00
07FC07FC00
01FFFFF000
00FFFFE000
003FFF8000
0007FC0000
ENDCHAR
STARTCHAR 014D
ENCODING 333
SWIDTH 560 0
DWIDTH 28 0
BBX 24 36 2 -1
BITMAP
07FFE0
07FFE0
07FFE0
07FFE0
000000
000000
000000
000000
00FE00
03FFC0
0FFFE0
1FFFF0
3F81F8
3E00FC
7C007C
7C003E
78003E
F8001E
F8001E
F0001E
F0001E
F0001F
F0001F
F0001E
F0001E
F8001E
F8001E
78003E
7C003E
7C007C
3E00FC
3F81F8
1FFFF0
0FFFE0
03FFC0
00FE00
ENDCHAR
STARTCHAR 014E
ENCODING 334
SWIDTH 780 0
DWIDTH 39 0
BBX 35 47 2 -1
BITMAP
0038038000
003C078000
003E0F0000
001FFF0000
000FFE0000
0007FC0000
0000000000
0000000000
0000000000
0007FC0000
003FFF8000
00FFFFE000
01FFFFF000
03FC07FC00
07E001FE00
0FC0007E00
1F80003F00
3F00001F80
3E00000F80
3E00000FC0
7C000007C0
7C000007C0
78000003E0
F8000003E0
F8000003E0
F8000003E0
F8000003E0
F8000003E0
F8000003E0
F8000003E0
F8000003E0
F8000003E0
F8000003E0
78000003E0
7C000007C0
7C000007C0
7E000007C0
3E00000F80
3F00001F80
1F80003F00
0FC0007E00
07F000FC00
07FC07FC00
01FFFFF000
00FFFFE000
003FFF8000
0007FC0000
ENDCHAR
STARTCHAR 014F
ENCODING 335
SWIDTH 560 0
DWIDTH 28 0
BBX 24 38 2 -1
BITMAP
0E00E0
0E00E0
0F01E0
07EFC0
07FFC0
03FF80
00FE00
000000
000000
000000
00FE00
03FFC0
0FFFE0
1FFFF0
3F81F8
3E00FC
7C007C
7C003E
78003E
F8001E
F8001E
F0001E
F0001E
F0001F
F0001F
F0001E
F0001E
F8001E
F8001E
78003E
7C003E
7C007C
3E00FC
3F81F8
1FFFF0
0FFFE0
03FFC0
00FE00
ENDCHAR
STARTCHAR 0150
ENCODING 336
SWIDTH 780 0
DWIDTH 39 0
BBX 35 48 2 -1
BITMAP
0000F87C00
0001F0F800
0001E1F000
0003C1E000
000783C000
0007078000
000E070000
001E0E0000
0000000000
0000000000
0007FC0000
003FFF8000
00FFFFE000
01FFFFF000
03FC07FC00
07E001FE00
0FC0007E00
1F80003F00
3F00001F80
3E00000F80
3E00000FC0
7C000007C0
7C000007C0
78000003E0
F8000003E0
F8000003E0
F8000003E0
F8000003E0
F8000003E0
F8000003E0
F8000003E0
F8000003E0
F8000003E0
F8000003E0
78000003E0
7C000007C0
7C000007C0
7E000007C0
3E00000F80
3F00001F80
1F80003F00
0FC0007E00
07F000FC00
07FC07FC00
01FFFFF000
00FFFFE000
003FFF8000
0007FC0000
ENDCHAR
STARTCHAR 0151
ENCODING 337
SWIDTH 560 0
DWIDTH 28 0
BBX 24 38 2 -1
BITMAP
003E3F
007C3E
00F87C
00F0F8
01E0F0
03C1E0
0383C0
000000
000000
000000
00FE00
03FFC0
0FFFE0
1FFFF0
3F81F8
3E00FC
7C007C
7C003E
78003E
F8001E
F8001E
F0001E
F0001E
F0001F
F0001F
F0001E
F0001E
F8001E
F8001E
78003E
7C003E
7C007C
3E00FC
3F81F8
1FFFF0
0FFFE0
03FFC0
00FE00
ENDCHAR
STARTCHAR 0152
ENCODING 338
SWIDTH 1000 0
DWIDTH 50 0
BBX 46 38 2 -1
BITMAP
000FE0000000
007FF8FFFFFC
01FFFCFFFFFC
03FFFEFFFFFC
07F03FFFFFFC
0FC00FF80000
1F8003F80000
1F0001F80000
3E0001F80000
3E0000F80000
7C0000F80000
7C0000F80000
780000F80000
780000F80000
F80000F80000
F80000F80000
F80000F80000
F80000FFFFF8
F80000FFFFF8
F80000FFFFF8
F80000FFFFF8
F80000F80000
F80000F80000
F80000F80000
780000F80000
780000F80000
7C0000F80000
7C0000F80000
3E0000F80000
3E0001F80000
3F0001F80000
1F8003F80000
0FC00FF80000
07F03FFFFFFC
03FFFEFFFFFC
01FFFCFFFFFC
00FFF8FFFFFC
001FE0000000
ENDCHAR
STARTCHAR 0153
ENCODING 339
SWIDTH 940 0
DWIDTH 47 0
BBX 43 28 2 -1
BITMAP
00FF000FE000
03FFC03FF800
0FFFE0FFFE00
1FFFF1FFFF00
1F81FBF03F80
3E00FFE00F80
7C007FC007C0
7C003F8007C0
78003F8003C0
F8001F0003E0
F8001F0003E0
F8001F0003E0
F0001FFFFFE0
F0001FFFFFE0
F0001FFFFFE0
F0001F000000
F8001F000000
F8001F000000
F8001F000000
78001F0003C0
7C003F8003C0
7C007FC007C0
3E00FFE00F80
3F81FBF01F80
1FFFF1FFFF00
0FFFE0FFFE00
03FFC07FF800
00FF000FE000
ENDCHAR
STARTCHAR 0154
ENCODING 340
SWIDTH 720 0
DWIDTH 36 0
BBX 29 47 5 0
BITMAP
0003F000
0007E000
0007C000
000F8000
000F0000
001E0000
003C0000
00380000
00000000
00000000
00000000
FFFFF800
FFFFFE00
FFFFFF80
FFFFFFC0
F0001FC0
F00007E0
F00003E0
F00003E0
F00001F0
F00001F0
F00001F0
F00001E0
F00003E0
F00003E0
F00007C0
F0001F80
FFFFFF00
FFFFFC00
FFFFFE00
FFFFFF80
F0001FC0
F00007C0
F00007C0
F00003E0
F00003E0
F00003E0
F00003E0
F00003E0
F00003E0
F00003E0
F00003E0
F00003E0
F00003E0
F00001F0
F00001F8
F00001F8
ENDCHAR
STARTCHAR 0155
ENCODING 341
SWIDTH 340 0
DWIDTH 17 0
BBX 13 37 3 0
BITMAP
00F8
01F0
03E0
03C0
0780
0F00
0E00
1C00
0000
0000
0078
F0F8
F1F8
F3F8
F7F8
FF00
FE00
FC00
FC00
F800
F800
F800
F800
F800
F800
F800
F800
F800
F800
F800
F800
F800
F800
F800
F800
F800
F800
ENDCHAR
STARTCHAR 0156
ENCODING 342
SWIDTH 720 0
DWIDTH 36 0
BBX 29 50 5 -14
BITMAP
FFFFF800
FFFFFE00
FFFFFF80
FFFFFFC0
F0001FC0
F00007E0
F00003E0
F00003E0
F00001F0
F00001F0
F00001F0
F00001E0
F00003E0
F00003E0
F00007C0
F0001F80
FFFFFF00
FFFFFC00
FFFFFE00
FFFFFF80
F0001FC0
F00007C0
F00007C0
F00003E0
F00003E0
F00003E0
F00003E0
F00003E0
F00003E0
F00003E0
F00003E0
F00003E0
F00003E0
F00001F0
F00001F8
F00001F8
00000000
00000000
00000000
001F0000
001F0000
001F0000
001F0000
001F0000
00030000
00030000
00070000
00060000
001E0000
001C0000
ENDCHAR
STARTCHAR 0157
ENCODING 343
SWIDTH 340 0
DWIDTH 17 0
BBX 13 41 3 -14
BITMAP
0078
F0F8
F1F8
F3F8
F7F8
FF00
FE00
FC00
FC00
F800
F800
F800
F800
F800
F800
F800
F800
F800
F800
F800
F800
F800
F800
F800
F800
F800
F800
0000
0000
0000
F800
F800
F800
F800
F800
1800
1800
1800
3800
F000
E000
ENDCHAR
STARTCHAR 0158
ENCODING 344
SWIDTH 720 0
DWIDTH 36 0
BBX 29 47 5 0
BITMAP
03807000
03C0E000
01E1E000
00E3C000
00F78000
007F8000
007F0000
003E0000
00000000
00000000
00000000
FFFFF800
FFFFFE00
FFFFFF80
FFFFFFC0
F0001FC0
F00007E0
F00003E0
F00003E0
F00001F0
F00001F0
F00001F0
F00001E0
F00003E0
F00003E0
F00007C0
F0001F80
FFFFFF00
FFFFFC00
FFFFFE00
FFFFFF80
F0001FC0
F00007C0
F00007C0
F00003E0
F00003E0
F00003E0
F00003E0
F00003E0
F00003E0
F00003E0
F00003E0
F00003E0
F00003E0
F00001F0
F00001F8
F00001F8
ENDCHAR
STARTCHAR 0159
ENCODING 345
SWIDTH 340 0
DWIDTH 17 0
BBX 13 37 3 0
BITMAP
E038
F078
7870
38F0
3DE0
1FC0
1FC0
0F80
0000
0000
0078
F0F8
F1F8
F3F8
F7F8
FF00
FE00
FC00
FC00
F800
F800
F800
F800
F800
F800
F800
F800
F800
F800
F800
F800
F800
F800
F800
F800
F800
F800
ENDCHAR
STARTCHAR 015A
ENCODING 346
SWIDTH 660 0
DWIDTH 33 0
BBX 29 48 2 -1
BITMAP
0000F800
0001F000
0001E000
0003C000
00078000
00070000
000E0000
001C0000
00000000
00000000
003FE000
01FFFC00
03FFFF00
0FFFFF80
1FC03FC0
1F8007C0
3E0003E0
3E0003E0
3C0001F0
3C0001F0
3C0001F0
3C000000
3E000000
3F000000
3FC00000
1FF80000
0FFF0000
07FFF000
01FFFE00
003FFF80
0003FFC0
00003FE0
000007F0
000003F0
000001F8
F80000F8
F80000F8
780000F8
780000F8
7C0000F8
7C0000F0
3E0001F0
3F8003E0
1FE01FE0
0FFFFFC0
07FFFF80
01FFFE00
003FF000
ENDCHAR
STARTCHAR 015B
ENCODING 347
SWIDTH 500 0
DWIDTH 25 0
BBX 21 38 2 -1
BITMAP
001F80
001F00
003E00
007C00
007800
00F000
00E000
010000
000000
000000
01FC00
0FFF80
1FFFC0
3FFFE0
7E07E0
7C01F0
F801F0
F801F0
F80000
F80000
7E0000
7FC000
3FFC00
1FFF80
07FFE0
007FF0
0007F0
0001F8
0000F8
F00078
F00078
F800F8
F800F0
7E03F0
7FFFE0
3FFFC0
1FFF80
03FC00
ENDCHAR
STARTCHAR 015C
ENCODING 348
SWIDTH 660 0
DWIDTH 33 0
BBX 29 48 2 -1
BITMAP
000F8000
001FC000
001FC000
003DE000
0078F000
00707000
00E03800
01E03C00
00000000
00000000
003FE000
01FFFC00
03FFFF00
0FFFFF80
1FC03FC0
1F8007C0
3E0003E0
3E0003E0
3C0001F0
3C0001F0
3C0001F0
3C000000
3E000000
3F000000
3FC00000
1FF80000
0FFF0000
07FFF000
01FFFE00
003FFF80
0003FFC0
00003FE0
000007F0
000003F0
000001F8
F80000F8
F80000F8
780000F8
780000F8
7C0000F8
7C0000F0
3E0001F0
3F8003E0
1FE01FE0
0FFFFFC0
07FFFF80
01FFFE00
003FF000
ENDCHAR
STARTCHAR 015D
ENCODING 349
SWIDTH 500 0
DWIDTH 25 0
BBX 21 38 2 -1
BITMAP
00F800
01FC00
03FC00
03DE00
078F00
070700
0E0380
000000
000000
000000
01FC00
0FFF80
1FFFC0
3FFFE0
7E07E0
7C01F0
F801F0
F801F0
F80000
F80000
7E0000
7FC000
3FFC00
1FFF80
07FFE0
007FF0
0007F0
0001F8
0000F8
F00078
F00078
F800F8
F800F0
7E03F0
7FFFE0
3FFFC0
1FFF80
03FC00
ENDCHAR
STARTCHAR 015E
ENCODING 350
SWIDTH 660 0
DWIDTH 33 0
BBX 28 48 3 -11
BITMAP
007FC000
03FFF800
07FFFE00
0FFFFF00
1FC03F80
3F000FC0
7E0007C0
7C0003E0
7C0003E0
780003E0
780001E0
7C000000
7C000000
7E000000
7F800000
3FF00000
1FFE0000
0FFFE000
03FFFC00
007FFF00
0007FFC0
00007FC0
00000FE0
000007F0
000001F0
F00001F0
F00001F0
F00000F0
F00001F0
F80001F0
FC0001F0
7C0003E0
7F0007E0
3FC01FC0
1FFFFF80
0FFFFF00
03FFFC00
007FE000
000C0000
00180000
001F8000
003FC000
0001C000
0001C000
0101C000
03C3C000
03FF8000
007E0000
ENDCHAR
STARTCHAR 015F
ENCODING 351
SWIDTH 500 0
DWIDTH 25 0
BBX 21 38 2 -11
BITMAP
01FC00
0FFF80
1FFFC0
3FFFE0
7E07E0
7C01F0
F801F0
F801F0
F80000
F80000
7E0000
7FC000
3FFC00
1FFF80
07FFE0
007FF0
0007F0
0001F8
0000F8
F00078
F00078
F800F8
FC01F0
7E03F0
7FFFE0
3FFFC0
0FFF80
01FC00
00C000
01F000
01FC00
013E00
001E00
001E00
101E00
1C3C00
1FF800
07F000
ENDCHAR
STARTCHAR 0160
ENCODING 352
SWIDTH 660 0
DWIDTH 33 0
BBX 29 48 2 -1
BITMAP
00E03C00
00F07800
00787000
003CF000
003DE000
001FC000
000FC000
000F8000
00000000
00000000
003FE000
01FFFC00
03FFFF00
0FFFFF80
1FC03FC0
1F8007C0
3E0003E0
3E0003E0
3C0001F0
3C0001F0
3C0001F0
3C000000
3E000000
3F000000
3FC00000
1FF80000
0FFF0000
07FFF000
01FFFE00
003FFF80
0003FFC0
00003FE0
000007F0
000003F0
000001F8
F80000F8
F80000F8
780000F8
780000F8
7C0000F8
7C0000F0
3E0001F0
3F8003E0
1FE01FE0
0FFFFFC0
07FFFF80
01FFFE00
003FF000
ENDCHAR
STARTCHAR 0161
ENCODING 353
SWIDTH 500 0
DWIDTH 25 0
BBX 21 38 2 -1
BITMAP
1E0380
0F0780
070F00
079E00
03DE00
01FC00
01F800
000000
000000
000000
01FC00
0FFF80
1FFFC0
3FFFE0
7E07E0
7C01F0
F801F0
F801F0
F80000
F80000
7E0000
7FC000
3FFC00
1FFF80
07FFE0
007FF0
0007F0
0001F8
0000F8
F00078
F00078
F800F8
F800F0
7E03F0
7FFFE0
3FFFC0
1FFF80
03FC00
ENDCHAR
STARTCHAR 0162
ENCODING 354
SWIDTH 620 0
DWIDTH 31 0
BBX 29 47 1 -11
BITMAP
FFFFFFF8
FFFFFFF8
FFFFFFF8
FFFFFFF8
000F8000
000F8000
000F8000
000F8000
000F8000
000F8000
000F8000
000F8000
000F8000
000F8000
000F8000
000F8000
000F8000
000F8000
000F8000
000F8000
000F8000
000F8000
000F8000
000F8000
000F8000
000F8000
000F8000
000F8000
000F8000
000F8000
000F8000
000F8000
000F8000
000F8000
000F8000
000F8000
00030000
00030000
00060000
0007E000
000FF000
0000F800
00007800
00407000
0070F000
007FE000
001F8000
ENDCHAR
STARTCHAR 0163
ENCODING 355
SWIDTH 280 0
DWIDTH 14 0
BBX 12 44 1 -11
BITMAP
1E00
1E00
1E00
1E00
1E00
1E00
1E00
FFF0
FFF0
FFF0
1E00
1E00
1E00
1E00
1E00
1E00
1E00
1E00
1E00
1E00
1E00
1E00
1E00
1E00
1E00
1E00
1E00
1E00
1E00
1F00
1FF0
0FF0
0FF0
07F0
0600
0600
0FE0
0FF0
00F0
00F0
80F0
E1E0
FFC0
3F80
ENDCHAR
STARTCHAR 0164
ENCODING 356
SWIDTH 620 0
DWIDTH 31 0
BBX 29 47 1 0
BITMAP
01C03C00
00E07800
00F07000
0078F000
003DE000
003FC000
001FC000
000F8000
00000000
00000000
00000000
FFFFFFF8
FFFFFFF8
FFFFFFF8
FFFFFFF8
000F8000
000F8000
000F8000
000F8000
000F8000
000F8000
000F8000
000F8000
000F8000
000F8000
000F8000
000F8000
000F8000
000F8000
000F8000
000F8000
000F8000
000F8000
000F8000
000F8000
000F8000
000F8000
000F8000
000F8000
000F8000
000F8000
000F8000
000F8000
000F8000
000F8000
000F8000
000F8000
ENDCHAR
STARTCHAR 0165
ENCODING 357
SWIDTH 320 0
DWIDTH 16 0
BBX 15 41 1 -1
BITMAP
003E
003E
003E
003E
003E
0006
0006
1E06
1E0C
1E3C
1E38
1E00
1E00
1E00
FFF0
FFF0
FFF0
1E00
1E00
1E00
1E00
1E00
1E00
1E00
1E00
1E00
1E00
1E00
1E00
1E00
1E00
1E00
1E00
1E00
1E00
1E00
1F00
1FF0
0FF0
0FF0
07F0
ENDCHAR
STARTCHAR 0166
ENCODING 358
SWIDTH 620 0
DWIDTH 31 0
BBX 29 36 1 0
BITMAP
FFFFFFF8
FFFFFFF8
FFFFFFF8
FFFFFFF8
000F8000
000F8000
000F8000
000F8000
000F8000
000F8000
000F8000
000F8000
000F8000
0FFFFF80
0FFFFF80
0FFFFF80
000F8000
000F8000
000F8000
000F8000
000F8000
000F8000
000F8000
000F8000
000F8000
000F8000
000F8000
000F8000
000F8000
000F8000
000F8000
000F8000
000F8000
000F8000
000F8000
000F8000
ENDCHAR
STARTCHAR 0167
ENCODING 359
SWIDTH 280 0
DWIDTH 14 0
BBX 12 34 1 -1
BITMAP
1E00
1E00
1E00
1E00
1E00
1E00
1E00
FFF0
FFF0
FFF0
1E00
1E00
1E00
1E00
FFE0
FFE0
FFE0
1E00
1E00
1E00
1E00
1E00
1E00
1E00
1E00
1E00
1E00
1E00
1E00
1F00
1FF0
0FF0
0FF0
07F0
ENDCHAR
STARTCHAR 0168
ENCODING 360
SWIDTH 720 0
DWIDTH 36 0
BBX 28 46 4 -1
BITMAP
00F83C00
01FF7800
01FFF800
03C7F000
0381E000
00000000
00000000
00000000
00000000
F80000F0
F80000F0
F80000F0
F80000F0
F80000F0
F80000F0
F80000F0
F80000F0
F80000F0
F80000F0
F80000F0
F80000F0
F80000F0
F80000F0
F80000F0
F80000F0
F80000F0
F80000F0
F80000F0
F80000F0
F80000F0
F80000F0
F80000F0
F80000F0
F80000F0
F80000F0
F80000F0
F80001F0
7C0001F0
7C0003E0
7E0003E0
3F000FC0
1FE03FC0
0FFFFF80
07FFFE00
01FFFC00
007FE000
ENDCHAR
STARTCHAR 0169
ENCODING 361
SWIDTH 560 0
DWIDTH 28 0
BBX 21 37 3 -1
BITMAP
0780C0
0FF1C0
0FFFC0
1EFF80
1C1F00
000000
000000
000000
000000
000000
F00078
F00078
F00078
F00078
F00078
F00078
F00078
F00078
F00078
F00078
F00078
F00078
F00078
F00078
F00078
F00078
F00078
F00078
F000F8
F800F8
F801F8
F801F8
7E07F8
7FFF78
3FFF78
1FFC78
07F000
ENDCHAR
STARTCHAR 016A
ENCODING 362
SWIDTH 720 0
DWIDTH 36 0
BBX 28 46 4 -1
BITMAP
01FFF800
01FFF800
01FFF800
01FFF800
00000000
00000000
00000000
00000000
00000000
F80000F0
F80000F0
F80000F0
F80000F0
F80000F0
F80000F0
F80000F0
F80000F0
F80000F0
F80000F0
F80000F0
F80000F0
F80000F0
F80000F0
F80000F0
F80000F0
F80000F0
F80000F0
F80000F0
F80000F0
F80000F0
F80000F0
F80000F0
F80000F0
F80000F0
F80000F0
F80000F0
F80001F0
7C0001F0
7C0003E0
7E0003E0
3F000FC0
1FE03FC0
0FFFFF80
07FFFE00
01FFFC00
007FE000
ENDCHAR
STARTCHAR 016B
ENCODING 363
SWIDTH 560 0
DWIDTH 28 0
BBX 21 36 3 -1
BITMAP
0FFFC0
0FFFC0
0FFFC0
0FFFC0
000000
000000
000000
000000
000000
F00078
F00078
F00078
F00078
F00078
F00078
F00078
F00078
F00078
F00078
F00078
F00078
F00078
F00078
F00078
F00078
F00078
F00078
F000F8
F800F8
F801F8
F801F8
7E07F8
7FFF78
3FFF78
1FFC78
07F000
ENDCHAR
STARTCHAR 016C
ENCODING 364
SWIDTH 720 0
DWIDTH 36 0
BBX 28 47 4 -1
BITMAP
01C03800
01C03800
01E07800
01FFF000
00FFF000
003FC000
00000000
00000000
00000000
00000000
F80000F0
F80000F0
F80000F0
F80000F0
F80000F0
F80000F0
F80000F0
F80000F0
F80000F0
F80000F0
F80000F0
F80000F0
F80000F0
F80000F0
F80000F0
F80000F0
F80000F0
F80000F0
F80000F0
F80000F0
F80000F0
F80000F0
F80000F0
F80000F0
F80000F0
F80000F0
F80000F0
F80001F0
7C0001F0
7C0003E0
7E0003E0
3F000FC0
1FE03FC0
0FFFFF80
07FFFE00
01FFFC00
007FE000
ENDCHAR
STARTCHAR 016D
ENCODING 365
SWIDTH 560 0
DWIDTH 28 0
BBX 21 38 3 -1
BITMAP
1C01C0
1E01C0
0F03C0
0FDFC0
07FF80
03FF00
00FC00
000000
000000
000000
000000
F00078
F00078
F00078
F00078
F00078
F00078
F00078
F00078
F00078
F00078
F00078
F00078
F00078
F00078
F00078
F00078
F00078
F00078
F000F8
F800F8
F801F8
F801F8
7E07F8
7FFF78
3FFF78
1FFC78
07F000
ENDCHAR
STARTCHAR 016E
ENCODING 366
SWIDTH 720 0
DWIDTH 36 0
BBX 28 48 4 -1
BITMAP
000F8000
001FC000
0038C000
0030E000
0030E000
0038C000
001FC000
000F8000
00000000
00000000
00000000
F80000F0
F80000F0
F80000F0
F80000F0
F80000F0
F80000F0
F80000F0
F80000F0
F80000F0
F80000F0
F80000F0
F80000F0
F80000F0
F80000F0
F80000F0
F80000F0
F80000F0
F80000F0
F80000F0
F80000F0
F80000F0
F80000F0
F80000F0
F80000F0
F80000F0
F80000F0
F80000F0
F80001F0
7C0001F0
7C0003E0
7E0003E0
3F000FC0
1FE03FC0
0FFFFF80
07FFFE00
01FFFC00
007FE000
ENDCHAR
STARTCHAR 016F
ENCODING 367
SWIDTH 560 0
DWIDTH 28 0
BBX 21 38 3 -1
BITMAP
00F800
01FC00
018E00
038600
038600
018E00
01FC00
00F800
000000
000000
000000
F00078
F00078
F00078
F00078
F00078
F00078
F00078
F00078
F00078
F00078
F00078
F00078
F00078
F00078
F00078
F00078
F00078
F00078
F000F8
F800F8
F801F8
F801F8
7E07F8
7FFF78
3FFF78
1FFC78
07F000
ENDCHAR
STARTCHAR 0170
ENCODING 368
SWIDTH 720 0
DWIDTH 36 0
BBX 28 48 4 -1
BITMAP
000FC7E0
000F87C0
001F0F80
001E1F00
003C1E00
00783C00
00707800
00E07000
00000000
00000000
00000000
F80000F0
F80000F0
F80000F0
F80000F0
F80000F0
F80000F0
F80000F0
F80000F0
F80000F0
F80000F0
F80000F0
F80000F0
F80000F0
F80000F0
F80000F0
F80000F0
F80000F0
F80000F0
F80000F0
F80000F0
F80000F0
F80000F0
F80000F0
F80000F0
F80000F0
F80000F0
F80000F0
F80001F0
7C0001F0
7C0003E0
7E0003E0
3F000FC0
1FE03FC0
0FFFFF80
07FFFE00
01FFFC00
007FE000
ENDCHAR
STARTCHAR 0171
ENCODING 369
SWIDTH 560 0
DWIDTH 28 0
BBX 23 38 3 -1
BITMAP
007C3E
00F87C
00F0F8
01E0F0
03C1E0
0383C0
070380
0E0700
000000
000000
000000
F00078
F00078
F00078
F00078
F00078
F00078
F00078
F00078
F00078
F00078
F00078
F00078
F00078
F00078
F00078
F00078
F00078
F00078
F000F8
F800F8
F801F8
F801F8
7E07F8
7FFF78
3FFF78
1FFC78
07F000
ENDCHAR
STARTCHAR 0172
ENCODING 370
SWIDTH 720 0
DWIDTH 36 0
BBX 28 46 4 -10
BITMAP
F80000F0
F80000F0
F80000F0
F80000F0
F80000F0
F80000F0
F80000F0
F80000F0
F80000F0
F80000F0
F80000F0
F80000F0
F80000F0
F80000F0
F80000F0
F80000F0
F80000F0
F80000F0
F80000F0
F80000F0
F80000F0
F80000F0
F80000F0
F80000F0
F80000F0
F80000F0
F80000F0
F80001F0
7C0001F0
7C0003F0
7E0003E0
3F000FE0
1FE03FC0
0FFFFF80
07FFFF00
01FFFE00
003FFC00
00003800
00007000
0000F000
0000E000
0000E000
0000F000
0000F840
00007FC0
00001FC0
ENDCHAR
STARTCHAR 0173
ENCODING 371
SWIDTH 560 0
DWIDTH 28 0
BBX 23 36 3 -10
BITMAP
F00078
F00078
F00078
F00078
F00078
F00078
F00078
F00078
F00078
F00078
F00078
F00078
F00078
F00078
F00078
F00078
F00078
F00078
F000F8
F800F8
F801F8
F801F8
7E07F8
7FFF78
3FFE78
1FFC78
07F030
0000E0
0001C0
0003C0
000380
000380
0003C0
0003E2
0001FE
00007E
ENDCHAR
STARTCHAR 0174
ENCODING 372
SWIDTH 940 0
DWIDTH 47 0
BBX 45 47 1 0
BITMAP
00000F800000
00001F800000
00001FC00000
00003DE00000
000078E00000
000078F00000
0000F0780000
0000E0380000
000000000000
000000000000
000000000000
F8000F8000F8
FC000FC000F8
7C000FC000F8
7C001FC001F8
7C001FE001F0
3E001FE001F0
3E003FE001F0
3E003DE001F0
3E003DF003E0
1F003CF003E0
1F007CF003E0
1F0078F803C0
1F0078F807C0
0F00787807C0
0F80F07807C0
0F80F07C0780
0F80F03C0F80
0781F03C0F80
07C1E03E0F80
07C1E03E0F00
07C1E01E0F00
03C3E01E1F00
03E3C01F1F00
03E3C00F1E00
03E7C00F1E00
01E7800FBE00
01F7800FBE00
01F78007BC00
01FF8007BC00
00FF0007FC00
00FF0003FC00
00FF0003F800
007F0003F800
007E0003F800
007E0001F800
007E0001F000
ENDCHAR
STARTCHAR 0175
ENCODING 373
SWIDTH 720 0
DWIDTH 36 0
BBX 35 37 0 0
BITMAP
0001F00000
0003F80000
0003FC0000
0007BC0000
00071E0000
000F0F0000
001E070000
001C038000
0000000000
0000000000
0000000000
F801F001E0
7801F803E0
7C01F803E0
7C03F803C0
3C03FC03C0
3C03FC07C0
3E03BC0780
3E07BC0780
1E07BE0780
1E079E0F80
1F071E0F00
0F0F1E0F00
0F0F1F1F00
0F0F0F1E00
078E0F1E00
079E0F1E00
079E0FBC00
07DE07BC00
03DC07BC00
03FC07BC00
03FC07F800
01FC03F800
01F803F800
01F803F000
01F801F000
00F801F000
ENDCHAR
STARTCHAR 0176
ENCODING 374
SWIDTH 660 0
DWIDTH 33 0
BBX 32 47 1 0
BITMAP
0003E000
0007E000
0007F000
000FF800
001E7800
001C3C00
00381C00
00780E00
00000000
00000000
00000000
FC00003F
7C00003E
7E00007C
3F0000FC
1F0000F8
1F8001F8
0F8001F0
0FC003E0
07E007E0
03E007C0
03F00F80
01F00F80
00F81F00
00FC3F00
007C3E00
003E7C00
003E7C00
001FF800
000FF000
000FF000
0007E000
0007E000
0003C000
0003C000
0003C000
0003C000
0003C000
0003C000
0003C000
0003C000
0003C000
0003C000
0003C000
0003C000
0003C000
0003C000
ENDCHAR
STARTCHAR 0177
ENCODING 375
SWIDTH 500 0
DWIDTH 25 0
BBX 23 48 1 -11
BITMAP
007C00
00FE00
00FE00
01EF00
03C780
038380
0701C0
0F01E0
000000
000000
000000
F8003E
F8003C
78003C
7C007C
3C0078
3C00F8
3E00F8
1E00F0
1E01F0
1F01E0
0F01E0
0F03E0
0F83C0
0783C0
0787C0
07C780
03C780
03CF00
03EF00
01FF00
01FE00
01FE00
00FE00
00FC00
00FC00
007C00
007800
00F800
00F000
00F000
01F000
01E000
03E000
3FC000
3FC000
3F8000
3E0000
ENDCHAR
STARTCHAR 0178
ENCODING 376
SWIDTH 660 0
DWIDTH 33 0
BBX 32 45 1 0
BITMAP
007E7E00
007E7E00
007E7E00
007E7E00
007E7E00
00000000
00000000
00000000
00000000
FC00003F
7C00003E
7E00007C
3F0000FC
1F0000F8
1F8001F8
0F8001F0
0FC003E0
07E007E0
03E007C0
03F00F80
01F00F80
00F81F00
00FC3F00
007C3E00
003E7C00
003E7C00
001FF800
000FF000
000FF000
0007E000
0007E000
0003C000
0003C000
0003C000
0003C000
0003C000
0003C000
0003C000
0003C000
0003C000
0003C000
0003C000
0003C000
0003C000
0003C000
ENDCHAR
STARTCHAR 0179
ENCODING 377
SWIDTH 620 0
DWIDTH 31 0
BBX 28 47 1 0
BITMAP
0000FC00
0000F800
0001F000
0003E000
0003C000
00078000
000F0000
000E0000
00000000
00000000
00000000
3FFFFFF0
3FFFFFF0
3FFFFFF0
3FFFFFF0
000003F0
000007E0
00000FC0
00000F80
00001F80
00003F00
00007E00
0000FC00
0000FC00
0001F800
0003F000
0007E000
0007C000
000FC000
001F8000
003F0000
007E0000
007C0000
00FC0000
01F80000
03F00000
07E00000
07C00000
0FC00000
1F800000
3F000000
7E000000
7E000000
FFFFFFF0
FFFFFFF0
FFFFFFF0
FFFFFFF0
ENDCHAR
STARTCHAR 017A
ENCODING 378
SWIDTH 500 0
DWIDTH 25 0
BBX 21 37 2 0
BITMAP
000F80
001F00
003E00
003C00
007800
00F000
00E000
01C000
000000
000000
000000
7FFFF0
7FFFF0
7FFFF0
7FFFF0
0003E0
0003E0
0007C0
000F80
001F00
003E00
007C00
007C00
00F800
01F000
03E000
07C000
0F8000
0F8000
1F0000
3E0000
7C0000
F80000
FFFFF8
FFFFF8
FFFFF8
FFFFF8
ENDCHAR
STARTCHAR 017B
ENCODING 379
SWIDTH 620 0
DWIDTH 31 0
BBX 28 45 1 0
BITMAP
000FC000
000FC000
000FC000
000FC000
000FC000
00000000
00000000
00000000
00000000
3FFFFFF0
3FFFFFF0
3FFFFFF0
3FFFFFF0
000003F0
000007E0
00000FC0
00000F80
00001F80
00003F00
00007E00
0000FC00
0000FC00
0001F800
0003F000
0007E000
0007C000
000FC000
001F8000
003F0000
007E0000
007C0000
00FC0000
01F80000
03F00000
07E00000
07C00000
0FC00000
1F800000
3F000000
7E000000
7E000000
FFFFFFF0
FFFFFFF0
FFFFFFF0
FFFFFFF0
ENDCHAR
STARTCHAR 017C
ENCODING 380
SWIDTH 500 0
DWIDTH 25 0
BBX 21 36 2 0
BITMAP
00F800
00F800
00F800
00F800
00F800
000000
000000
000000
000000
000000
7FFFF0
7FFFF0
7FFFF0
7FFFF0
0003E0
0003E0
0007C0
000F80
001F00
003E00
007C00
007C00
00F800
01F000
03E000
07C000
0F8000
0F8000
1F0000
3E0000
7C0000
F80000
FFFFF8
FFFFF8
FFFFF8
FFFFF8
ENDCHAR
STARTCHAR 017D
ENCODING 381
SWIDTH 620 0
DWIDTH 31 0
BBX 28 47 1 0
BITMAP
00E01C00
00F03800
00787800
0038F000
003CF000
001FE000
000FC000
000FC000
00000000
00000000
00000000
3FFFFFF0
3FFFFFF0
3FFFFFF0
3FFFFFF0
000003F0
000007E0
00000FC0
00000F80
00001F80
00003F00
00007E00
0000FC00
0000FC00
0001F800
0003F000
0007E000
0007C000
000FC000
001F8000
003F0000
007E0000
007C0000
00FC0000
01F80000
03F00000
07E00000
07C00000
0FC00000
1F800000
3F000000
7E000000
7E000000
FFFFFFF0
FFFFFFF0
FFFFFFF0
FFFFFFF0
ENDCHAR
STARTCHAR 017E
ENCODING 382
SWIDTH 500 0
DWIDTH 25 0
BBX 21 37 2 0
BITMAP
0E0380
0F0780
078F00
038E00
03DE00
01FC00
01FC00
00F800
000000
000000
000000
7FFFF0
7FFFF0
7FFFF0
7FFFF0
0003E0
0003E0
0007C0
000F80
001F00
003E00
007C00
007C00
00F800
01F000
03E000
07C000
0F8000
0F8000
1F0000
3E0000
7C0000
F80000
FFFFF8
FFFFF8
FFFFF8
FFFFF8
ENDCHAR
STARTCHAR 017F
ENCODING 383
SWIDTH 220 0
DWIDTH 11 0
BBX 13 37 -1 0
BITMAP
01F8
03F8
07F8
0FF8
0F80
0F00
0F00
0F00
0F00
0F00
0F00
FF00
FF00
FF00
0F00
0F00
0F00
0F00
0F00
0F00
0F00
0F00
0F00
0F00
0F00
0F00
0F00
0F00
0F00
0F00
0F00
0F00
0F00
0F00
0F00
0F00
0F00
ENDCHAR
STARTCHAR 0192
ENCODING 402
SWIDTH 560 0
DWIDTH 28 0
BBX 26 48 1 -11
BITMAP
00000F80
00003FC0
0000FFC0
0001FF80
0001F080
0003E000
0003E000
0003C000
0007C000
0007C000
00078000
00078000
00078000
000F8000
03FFFC00
03FFFC00
03FFFC00
03FFFC00
001F0000
001F0000
001E0000
001E0000
001E0000
001E0000
003E0000
003E0000
003C0000
003C0000
003C0000
007C0000
007C0000
00780000
00780000
00780000
00F80000
00F80000
00F00000
00F00000
00F00000
00F00000
01F00000
01E00000
03E00000
87C00000
FFC00000
FF800000
FE000000
F8000000
ENDCHAR
STARTCHAR 01FA
ENCODING 506
SWIDTH 660 0
DWIDTH 33 0
BBX 31 53 1 0
BITMAP
000FC000
000F8000
001F0000
003E0000
003C0000
00780000
00F7C000
000FE000
000C7000
001C3000
001C3000
000C7000
000FE000
0007C000
00000000
00000000
00000000
0007E000
000FE000
000FF000
000FF000
001FF000
001FF800
003EF800
003E7C00
003C7C00
007C7C00
007C3E00
00783E00
00F83E00
00F81F00
00F01F00
01F01F00
01E00F80
01E00F80
03E00F80
03C007C0
07C007C0
07FFFFE0
07FFFFE0
0FFFFFE0
0FFFFFF0
0F0001F0
1F0001F0
1F0000F8
1E0000F8
3E0000F8
3E00007C
7C00007C
7C00007C
7C00003E
F800003E
F800003E
ENDCHAR
STARTCHAR 01FB
ENCODING 507
SWIDTH 560 0
DWIDTH 28 0
BBX 25 46 2 -1
BITMAP
007E0000
007C0000
00F80000
01F00000
01E00000
03C00000
07800000
003C0000
007E0000
00E70000
00C30000
00C30000
00C30000
00E70000
007E0000
003C0000
00000000
00000000
00FF0000
07FFE000
0FFFF000
1FFFF800
3F01F800
3E007800
7C007C00
7C007C00
00007C00
00007C00
00007C00
0003FC00
00FFFC00
0FFFFC00
1FFF7C00
3FC07C00
7E007C00
78007C00
F8007C00
F0007C00
F0007C00
F800FC00
F801FC00
7C03FC00
7FFFBF80
3FFF3F80
1FFC3F80
07F01F80
ENDCHAR
STARTCHAR 01FC
ENCODING 508
SWIDTH 1000 0
DWIDTH 50 0
BBX 47 47 1 0
BITMAP
00000003E000
00000007C000
0000000F8000
0000000F0000
0000001E0000
0000003C0000
000000380000
000000700000
000000000000
000000000000
000000000000
0003FFFFFFFC
0003FFFFFFFC
0007FFFFFFFC
0007FFFFFFFC
000783E00000
000F83E00000
000F03E00000
001F03E00000
001F03E00000
001E03E00000
003E03E00000
003C03E00000
007C03E00000
007C03E00000
00F803E00000
00F803E00000
00F003FFFFF8
01F003FFFFF8
01F003FFFFF8
03E003FFFFF8
03E003E00000
03FFFFE00000
07FFFFE00000
07FFFFE00000
0FFFFFE00000
0F8003E00000
1F0003E00000
1F0003E00000
1F0003E00000
3E0003E00000
3E0003E00000
7C0003E00000
7C0003FFFFFE
7C0003FFFFFE
F80003FFFFFE
F80003FFFFFE
ENDCHAR
STARTCHAR 01FD
ENCODING 509
SWIDTH 880 0
DWIDTH 44 0
BBX 40 38 2 -1
BITMAP
000007C000
00000F8000
00000F0000
00001E0000
00003C0000
0000380000
0000700000
0000000000
0000000000
0000000000
01FE007F00
07FFC1FFE0
1FFFE3FFF0
3FFFF7FFF8
3F01FFC0FC
7C00FF007E
7C007E003E
78007C001E
78007C001F
00007C001F
000078000F
0001F8000F
00FFFFFFFF
0FFFFFFFFF
1FFF7FFFFF
7FE0780000
7E00780000
F800780000
F000780000
F0007C001F
F0007C001E
F000FE003E
F801FF007C
FC07DFC0FC
7FFF8FFFF8
3FFF07FFF0
1FFC01FFE0
07E0007F00
ENDCHAR
STARTCHAR 01FE
ENCODING 510
SWIDTH 780 0
DWIDTH 39 0
BBX 35 48 2 -1
BITMAP
00007E0000
00007C0000
0000F80000
0001F00000
0001E00000
0003C00000
0007800000
0007000000
0000000000
0000000000
0007FC00E0
003FFF81E0
00FFFFE3C0
01FFFFF780
07FC07FF00
0FE001FE00
0FC0007E00
1F80003F00
3F00007F00
3E0000EF80
7C0001EF80
7C0003C7C0
78000787C0
F8000F03C0
F8001E03E0
F8003C03E0
F8007803E0
F000F003E0
F000E003E0
F001C003E0
F0038003E0
F8070003E0
F80E0003E0
F81E0003E0
F83C0003C0
7C780007C0
7CF00007C0
7DE0000F80
3FC0000F80
3F80001F00
1F80003F00
0FC0007E00
1FE001FC00
3FFC07F800
73FFFFF000
E0FFFFE000
E03FFF8000
4007FC0000
ENDCHAR
STARTCHAR 01FF
ENCODING 511
SWIDTH 620 0
DWIDTH 31 0
BBX 25 39 1 -1
BITMAP
0007E000
0007C000
000F8000
001F0000
001E0000
003C0000
00780000
00700000
00000000
00000000
00000000
007F0100
01FFE180
07FFF300
0FFFFF00
1FC0FE00
1F007E00
3E003E00
3E007F00
3C00FF00
7C01CF00
7C018F00
78030F00
78070F00
780E0F80
781C0F80
78380F00
78700F00
7CE00F00
7DC00F00
7F801F00
3F001F00
3F003E00
1F007E00
1FC0FC00
3FFFF800
77FFF000
E1FFE000
407F0000
ENDCHAR
STARTCHAR 0218
ENCODING 536
SWIDTH 660 0
DWIDTH 33 0
BBX 29 51 2 -14
BITMAP
003FE000
01FFFC00
03FFFF00
0FFFFF80
1FC03FC0
1F8007C0
3E0003E0
3E0003E0
3C0001F0
3C0001F0
3C0001F0
3C000000
3E000000
3F000000
3FC00000
1FF80000
0FFF0000
07FFF000
01FFFE00
003FFF80
0003FFC0
00003FE0
000007F0
000003F0
000001F8
F80000F8
F80000F8
780000F8
780000F8
7C0000F8
7C0000F0
3E0001F0
3F8003E0
1FE01FE0
0FFFFFC0
07FFFF80
01FFFE00
003FF000
00000000
00000000
0007C000
0007C000
0007C000
0007C000
0007C000
0001C000
00018000
00018000
00018000
00070000
00060000
ENDCHAR
STARTCHAR 0219
ENCODING 537
SWIDTH 500 0
DWIDTH 25 0
BBX 21 41 2 -14
BITMAP
01FC00
0FFF80
1FFFC0
3FFFE0
7E07E0
7C01F0
F801F0
F801F0
F80000
F80000
7E0000
7FC000
3FFC00
1FFF80
07FFE0
007FF0
0007F0
0001F8
0000F8
F00078
F00078
F800F8
F800F0
7E03F0
7FFFE0
3FFFC0
1FFF80
03FC00
000000
000000
00F800
00F800
00F800
00F800
00F800
001800
001800
003800
003000
00F000
00C000
ENDCHAR
STARTCHAR 021A
ENCODING 538
SWIDTH 620 0
DWIDTH 31 0
BBX 29 50 1 -14
BITMAP
FFFFFFF8
FFFFFFF8
FFFFFFF8
FFFFFFF8
000F8000
000F8000
000F8000
000F8000
000F8000
000F8000
000F8000
000F8000
000F8000
000F8000
000F8000
000F8000
000F8000
000F8000
000F8000
000F8000
000F8000
000F8000
000F8000
000F8000
000F8000
000F8000
000F8000
000F8000
000F8000
000F8000
000F8000
000F8000
000F8000
000F8000
000F8000
000F8000
00000000
00000000
00000000
000F8000
000F8000
000F8000
000F8000
000F8000
00018000
00018000
00018000
00030000
000F0000
000E0000
ENDCHAR
STARTCHAR 021B
ENCODING 539
SWIDTH 280 0
DWIDTH 14 0
BBX 12 47 1 -14
BITMAP
1E00
1E00
1E00
1E00
1E00
1E00
1E00
FFF0
FFF0
FFF0
1E00
1E00
1E00
1E00
1E00
1E00
1E00
1E00
1E00
1E00
1E00
1E00
1E00
1E00
1E00
1E00
1E00
1E00
1E00
1F00
1FF0
0FF0
0FF0
07F0
0000
0000
07C0
07C0
07C0
07C0
07C0
01C0
0180
0180
0180
0700
0600
ENDCHAR
STARTCHAR 02C6
ENCODING 710
SWIDTH 340 0
DWIDTH 17 0
BBX 14 8 1 29
BITMAP
0FC0
0FE0
1FE0
1CF0
3C70
7878
703C
E01C
ENDCHAR
STARTCHAR 02C7
ENCODING 711
SWIDTH 340 0
DWIDTH 17 0
BBX 14 8 1 29
BITMAP
F01C
7038
3878
3CF0
1FE0
1FE0
0FC0
07C0
ENDCHAR
STARTCHAR 02C9
ENCODING 713
SWIDTH 340 0
DWIDTH 17 0
BBX 14 4 1 31
BITMAP
FFFC
FFFC
FFFC
FFFC
ENDCHAR
STARTCHAR 02D8
ENCODING 728
SWIDTH 340 0
DWIDTH 17 0
BBX 15 7 1 30
BITMAP
E00E
E01E
F01C
FEFC
7FF8
3FF0
0FC0
ENDCHAR
STARTCHAR 02D9
ENCODING 729
SWIDTH 340 0
DWIDTH 17 0
BBX 5 5 6 31
BITMAP
F8
F8
F8
F8
F8
ENDCHAR
STARTCHAR 02DA
ENCODING 730
SWIDTH 340 0
DWIDTH 17 0
BBX 9 9 4 29
BITMAP
3C00
7F00
E700
C380
C180
C380
E700
7F00
3C00
ENDCHAR
STARTCHAR 02DB
ENCODING 731
SWIDTH 340 0
DWIDTH 17 0
BBX 10 10 3 -10
BITMAP
0E00
3C00
7800
F000
F000
F000
F000
F800
7FC0
1FC0
ENDCHAR
STARTCHAR 02DC
ENCODING 732
SWIDTH 340 0
DWIDTH 17 0
BBX 16 5 0 31
BITMAP
1E07
3FEF
7FFE
73FE
E07C
ENDCHAR
STARTCHAR 02DD
ENCODING 733
SWIDTH 340 0
DWIDTH 17 0
BBX 19 8 -2 29
BITMAP
07C7E0
0F87C0
1F0F80
1E0F00
3C1E00
383C00
703800
E07000
ENDCHAR
STARTCHAR 0384
ENCODING 900
SWIDTH 340 0
DWIDTH 17 0
BBX 4 10 6 29
BITMAP
F0
F0
F0
F0
F0
70
70
70
60
60
ENDCHAR
STARTCHAR 0385
ENCODING 901
SWIDTH 340 0
DWIDTH 17 0
BBX 13 13 2 30
BITMAP
0F00
0F00
0F00
0F00
0F00
0F00
0700
0700
F7F8
F6F8
F0F8
F0F8
F0F8
ENDCHAR
STARTCHAR 0386
ENCODING 902
SWIDTH 660 0
DWIDTH 33 0
BBX 31 36 1 0
BITMAP
3C07E000
3C0FE000
3C0FF000
3C0FF000
3C1FF000
3C1FF800
383EF800
183E7C00
183C7C00
187C7C00
007C3E00
00783E00
00F83E00
00F81F00
00F01F00
01F01F00
01E00F80
01E00F80
03E00F80
03C007C0
07C007C0
07FFFFE0
07FFFFE0
0FFFFFE0
0FFFFFF0
0F0001F0
1F0001F0
1F0000F8
1E0000F8
3E0000F8
3E00007C
7C00007C
7C00007C
7C00003E
F800003E
F800003E
ENDCHAR
STARTCHAR 0387
ENCODING 903
SWIDTH 280 0
DWIDTH 14 0
BBX 5 5 6 11
BITMAP
F8
F8
F8
F8
F8
ENDCHAR
STARTCHAR 0388
ENCODING 904
SWIDTH 780 0
DWIDTH 39 0
BBX 33 36 1 0
BITMAP
F1FFFFFF00
F1FFFFFF00
F1FFFFFF00
F1FFFFFF00
F1F0000000
71F0000000
71F0000000
71F0000000
61F0000000
21F0000000
01F0000000
01F0000000
01F0000000
01F0000000
01F0000000
01F0000000
01FFFFFF00
01FFFFFF00
01FFFFFF00
01FFFFFF00
01F0000000
01F0000000
01F0000000
01F0000000
01F0000000
01F0000000
01F0000000
01F0000000
01F0000000
01F0000000
01F0000000
01F0000000
01FFFFFF80
01FFFFFF80
01FFFFFF80
01FFFFFF80
ENDCHAR
STARTCHAR 0389
ENCODING 905
SWIDTH 840 0
DWIDTH 42 0
BBX 35 36 1 0
BITMAP
F1E00003E0
F1E00003E0
F1E00003E0
F1E00003E0
F1E00003E0
F1E00003E0
F1E00003E0
61E00003E0
61E00003E0
61E00003E0
01E00003E0
01E00003E0
01E00003E0
01E00003E0
01E00003E0
01E00003E0
01FFFFFFE0
01FFFFFFE0
01FFFFFFE0
01FFFFFFE0
01F00003E0
01F00003E0
01F00003E0
01F00003E0
01F00003E0
01F00003E0
01F00003E0
01F00003E0
01F00003E0
01F00003E0
01F00003E0
01F00003E0
01F00003E0
01F00003E0
01F00003E0
01F00003E0
ENDCHAR
STARTCHAR 038A
ENCODING 906
SWIDTH 380 0
DWIDTH 19 0
BBX 12 36 1 0
BITMAP
F1F0
F1F0
F1F0
F1F0
F1F0
71F0
71F0
71F0
61F0
21F0
01F0
01F0
01F0
01F0
01F0
01F0
01F0
01F0
01F0
01F0
01F0
01F0
01F0
01F0
01F0
01F0
01F0
01F0
01F0
01F0
01F0
01F0
01F0
01F0
01F0
01F0
ENDCHAR
STARTCHAR 038C
ENCODING 908
SWIDTH 780 0
DWIDTH 39 0
BBX 38 38 -1 -1
BITMAP
0000FF8000
F007FFF000
F01FFFFC00
F03FFFFE00
F0FF80FF00
F1FC003F80
F1F8000FC0
E3F00007E0
67E00003E0
67C00001F0
6F800001F0
0F800000F8
0F000000F8
1F00000078
1F0000007C
1F0000007C
1F0000007C
1E0000007C
1E0000007C
1E0000007C
1E0000007C
1F0000007C
1F0000007C
1F0000007C
1F00000078
0F800000F8
0F800000F8
0F800001F0
07C00001F0
07E00003E0
03F00007E0
01F8000FC0
01FC003F80
00FF80FF00
007FFFFE00
001FFFFC00
0007FFF000
0000FF8000
ENDCHAR
STARTCHAR 038E
ENCODING 910
SWIDTH 860 0
DWIDTH 43 0
BBX 37 36 2 0
BITMAP
F3E00000F8
F3F00001F8
F1F80001F0
F1F80003E0
F0FC0007E0
E07C0007C0
E07E000FC0
E03F000F80
601F001F00
401F803F00
000F803E00
0007C07C00
0007E07C00
0003E0F800
0001F1F800
0001F1F000
0000FBE000
0000FFE000
00007FC000
00003F8000
00003F8000
00001F0000
00001F0000
00001F0000
00001F0000
00001F0000
00001F0000
00001F0000
00001F0000
00001F0000
00001F0000
00001F0000
00001F0000
00001F0000
00001F0000
00001F0000
ENDCHAR
STARTCHAR 038F
ENCODING 911
SWIDTH 760 0
DWIDTH 38 0
BBX 37 37 -1 0
BITMAP
0000FF0000
F007FFE000
F01FFFF800
F07FFFFC00
F0FF01FF00
F1FC003F80
F3F0001F80
F3E0000FC0
67C00007E0
67C00003E0
6F800003E0
0F800001F0
0F800001F0
1F000001F0
1F000001F0
1F000000F0
1F000000F0
1F000000F0
1F000000F0
1F000000F0
1F000001F0
0F000001F0
0F800001F0
0F800001E0
0F800003E0
07C00003E0
07C00003C0
03E00007C0
01E0000F80
01F0001F00
0078003E00
003E007C00
001F01F000
3FFF81FFF8
3FFF81FFF8
3FFF81FFF8
3FFF81FFF8
ENDCHAR
STARTCHAR 0390
ENCODING 912
SWIDTH 220 0
DWIDTH 11 0
BBX 13 43 -1 0
BITMAP
0F80
0F80
0F80
0F80
0F80
0700
0700
0700
FF78
FA78
F878
F878
F878
0000
0000
0000
0000
0F80
0F80
0F80
0F80
0F80
0F80
0F80
0F80
0F80
0F80
0F80
0F80
0F80
0F80
0F80
0F80
0F80
0F80
0F80
0F80
0F80
0F80
0F80
0F80
0F80
0F80
ENDCHAR
STARTCHAR 0391
ENCODING 913
SWIDTH 660 0
DWIDTH 33 0
BBX 31 36 1 0
BITMAP
0007E000
000FE000
000FF000
000FF000
001FF000
001FF800
003EF800
003E7C00
003C7C00
007C7C00
007C3E00
00783E00
00F83E00
00F81F00
00F01F00
01F01F00
01E00F80
01E00F80
03E00F80
03C007C0
07C007C0
07FFFFE0
07FFFFE0
0FFFFFE0
0FFFFFF0
0F0001F0
1F0001F0
1F0000F8
1E0000F8
3E0000F8
3E00007C
7C00007C
7C00007C
7C00003E
F800003E
F800003E
ENDCHAR
STARTCHAR 0392
ENCODING 914
SWIDTH 660 0
DWIDTH 33 0
BBX 27 36 4 0
BITMAP
FFFFE000
FFFFF800
FFFFFE00
FFFFFF00
F8007F00
F8001F80
F8000F80
F8000F80
F80007C0
F80007C0
F80007C0
F8000780
F8000F80
F8000F80
F8001F00
F8007E00
FFFFFC00
FFFFF800
FFFFFE00
FFFFFF00
F8001F80
F80007C0
F80003E0
F80003E0
F80003E0
F80003E0
F80003E0
F80003E0
F80003E0
F80003E0
F80007C0
F8001FC0
FFFFFF80
FFFFFF00
FFFFFC00
FFFFF000
ENDCHAR
STARTCHAR 0393
ENCODING 915
SWIDTH 560 0
DWIDTH 28 0
BBX 23 36 4 0
BITMAP
FFFFFE
FFFFFE
FFFFFE
FFFFFE
F80000
F80000
F80000
F80000
F80000
F80000
F80000
F80000
F80000
F80000
F80000
F80000
F80000
F80000
F80000
F80000
F80000
F80000
F80000
F80000
F80000
F80000
F80000
F80000
F80000
F80000
F80000
F80000
F80000
F80000
F80000
F80000
ENDCHAR
STARTCHAR 0394
ENCODING 916
SWIDTH 660 0
DWIDTH 33 0
BBX 34 36 0 0
BITMAP
0003E00000
0007F00000
0007F00000
0007F80000
000FF80000
000FF80000
001F7C0000
001F7C0000
001E3E0000
003E3E0000
003E1E0000
007C1F0000
007C1F0000
00780F8000
00F80F8000
00F807C000
01F007C000
01F007C000
01E003E000
03E003E000
03E001F000
07C001F000
07C001F000
0F8000F800
0F8000F800
0F80007C00
1F00007C00
1F00007C00
3E00003E00
3E00003E00
3E00001F00
7C00001F00
7FFFFFFF80
FFFFFFFF80
FFFFFFFF80
FFFFFFFFC0
ENDCHAR
STARTCHAR 0395
ENCODING 917
SWIDTH 660 0
DWIDTH 33 0
BBX 26 36 5 0
BITMAP
FFFFFF80
FFFFFF80
FFFFFF80
FFFFFF80
F0000000
F0000000
F0000000
F0000000
F0000000
F0000000
F0000000
F0000000
F0000000
F0000000
F0000000
F0000000
FFFFFF00
FFFFFF00
FFFFFF00
FFFFFF00
F0000000
F0000000
F0000000
F0000000
F0000000
F0000000
F0000000
F0000000
F0000000
F0000000
F0000000
F0000000
FFFFFFC0
FFFFFFC0
FFFFFFC0
FFFFFFC0
ENDCHAR
STARTCHAR 0396
ENCODING 918
SWIDTH 620 0
DWIDTH 31 0
BBX 28 36 1 0
BITMAP
3FFFFFF0
3FFFFFF0
3FFFFFF0
3FFFFFF0
000003F0
000007E0
00000FC0
00000F80
00001F80
00003F00
00007E00
0000FC00
0000FC00
0001F800
0003F000
0007E000
0007C000
000FC000
001F8000
003F0000
007E0000
007C0000
00FC0000
01F80000
03F00000
07E00000
07C00000
0FC00000
1F800000
3F000000
7E000000
7E000000
FFFFFFF0
FFFFFFF0
FFFFFFF0
FFFFFFF0
ENDCHAR
STARTCHAR 0397
ENCODING 919
SWIDTH 720 0
DWIDTH 36 0
BBX 28 36 4 0
BITMAP
F80000F0
F80000F0
F80000F0
F80000F0
F80000F0
F80000F0
F80000F0
F80000F0
F80000F0
F80000F0
F80000F0
F80000F0
F80000F0
F80000F0
F80000F0
F80000F0
FFFFFFF0
FFFFFFF0
FFFFFFF0
FFFFFFF0
F80000F0
F80000F0
F80000F0
F80000F0
F80000F0
F80000F0
F80000F0
F80000F0
F80000F0
F80000F0
F80000F0
F80000F0
F80000F0
F80000F0
F80000F0
F80000F0
ENDCHAR
STARTCHAR 0398
ENCODING 920
SWIDTH 780 0
DWIDTH 39 0
BBX 35 38 2 -1
BITMAP
0007FC0000
003FFF8000
00FFFFE000
01FFFFF000
03FC07FC00
07E001FE00
0FC0007E00
1F80003F00
3F00001F80
3E00000F80
7C00000FC0
7C000007C0
7C000007C0
F8000003C0
F8000003E0
F8000003E0
F8000003E0
F83FFF83E0
F83FFF83E0
F83FFF83E0
F83FFF83E0
F8000003E0
F8000003E0
F8000003E0
F8000003C0
7C000007C0
7C000007C0
7E00000F80
3E00000F80
3F00001F00
1F80003F00
0FC0007E00
0FF001FC00
07FC07F800
01FFFFF000
00FFFFE000
003FFF8000
0007FC0000
ENDCHAR
STARTCHAR 0399
ENCODING 921
SWIDTH 280 0
DWIDTH 14 0
BBX 5 36 5 0
BITMAP
F8
F8
F8
F8
F8
F8
F8
F8
F8
F8
F8
F8
F8
F8
F8
F8
F8
F8
F8
F8
F8
F8
F8
F8
F8
F8
F8
F8
F8
F8
F8
F8
F8
F8
F8
F8
ENDCHAR
STARTCHAR 039A
ENCODING 922
SWIDTH 660 0
DWIDTH 33 0
BBX 29 36 4 0
BITMAP
F80003F0
F80007E0
F8000FC0
F8001F80
F8003F00
F8007E00
F800FC00
F801F800
F803F000
F807E000
F80FC000
F81F8000
F83F0000
F87E0000
F8FC0000
F9FC0000
FBFE0000
FFFF0000
FFDF8000
FF8F8000
FF07C000
FE07E000
FC03E000
F801F000
F801F800
F800FC00
F8007C00
F8007E00
F8003F00
F8001F00
F8000F80
F8000FC0
F80007C0
F80003E0
F80003F0
F80001F8
ENDCHAR
STARTCHAR 039B
ENCODING 923
SWIDTH 660 0
DWIDTH 33 0
BBX 31 36 1 0
BITMAP
000FE000
000FE000
000FF000
001FF000
001FF000
001EF800
003EF800
003E7800
003C7C00
007C7C00
007C3E00
00783E00
00F83E00
00F81F00
01F01F00
01F01F00
01F00F80
03E00F80
03E00F80
03E007C0
07C007C0
07C007C0
07C003E0
0F8003E0
0F8003F0
0F8001F0
1F0001F0
1F0001F8
3F0000F8
3E0000F8
3E0000FC
7E00007C
7C00007C
7C00003E
FC00003E
F800003E
ENDCHAR
STARTCHAR 039C
ENCODING 924
SWIDTH 840 0
DWIDTH 42 0
BBX 34 36 4 0
BITMAP
FC00001FC0
FE00001FC0
FE00001FC0
FE00003FC0
FF00003FC0
FF00003FC0
FF00007BC0
F780007BC0
F780007BC0
F78000F3C0
F3C000F3C0
F3C000F3C0
F3E001E3C0
F1E001E3C0
F1E001E3C0
F1F003C3C0
F0F003C3C0
F0F003C3C0
F0F80783C0
F0780783C0
F0780783C0
F07C0F03C0
F03C0F03C0
F03C0F03C0
F01E1E03C0
F01E1E03C0
F01E1E03C0
F00F3C03C0
F00F3C03C0
F00F3C03C0
F007F803C0
F007F803C0
F007F803C0
F003F003C0
F003F003C0
F003F003C0
ENDCHAR
STARTCHAR 039D
ENCODING 925
SWIDTH 720 0
DWIDTH 36 0
BBX 28 36 4 0
BITMAP
F80000F0
FC0000F0
FC0000F0
FE0000F0
FF0000F0
FF0000F0
FF8000F0
F7C000F0
F7C000F0
F3E000F0
F1F000F0
F1F000F0
F0F800F0
F0FC00F0
F07C00F0
F03E00F0
F03F00F0
F01F00F0
F00F80F0
F00F80F0
F007C0F0
F003E0F0
F003E0F0
F001F0F0
F000F8F0
F000F8F0
F0007CF0
F0003EF0
F0003EF0
F0001FF0
F0001FF0
F0000FF0
F00007F0
F00007F0
F00003F0
F00001F0
ENDCHAR
STARTCHAR 039E
ENCODING 926
SWIDTH 660 0
DWIDTH 33 0
BBX 26 36 3 0
BITMAP
FFFFFFC0
FFFFFFC0
FFFFFFC0
FFFFFFC0
00000000
00000000
00000000
00000000
00000000
00000000
00000000
00000000
00000000
00000000
00000000
00000000
3FFFFF80
3FFFFF80
3FFFFF80
3FFFFF80
00000000
00000000
00000000
00000000
00000000
00000000
00000000
00000000
00000000
00000000
00000000
00000000
FFFFFFC0
FFFFFFC0
FFFFFFC0
FFFFFFC0
ENDCHAR
STARTCHAR 039F
ENCODING 927
SWIDTH 780 0
DWIDTH 39 0
BBX 35 38 2 -1
BITMAP
0007FC0000
003FFF8000
00FFFFE000
01FFFFF000
03FC07FC00
07E001FE00
0FC0007E00
1F80003F00
3F00001F80
3E00000F80
3E00000FC0
7C000007C0
7C000007C0
78000003E0
F8000003E0
F8000003E0
F8000003E0
F8000003E0
F8000003E0
F8000003E0
F8000003E0
F8000003E0
F8000003E0
F8000003E0
78000003E0
7C000007C0
7C000007C0
7E000007C0
3E00000F80
3F00001F80
1F80003F00
0FC0007E00
07F000FC00
07FC07FC00
01FFFFF000
00FFFFE000
003FFF8000
0007FC0000
ENDCHAR
STARTCHAR 03A0
ENCODING 928
SWIDTH 720 0
DWIDTH 36 0
BBX 28 36 4 0
BITMAP
FFFFFFF0
FFFFFFF0
FFFFFFF0
FFFFFFF0
F80001F0
F80001F0
F80001F0
F80001F0
F80001F0
F80001F0
F80001F0
F80001F0
F80001F0
F80001F0
F80001F0
F80001F0
F80001F0
F80001F0
F80001F0
F80001F0
F80001F0
F80001F0
F80001F0
F80001F0
F80001F0
F80001F0
F80001F0
F80001F0
F80001F0
F80001F0
F80001F0
F80001F0
F80001F0
F80001F0
F80001F0
F80001F0
ENDCHAR
STARTCHAR 03A1
ENCODING 929
SWIDTH 660 0
DWIDTH 33 0
BBX 26 36 5 0
BITMAP
FFFFE000
FFFFF800
FFFFFE00
FFFFFF00
F000FF00
F0001F80
F0000F80
F0000FC0
F00007C0
F00007C0
F00007C0
F00007C0
F00007C0
F0000FC0
F0000F80
F0001F80
F0007F00
FFFFFF00
FFFFFE00
FFFFF800
FFFFE000
F0000000
F0000000
F0000000
F0000000
F0000000
F0000000
F0000000
F0000000
F0000000
F0000000
F0000000
F0000000
F0000000
F0000000
F0000000
ENDCHAR
STARTCHAR 03A3
ENCODING 931
SWIDTH 620 0
DWIDTH 31 0
BBX 27 36 2 0
BITMAP
FFFFFFC0
FFFFFFC0
FFFFFFC0
FFFFFFC0
7E000000
3F000000
1F800000
0FC00000
07E00000
03F00000
01F80000
00FC0000
007E0000
003F0000
001F8000
000FC000
0007E000
0003F000
0007E000
0007C000
000F8000
001F0000
003E0000
007C0000
00F80000
01F00000
03E00000
07C00000
0F800000
1F000000
3E000000
7E000000
FFFFFFE0
FFFFFFE0
FFFFFFE0
FFFFFFE0
ENDCHAR
STARTCHAR 03A4
ENCODING 932
SWIDTH 620 0
DWIDTH 31 0
BBX 29 36 1 0
BITMAP
FFFFFFF8
FFFFFFF8
FFFFFFF8
FFFFFFF8
000F8000
000F8000
000F8000
000F8000
000F8000
000F8000
000F8000
000F8000
000F8000
000F8000
000F8000
000F8000
000F8000
000F8000
000F8000
000F8000
000F8000
000F8000
000F8000
000F8000
000F8000
000F8000
000F8000
000F8000
000F8000
000F8000
000F8000
000F8000
000F8000
000F8000
000F8000
000F8000
ENDCHAR
STARTCHAR 03A5
ENCODING 933
SWIDTH 660 0
DWIDTH 33 0
BBX 32 36 1 0
BITMAP
FC00003F
7C00003E
7E00007C
3F0000FC
1F0000F8
1F8001F8
0F8001F0
0FC003E0
07E007E0
03E007C0
03F00F80
01F00F80
00F81F00
00FC3F00
007C3E00
003E7C00
003E7C00
001FF800
000FF000
000FF000
0007E000
0007E000
0003C000
0003C000
0003C000
0003C000
0003C000
0003C000
0003C000
0003C000
0003C000
0003C000
0003C000
0003C000
0003C000
0003C000
ENDCHAR
STARTCHAR 03A6
ENCODING 934
SWIDTH 800 0
DWIDTH 40 0
BBX 32 38 4 -1
BITMAP
0003C000
0003C000
0003C000
0003C000
0003C000
007FFE00
01FFFFC0
07FFFFE0
0FFFFFF0
1FC3C3F8
3F03C1FC
3E03C07C
7C03C03E
7C03C03E
F803C01F
F803C01F
F803C01F
F803C01F
F803C01F
F803C01F
F803C01F
F803C01F
F803C01F
F803C01E
7C03C03E
7C03C07E
3E03C07C
3F83C1FC
1FC3C3F8
0FFFFFF0
07FFFFE0
01FFFF80
007FFE00
0003C000
0003C000
0003C000
0003C000
0003C000
ENDCHAR
STARTCHAR 03A7
ENCODING 935
SWIDTH 660 0
DWIDTH 33 0
BBX 31 36 1 0
BITMAP
7E00007E
3F0000FC
1F0000F8
1F8001F0
0FC003F0
07C003E0
07E007C0
03F00FC0
01F00F80
01F81F00
00FC3E00
007C3E00
003E7C00
003EF800
001FF800
000FF000
000FE000
0007E000
000FE000
000FF000
001FF800
003EF800
003E7C00
007C7E00
00F83E00
01F81F00
01F01F80
03E00FC0
07E007C0
07C007E0
0F8003F0
1F8001F0
1F0001F8
3E0000FC
7E00007C
FC00007E
ENDCHAR
STARTCHAR 03A8
ENCODING 936
SWIDTH 840 0
DWIDTH 42 0
BBX 35 36 3 0
BITMAP
F800F001E0
F800F001E0
F800F001E0
F800F001E0
F800F001E0
F800F001E0
F800F001E0
F800F001E0
F800F001E0
F800F001E0
F800F001E0
F800F001E0
F800F001E0
F800F001E0
F800F001E0
F800F001E0
F800F001E0
7800F001E0
7800F003E0
7C00F003E0
7C00F003C0
3E00F007C0
3F00F00FC0
1F80F01F80
1FF0F0FF00
0FFFFFFE00
03FFFFFC00
00FFFFF000
003FFF8000
0000F00000
0000F00000
0000F00000
0000F00000
0000F00000
0000F00000
0000F00000
ENDCHAR
STARTCHAR 03A9
ENCODING 937
SWIDTH 740 0
DWIDTH 37 0
BBX 35 37 1 0
BITMAP
0003FC0000
001FFF8000
007FFFE000
01FFFFF000
03FC07FC00
07F000FC00
0FC0007E00
0F80003F00
1F00001F00
1F00000F80
3E00000F80
3E000007C0
3C000007C0
7C000007C0
7C000007C0
7C000003C0
7C000003C0
7C000003C0
7C000003C0
7C000003C0
7C000007C0
3C000007C0
3C000007C0
3E00000780
3E00000F80
1F00000F80
1F00000F00
0F80001F00
0780003E00
07C0007C00
03E000F800
00F801F000
007C07C000
FFFE07FFE0
FFFE07FFE0
FFFE07FFE0
FFFE07FFE0
ENDCHAR
STARTCHAR 03AA
ENCODING 938
SWIDTH 280 0
DWIDTH 14 0
BBX 14 45 0 0
BITMAP
FCFC
FCFC
FCFC
FCFC
FCFC
0000
0000
0000
0000
07C0
07C0
07C0
07C0
07C0
07C0
07C0
07C0
07C0
07C0
07C0
07C0
07C0
07C0
07C0
07C0
07C0
07C0
07C0
07C0
07C0
07C0
07C0
07C0
07C0
07C0
07C0
07C0
07C0
07C0
07C0
07C0
07C0
07C0
07C0
07C0
ENDCHAR
STARTCHAR 03AB
ENCODING 939
SWIDTH 660 0
DWIDTH 33 0
BBX 32 45 1 0
BITMAP
007C7C00
007C7C00
007C7C00
007C7C00
007C7C00
00000000
00000000
00000000
00000000
FC00003F
7C00003E
7E00007C
3F0000FC
1F0000F8
1F8001F8
0F8001F0
0FC003E0
07E007E0
03E007C0
03F00F80
01F00F80
00F81F00
00FC3F00
007C3E00
003E7C00
003E7C00
001FF800
000FF000
000FF000
0007E000
0007E000
0003C000
0003C000
0003C000
0003C000
0003C000
0003C000
0003C000
0003C000
0003C000
0003C000
0003C000
0003C000
0003C000
0003C000
ENDCHAR
STARTCHAR 03AC
ENCODING 940
SWIDTH 580 0
DWIDTH 29 0
BBX 30 40 0 -1
BITMAP
003C0000
003C0000
003C0000
003C0000
003C0000
003C0000
001C0000
00180000
00180000
00180000
00000000
00000000
007E0000
01FF8078
07FFC0F8
0FFFE0F0
1F81F0F0
1F00F9F0
3E0079E0
3C003DE0
7C003FC0
78001FC0
78001FC0
F8000F80
F8000F80
F8000F80
F8000F80
F8000F80
F8001FC0
78001FC0
78003FC0
7C003DE0
7C0079E0
3E0079F0
3F00F0F0
1F83F0F0
0FFFE0F8
07FFC078
03FF807C
00FE0000
ENDCHAR
STARTCHAR 03AD
ENCODING 941
SWIDTH 440 0
DWIDTH 22 0
BBX 21 40 1 -1
BITMAP
00F000
00F000
00F000
00F000
00F000
00F000
007000
006000
006000
006000
000000
000000
01FC00
0FFF00
1FFFC0
3FFFC0
7E03E0
7C01F0
7800F0
7800F0
780000
7C0000
3E0000
3FC000
0FF800
0FF800
3FF800
7F0000
7C0000
F80000
F00078
F00078
F80078
F800F8
7C01F0
7E03E0
3FFFE0
1FFFC0
0FFF00
03FC00
ENDCHAR
STARTCHAR 03AE
ENCODING 942
SWIDTH 560 0
DWIDTH 28 0
BBX 20 50 4 -11
BITMAP
007800
007800
007800
007800
007800
007800
007800
003000
003000
003000
000000
000000
007E00
E1FFC0
E3FFE0
E7FFE0
EF03F0
FC01F0
F800F0
F800F0
F000F0
F000F0
F000F0
F000F0
F000F0
F000F0
F000F0
F000F0
F000F0
F000F0
F000F0
F000F0
F000F0
F000F0
F000F0
F000F0
F000F0
F000F0
F000F0
0000F0
0000F0
0000F0
0000F0
0000F0
0000F0
0000F0
0000F0
0000F0
0000F0
0000F0
ENDCHAR
STARTCHAR 03AF
ENCODING 943
SWIDTH 220 0
DWIDTH 11 0
BBX 5 39 3 0
BITMAP
F8
F8
F8
F8
F8
70
70
70
70
20
00
00
00
F8
F8
F8
F8
F8
F8
F8
F8
F8
F8
F8
F8
F8
F8
F8
F8
F8
F8
F8
F8
F8
F8
F8
F8
F8
F8
ENDCHAR
STARTCHAR 03B0
ENCODING 944
SWIDTH 540 0
DWIDTH 27 0
BBX 21 44 3 -1
BITMAP
007800
007800
007800
007800
007800
007800
007000
007000
0FF780
0FB780
0F8780
0F8780
0F8780
000000
000000
000000
000000
F00078
F00078
F00078
F00078
F00078
F00078
F00078
F00078
F00078
F00078
F00078
F00078
F00078
F00078
F00078
F00078
F00078
F00078
F80078
F80078
7800F8
7C00F8
7E03F0
3FFFF0
1FFFE0
0FFF80
01FE00
ENDCHAR
STARTCHAR 03B1
ENCODING 945
SWIDTH 580 0
DWIDTH 29 0
BBX 28 28 2 -1
BITMAP
01F80000
07FE01E0
0FFF03E0
1FFF83C0
3F07C3C0
3E03E7C0
7C01E780
7800F780
F800FF80
F8007F00
F0007F00
F0003E00
F0003E00
F0003E00
F0003E00
F0003E00
F0007F00
F0007F00
F800FF80
F800F780
7801F780
7C01E7C0
7E03E3C0
3F07C3C0
1FFF83E0
0FFF01E0
07FE01F0
01F80000
ENDCHAR
STARTCHAR 03B2
ENCODING 946
SWIDTH 580 0
DWIDTH 29 0
BBX 22 48 4 -11
BITMAP
01FC00
0FFF00
1FFF80
3FFFC0
7C07E0
7801E0
F801F0
F000F0
F000F0
F000F0
F000F0
F001F0
F001F0
F003E0
F007C0
F07F80
F07F00
F07FC0
F00FE0
F001F0
F000F8
F00078
F0007C
F0007C
F0003C
F0003C
F0003C
F0003C
F0003C
F0007C
F0007C
F000F8
F801F8
FE03F0
FFFFE0
FFFFC0
F7FF80
F1FE00
F00000
F00000
F00000
F00000
F00000
F00000
F00000
F00000
F00000
F00000
ENDCHAR
STARTCHAR 03B3
ENCODING 947
SWIDTH 500 0
DWIDTH 25 0
BBX 23 37 1 -11
BITMAP
F8003E
F8003E
78003C
7C007C
7C007C
3C0078
3E00F8
1E00F8
1F00F0
1F01F0
0F01E0
0F81E0
0783E0
0783C0
07C7C0
03C7C0
03E780
03EF80
01EF00
01FF00
00FF00
00FE00
00FE00
007E00
007C00
003C00
003C00
003C00
003C00
003C00
003C00
003C00
003C00
003C00
003C00
003C00
003C00
ENDCHAR
STARTCHAR 03B4
ENCODING 948
SWIDTH 560 0
DWIDTH 28 0
BBX 24 37 2 -1
BITMAP
1FFFF8
1FFFF8
1FFFF8
1FFFF8
0FC000
07E000
01F000
00FC00
007E00
001F00
01FFC0
07FFE0
0FFFF0
1FC3F8
3F00FC
3E007C
7C003E
7C003E
78001E
F8001F
F8001F
F8001F
F0001F
F0001F
F8001F
F8001F
F8001F
78001E
78001E
7C003E
7C007C
3E007C
1F81F8
1FFFF0
0FFFE0
03FFC0
00FF00
ENDCHAR
STARTCHAR 03B5
ENCODING 949
SWIDTH 440 0
DWIDTH 22 0
BBX 21 28 1 -1
BITMAP
01FC00
0FFF00
1FFFC0
3FFFC0
7E03E0
7C01F0
7800F0
7800F0
780000
7C0000
3E0000
3FC000
0FF800
0FF800
3FF800
7F0000
7C0000
F80000
F00078
F00078
F80078
F800F8
7C01F0
7E03E0
3FFFE0
1FFFC0
0FFF00
03FC00
ENDCHAR
STARTCHAR 03B6
ENCODING 950
SWIDTH 440 0
DWIDTH 22 0
BBX 21 47 2 -11
BITMAP
3FFFE0
3FFFE0
3FFFE0
3FFFE0
000FC0
001F80
003E00
007C00
00F800
01F000
03E000
07C000
0F8000
0F8000
1F0000
1E0000
3E0000
3C0000
7C0000
780000
780000
F80000
F80000
F00000
F00000
F00000
F00000
F80000
F80000
F80000
7C0000
7E0000
3FE000
1FFF80
0FFFE0
03FFF0
000FF8
0000F8
0000F8
0000F8
0000F0
0000F0
0000F0
0001F0
0001E0
0001E0
0003E0
ENDCHAR
STARTCHAR 03B7
ENCODING 951
SWIDTH 560 0
DWIDTH 28 0
BBX 20 38 4 -11
BITMAP
007E00
E1FFC0
E3FFE0
E7FFE0
EF03F0
FC01F0
F800F0
F800F0
F000F0
F000F0
F000F0
F000F0
F000F0
F000F0
F000F0
F000F0
F000F0
F000F0
F000F0
F000F0
F000F0
F000F0
F000F0
F000F0
F000F0
F000F0
F000F0
0000F0
0000F0
0000F0
0000F0
0000F0
0000F0
0000F0
0000F0
0000F0
0000F0
0000F0
ENDCHAR
STARTCHAR 03B8
ENCODING 952
SWIDTH 560 0
DWIDTH 28 0
BBX 23 38 2 -1
BITMAP
007E00
03FFC0
07FFE0
0FFFF0
1F81F8
1E00F8
3E007C
3C003C
7C003C
78001E
78001E
78001E
78001E
78001E
78001E
F8001E
FFFFFE
FFFFFE
FFFFFE
F8001E
F8001E
F8001E
78001E
78001E
78001E
78001E
78001E
78001E
78003E
7C003C
3C003C
3E007C
1F00F8
1F81F8
0FFFF0
07FFE0
03FFC0
00FE00
ENDCHAR
STARTCHAR 03B9
ENCODING 953
SWIDTH 220 0
DWIDTH 11 0
BBX 5 26 3 0
BITMAP
F8
F8
F8
F8
F8
F8
F8
F8
F8
F8
F8
F8
F8
F8
F8
F8
F8
F8
F8
F8
F8
F8
F8
F8
F8
F8
ENDCHAR
STARTCHAR 03BA
ENCODING 954
SWIDTH 500 0
DWIDTH 25 0
BBX 22 26 3 0
BITMAP
F001F0
F003E0
F007C0
F00F80
F01F00
F03E00
F07C00
F0F800
F1F000
F3F000
F7F000
FFF800
FFFC00
FE7C00
FC3E00
F83E00
F01F00
F00F80
F00F80
F007C0
F007E0
F003E0
F001F0
F001F0
F000F8
F0007C
ENDCHAR
STARTCHAR 03BB
ENCODING 955
SWIDTH 500 0
DWIDTH 25 0
BBX 23 36 1 0
BITMAP
07C000
03C000
03E000
03E000
01E000
01F000
01F000
00F000
00F800
007800
007C00
007C00
007C00
00FE00
00FE00
01FE00
01FF00
01EF00
03EF00
03CF80
03C780
07C7C0
0787C0
0783C0
0F83E0
0F01E0
0F01E0
1F01F0
1E00F0
3E00F8
3E00F8
3C0078
7C007C
78007C
78003C
F8003E
ENDCHAR
STARTCHAR 03BC
ENCODING 956
SWIDTH 580 0
DWIDTH 29 0
BBX 21 37 4 -11
BITMAP
F00078
F00078
F00078
F00078
F00078
F00078
F00078
F00078
F00078
F00078
F00078
F00078
F00078
F00078
F00078
F00078
F00078
F000F8
F000F8
F000F8
F801F8
F803F8
FC07F8
FFFF78
FFFE78
FFFC78
F7F000
F00000
F00000
F00000
F00000
F00000
F00000
F00000
F00000
F00000
F00000
ENDCHAR
STARTCHAR 03BD
ENCODING 957
SWIDTH 500 0
DWIDTH 25 0
BBX 23 26 1 0
BITMAP
F0003E
F8003E
F8003C
7C007C
7C007C
3C0078
3E00F8
3E00F0
1E00F0
1F01F0
1F01E0
0F01E0
0F83E0
0F83C0
0787C0
07C780
07C780
03CF80
03EF00
03EF00
01FE00
01FE00
00FE00
00FC00
00FC00
007C00
ENDCHAR
STARTCHAR 03BE
ENCODING 958
SWIDTH 440 0
DWIDTH 22 0
BBX 21 47 2 -11
BITMAP
FFFFE0
FFFFE0
FFFFE0
FFFFE0
0F8000
1F0000
1E0000
3E0000
3C0000
3C0000
3C0000
3C0000
3E0000
3F0000
1FC000
0FFFC0
03FFC0
03FFC0
0FFFC0
3FC000
7E0000
7C0000
F80000
F00000
F00000
F00000
F00000
F00000
F00000
F80000
FC0000
7E0000
7FF800
3FFFE0
1FFFF0
03FFF8
0003F8
0000F8
000078
000078
000078
0000F8
0000F0
0000F0
0001F0
0001E0
0001E0
ENDCHAR
STARTCHAR 03BF
ENCODING 959
SWIDTH 560 0
DWIDTH 28 0
BBX 24 28 2 -1
BITMAP
00FF00
03FFC0
0FFFF0
1FFFF8
1F81F8
3E00FC
3C007C
7C003E
78003E
78001E
F8001F
F8001F
F0001F
F0001F
F0001F
F0001F
F8001F
F8001F
78001E
78001E
7C003E
7C007C
3E00FC
1F81F8
1FFFF0
0FFFE0
03FFC0
00FE00
ENDCHAR
STARTCHAR 03C0
ENCODING 960
SWIDTH 700 0
DWIDTH 35 0
BBX 28 26 3 0
BITMAP
FFFFFFF0
FFFFFFF0
FFFFFFF0
FFFFFFF0
0F000F00
0F000F00
0F000F00
0F000F00
0F000F00
0F000F00
0F000F00
0F000F00
0F000F00
0F000F00
0F000F00
0F000F00
0F000F00
0F000F00
0F000F00
0F000F00
0F000F00
0F000F00
0F000F00
0F000F00
0F000F00
0F000F00
ENDCHAR
STARTCHAR 03C1
ENCODING 961
SWIDTH 560 0
DWIDTH 28 0
BBX 23 38 3 -11
BITMAP
00FE00
03FFC0
0FFFE0
1FFFF0
1F81F8
3E00F8
7C007C
7C003C
78003E
F8003E
F8001E
F0001E
F0001E
F0001E
F0001E
F0001E
F0001E
F8001E
F8003E
F8003E
FC003C
FC007C
FE00F8
FF83F8
FFFFF0
F7FFE0
F1FFC0
F07E00
F00000
F00000
F00000
F00000
F00000
F00000
F00000
F00000
F00000
F00000
ENDCHAR
STARTCHAR 03C2
ENCODING 962
SWIDTH 480 0
DWIDTH 24 0
BBX 23 38 1 -11
BITMAP
007F00
01FFC0
07FFF0
0FFFF8
1F81FC
3F007C
3E003E
7C003E
7C001E
78001E
780000
F80000
F80000
F80000
F80000
780000
780000
7C0000
7C0000
3E0000
3F0000
1FC000
0FF800
07FE00
01FFC0
007FF0
000FF8
0001FC
00007C
00003C
00003C
00003C
00003C
00007C
000078
000078
0000F0
0000F0
ENDCHAR
STARTCHAR 03C3
ENCODING 963
SWIDTH 620 0
DWIDTH 31 0
BBX 26 28 3 -1
BITMAP
00FF0000
03FFFFC0
0FFFFFC0
1FFFFFC0
1F81FFC0
3E00F800
3C007C00
7C003C00
78003E00
78001E00
F8001E00
F8001F00
F0001F00
F0001F00
F0001F00
F0001F00
F8001F00
F8001E00
F8001E00
78003E00
7C003E00
7C007C00
3E00FC00
1F81F800
1FFFF000
0FFFE000
03FFC000
00FE0000
ENDCHAR
STARTCHAR 03C4
ENCODING 964
SWIDTH 400 0
DWIDTH 20 0
BBX 22 26 -1 0
BITMAP
FFFFFC
FFFFFC
FFFFFC
FFFFFC
007800
007800
007800
007800
007800
007800
007800
007800
007800
007800
007800
007800
007800
007800
007800
007800
007800
007800
007800
007800
007800
007800
ENDCHAR
STARTCHAR 03C5
ENCODING 965
SWIDTH 540 0
DWIDTH 27 0
BBX 21 27 3 -1
BITMAP
F00078
F00078
F00078
F00078
F00078
F00078
F00078
F00078
F00078
F00078
F00078
F00078
F00078
F00078
F00078
F00078
F00078
F00078
F80078
F80078
7800F8
7C00F8
7E03F0
3FFFF0
1FFFE0
0FFF80
01FE00
ENDCHAR
STARTCHAR 03C6
ENCODING 966
SWIDTH 640 0
DWIDTH 32 0
BBX 28 38 2 -11
BITMAP
000FC000
030FF800
070FFE00
0F0FFF00
1F0F1F80
3E0F07C0
7C0F03C0
7C0F03E0
F80F01E0
F80F01F0
F00F01F0
F00F00F0
F00F00F0
F00F00F0
F00F00F0
F00F00F0
F00F00F0
F80F01F0
F80F01F0
F80F01F0
7C0F03E0
7C0F03E0
3E0F07C0
3F8F1F80
1FFFFF00
0FFFFE00
03FFFC00
00FFE000
000F0000
000F0000
000F0000
000F0000
000F0000
000F0000
000F0000
000F0000
000F0000
000F0000
ENDCHAR
STARTCHAR 03C7
ENCODING 967
SWIDTH 520 0
DWIDTH 26 0
BBX 23 37 2 -11
BITMAP
F8007C
780078
7C00F8
3C00F0
3E01F0
1E01E0
1F03E0
0F03C0
0F87C0
078780
07CF80
03CF00
03FF00
03FE00
01FE00
01FC00
00FC00
00F800
00FC00
00FC00
01FE00
01FE00
03FF00
03DF00
03CF80
078F80
0787C0
0F87C0
0F03E0
1F03E0
1E01F0
3E01F0
3C00F8
7C00F8
78007C
F8007C
F0003E
ENDCHAR
STARTCHAR 03C8
ENCODING 968
SWIDTH 720 0
DWIDTH 36 0
BBX 27 37 5 -11
BITMAP
F01E01E0
F01E01E0
F01E01E0
F01E01E0
F01E01E0
F01E01E0
F01E01E0
F01E01E0
F01E01E0
F01E01E0
F01E01E0
F01E01E0
F01E01E0
F01E01E0
F01E01E0
F01E01E0
F01E01E0
F01E01E0
F01E03E0
F81E03E0
F81E07C0
7C1E0FC0
7F1E1F80
3FFFFF00
1FFFFE00
07FFF800
00FFC000
001E0000
001E0000
001E0000
001E0000
001E0000
001E0000
001E0000
001E0000
001E0000
001E0000
ENDCHAR
STARTCHAR 03C9
ENCODING 969
SWIDTH 780 0
DWIDTH 39 0
BBX 31 27 4 -1
BITMAP
07C007C0
078003E0
0F8003E0
1F0001F0
1E0000F0
3E0000F8
3C07C078
7C07C07C
7C07C07C
7807C03C
7807C03C
7807C03C
F807C03E
F807C03E
F807C03E
F807C03E
7807C03E
7807C03C
7807C03C
7807C03C
7C07C07C
3C07C078
3E0FE0F8
1FFEFFF0
1FFC7FE0
0FF83FC0
03F01F80
ENDCHAR
STARTCHAR 03CA
ENCODING 970
SWIDTH 220 0
DWIDTH 11 0
BBX 13 36 -1 0
BITMAP
F8F8
F8F8
F8F8
F8F8
F8F8
0000
0000
0000
0000
0000
0F80
0F80
0F80
0F80
0F80
0F80
0F80
0F80
0F80
0F80
0F80
0F80
0F80
0F80
0F80
0F80
0F80
0F80
0F80
0F80
0F80
0F80
0F80
0F80
0F80
0F80
ENDCHAR
STARTCHAR 03CB
ENCODING 971
SWIDTH 540 0
DWIDTH 27 0
BBX 21 37 3 -1
BITMAP
0F8F80
0F8F80
0F8F80
0F8F80
0F8F80
000000
000000
000000
000000
000000
F00078
F00078
F00078
F00078
F00078
F00078
F00078
F00078
F00078
F00078
F00078
F00078
F00078
F00078
F00078
F00078
F00078
F00078
F80078
F80078
7800F8
7C00F8
7E03F0
3FFFF0
1FFFE0
0FFF80
01FE00
ENDCHAR
STARTCHAR 03CC
ENCODING 972
SWIDTH 560 0
DWIDTH 28 0
BBX 24 40 2 -1
BITMAP
003C00
003C00
003C00
003C00
003C00
003C00
003800
001800
001800
001800
000000
000000
00FF00
03FFC0
0FFFF0
1FFFF8
1F81F8
3E00FC
3C007C
7C003E
78003E
78001E
F8001F
F8001F
F0001F
F0001F
F0001F
F0001F
F8001F
F8001F
78001E
78001E
7C003E
7C007C
3E00FC
1F81F8
1FFFF0
0FFFE0
03FFC0
00FE00
ENDCHAR
STARTCHAR 03CD
ENCODING 973
SWIDTH 540 0
DWIDTH 27 0
BBX 21 40 3 -1
BITMAP
007800
007800
007800
007800
007800
007800
007000
007000
003000
003000
000000
000000
000000
F00078
F00078
F00078
F00078
F00078
F00078
F00078
F00078
F00078
F00078
F00078
F00078
F00078
F00078
F00078
F00078
F00078
F00078
F80078
F80078
7800F8
7C00F8
7E03F0
3FFFF0
1FFFE0
0FFF80
01FE00
ENDCHAR
STARTCHAR 03CE
ENCODING 974
SWIDTH 780 0
DWIDTH 39 0
BBX 31 40 4 -1
BITMAP
0007C000
0007C000
0007C000
0007C000
0007C000
00038000
00038000
00038000
00038000
00010000
00000000
00000000
00000000
07C007C0
078003E0
0F8003E0
1F0001F0
1E0000F0
3E0000F8
3C07C078
7C07C07C
7C07C07C
7807C03C
7807C03C
7807C03C
F807C03E
F807C03E
F807C03E
F807C03E
7807C03E
7807C03C
7807C03C
7807C03C
7C07C07C
3C07C078
3E0FE0F8
1FFEFFF0
1FFC7FE0
0FF83FC0
03F01F80
ENDCHAR
STARTCHAR 03D1
ENCODING 977
SWIDTH 540 0
DWIDTH 27 0
BBX 27 39 0 -1
BITMAP
001C0000
00FFC000
01FFE000
03FFF000
07E1F800
07807C00
0F003C00
0F003E00
0F001E00
0F001F00
0F000F00
0F000F00
0F800F00
07800F00
07C00F00
03F00F00
01FC0F00
00FFFFE0
007FFFE0
001FFFE0
0001FFE0
00000F00
00000F00
FC000F00
FC000F00
FC000F00
3C000F00
3C000F00
3C000F00
1E001F00
1E001E00
1E001E00
1F003E00
0F807C00
0FC0FC00
07FFF800
03FFF000
01FFE000
007F0000
ENDCHAR
STARTCHAR 03D5
ENCODING 981
SWIDTH 560 0
DWIDTH 28 0
BBX 26 44 1 -11
BITMAP
001E0000
001E0000
001E0000
001E0000
001E0000
001E0000
00FFC000
03FFF000
0FFFFC00
1FFFFE00
3F1E7F00
3E1E1F00
7C1E0F80
781E0780
F81E07C0
F81E07C0
F01E03C0
F01E03C0
F01E03C0
F01E03C0
F01E03C0
F01E03C0
F01E03C0
F01E03C0
F81E07C0
F81E07C0
781E0780
7C1E0F80
3E1E1F00
3F1E3F00
1FFFFE00
0FFFFC00
07FFF800
01FFC000
001E0000
001E0000
001E0000
001E0000
001E0000
001E0000
001E0000
001E0000
001E0000
001E0000
ENDCHAR
STARTCHAR 03D6
ENCODING 982
SWIDTH 780 0
DWIDTH 39 0
BBX 32 27 3 -1
BITMAP
FFFFF000
FFFFFE00
FFFFFF80
07E3FFE0
0F8007F0
1F0001F8
1F0000FC
3E00007C
3C00003C
3C00003E
7C00001E
7C03C01E
7803C01F
7803C01F
7803C01F
7803C01F
7803E01F
7C03E01E
7C03E01E
3C03E01E
3C07E03E
3E07F03C
1F0FF87C
0FFF7FF8
0FFE7FF0
03FC3FE0
01F80F80
ENDCHAR
STARTCHAR 0400
ENCODING 1024
SWIDTH 660 0
DWIDTH 33 0
BBX 26 47 5 0
BITMAP
03F00000
01F00000
00F80000
007C0000
003C0000
001E0000
000E0000
00070000
00000000
00000000
00000000
FFFFFF80
FFFFFF80
FFFFFF80
FFFFFF80
F0000000
F0000000
F0000000
F0000000
F0000000
F0000000
F0000000
F0000000
F0000000
F0000000
F0000000
F0000000
FFFFFF00
FFFFFF00
FFFFFF00
FFFFFF00
F0000000
F0000000
F0000000
F0000000
F0000000
F0000000
F0000000
F0000000
F0000000
F0000000
F0000000
F0000000
FFFFFFC0
FFFFFFC0
FFFFFFC0
FFFFFFC0
ENDCHAR
STARTCHAR 0401
ENCODING 1025
SWIDTH 660 0
DWIDTH 33 0
BBX 26 45 4 0
BITMAP
03F3F000
03F3F000
03F3F000
03F3F000
03F3F000
00000000
00000000
00000000
00000000
FFFFFFC0
FFFFFFC0
FFFFFFC0
FFFFFFC0
F8000000
F8000000
F8000000
F8000000
F8000000
F8000000
F8000000
F8000000
F8000000
F8000000
F8000000
F8000000
FFFFFF80
FFFFFF80
FFFFFF80
FFFFFF80
F8000000
F8000000
F8000000
F8000000
F8000000
F8000000
F8000000
F8000000
F8000000
F8000000
F8000000
F8000000
FFFFFFC0
FFFFFFC0
FFFFFFC0
FFFFFFC0
ENDCHAR
STARTCHAR 0402
ENCODING 1026
SWIDTH 860 0
DWIDTH 43 0
BBX 38 36 1 0
BITMAP
FFFFFF8000
FFFFFF8000
FFFFFF8000
FFFFFF8000
000F800000
000F800000
000F800000
000F800000
000F800000
000F800000
000F800000
000F800000
000F87FF00
000F9FFFC0
000FBFFFE0
000FFFFFF0
000FF803F8
000FE000F8
000FC0007C
000F80007C
000F80007C
000F80007C
000F80007C
000F80007C
000F80007C
000F80007C
000F80007C
000F80007C
000F80007C
000F80007C
000F800078
000F8000F8
000F81FFF8
000F81FFF0
000F81FFE0
000F81FF80
ENDCHAR
STARTCHAR 0403
ENCODING 1027
SWIDTH 540 0
DWIDTH 27 0
BBX 23 47 4 0
BITMAP
001F80
003F00
003E00
007C00
00F800
00F000
01E000
01C000
000000
000000
000000
FFFFFE
FFFFFE
FFFFFE
FFFFFE
F80000
F80000
F80000
F80000
F80000
F80000
F80000
F80000
F80000
F80000
F80000
F80000
F80000
F80000
F80000
F80000
F80000
F80000
F80000
F80000
F80000
F80000
F80000
F80000
F80000
F80000
F80000
F80000
F80000
F80000
F80000
F80000
ENDCHAR
STARTCHAR 0404
ENCODING 1028
SWIDTH 720 0
DWIDTH 36 0
BBX 34 38 1 -1
BITMAP
0007FC0000
003FFF8000
00FFFFE000
01FFFFF000
07FC07F800
0FE001FC00
0FC0007E00
1F80003F00
3F00001F00
3E00000F80
7C00000F80
7C00000700
7C00000000
F800000000
F800000000
F800000000
F800000000
FFFFF00000
FFFFF00000
FFFFF00000
FFFFF00000
F800000000
F800000000
F800000000
F800000200
7C000007C0
7C000007C0
7C00000F80
3E00000F80
3F00001F80
1F80003F00
1FC0007E00
0FE001FC00
07FC07F800
03FFFFF000
00FFFFE000
003FFF8000
0007FC0000
ENDCHAR
STARTCHAR 0405
ENCODING 1029
SWIDTH 660 0
DWIDTH 33 0
BBX 29 38 2 -1
BITMAP
003FE000
01FFFC00
03FFFF00
0FFFFF80
1FC03FC0
1F8007C0
3E0003E0
3E0003E0
3C0001F0
3C0001F0
3C0001F0
3C000000
3E000000
3F000000
3FC00000
1FF80000
0FFF0000
07FFF000
01FFFE00
003FFF80
0003FFC0
00003FE0
000007F0
000003F0
000001F8
F80000F8
F80000F8
780000F8
780000F8
7C0000F8
7C0000F0
3E0001F0
3F8003E0
1FE01FE0
0FFFFFC0
07FFFF80
01FFFE00
003FF000
ENDCHAR
STARTCHAR 0406
ENCODING 1030
SWIDTH 280 0
DWIDTH 14 0
BBX 4 36 5 0
BITMAP
F0
F0
F0
F0
F0
F0
F0
F0
F0
F0
F0
F0
F0
F0
F0
F0
F0
F0
F0
F0
F0
F0
F0
F0
F0
F0
F0
F0
F0
F0
F0
F0
F0
F0
F0
F0
ENDCHAR
STARTCHAR 0407
ENCODING 1031
SWIDTH 280 0
DWIDTH 14 0
BBX 14 45 0 0
BITMAP
FCFC
FCFC
FCFC
FCFC
FCFC
0000
0000
0000
0000
0780
0780
0780
0780
0780
0780
0780
0780
0780
0780
0780
0780
0780
0780
0780
0780
0780
0780
0780
0780
0780
0780
0780
0780
0780
0780
0780
0780
0780
0780
0780
0780
0780
0780
0780
0780
ENDCHAR
STARTCHAR 0408
ENCODING 1032
SWIDTH 500 0
DWIDTH 25 0
BBX 20 37 1 -1
BITMAP
0001F0
0001F0
0001F0
0001F0
0001F0
0001F0
0001F0
0001F0
0001F0
0001F0
0001F0
0001F0
0001F0
0001F0
0001F0
0001F0
0001F0
0001F0
0001F0
0001F0
0001F0
0001F0
0001F0
0001F0
F001F0
F001F0
F001F0
F801F0
F801F0
F801F0
F801F0
FC03E0
7E07E0
3FFFC0
1FFF80
0FFF00
03F800
ENDCHAR
STARTCHAR 0409
ENCODING 1033
SWIDTH 1060 0
DWIDTH 53 0
BBX 51 36 1 0
BITMAP
03FFFFF8000000
03FFFFF8000000
03FFFFF8000000
03FFFFF8000000
03E00078000000
03E00078000000
03E00078000000
03E00078000000
03E00078000000
03E00078000000
03E00078000000
03E00078000000
03E00078000000
03E00078000000
03E00078000000
03E0007FFFF000
03E0007FFFFC00
03E0007FFFFE00
03E0007FFFFF00
03E00078007F80
03E00078000FC0
03E000780007C0
03E000780007C0
03E000780003E0
03E000780003E0
03E000780003E0
03E000780003E0
03C000780003C0
07C000780007C0
07C000780007C0
0F800078000FC0
3F800078003F80
FF00007FFFFF00
FE00007FFFFE00
FC00007FFFFC00
F000007FFFE000
ENDCHAR
STARTCHAR 040A
ENCODING 1034
SWIDTH 1020 0
DWIDTH 51 0
BBX 46 36 3 0
BITMAP
F0001F000000
F0001F000000
F0001F000000
F0001F000000
F0001F000000
F0001F000000
F0001F000000
F0001F000000
F0001F000000
F0001F000000
F0001F000000
F0001F000000
F0001F000000
F0001F000000
F0001F000000
FFFFFFFFFE00
FFFFFFFFFFC0
FFFFFFFFFFE0
FFFFFFFFFFF0
F8001F0007F8
F8001F0001F8
F8001F0000FC
F8001F00007C
F8001F00007C
F8001F00003C
F8001F00003C
F8001F00003C
F8001F00007C
F8001F00007C
F8001F0000FC
F8001F0001F8
F8001F0007F8
F8001FFFFFF0
F8001FFFFFE0
F8001FFFFFC0
F8001FFFFE00
ENDCHAR
STARTCHAR 040B
ENCODING 1035
SWIDTH 860 0
DWIDTH 43 0
BBX 36 36 1 0
BITMAP
FFFFFFE000
FFFFFFE000
FFFFFFE000
FFFFFFE000
000F000000
000F000000
000F000000
000F000000
000F000000
000F000000
000F000000
000F000000
000F07FC00
000F1FFF80
000F3FFFC0
000F7FFFE0
000FF807F0
000FE001F0
000FC001F0
000F8000F0
000F8000F0
000F0000F0
000F0000F0
000F0000F0
000F0000F0
000F0000F0
000F0000F0
000F0000F0
000F0000F0
000F0000F0
000F0000F0
000F0000F0
000F0000F0
000F0000F0
000F0000F0
000F0000F0
ENDCHAR
STARTCHAR 040C
ENCODING 1036
SWIDTH 580 0
DWIDTH 29 0
BBX 24 47 3 0
BITMAP
0007C0
000F80
001F00
001E00
003C00
007800
007000
00E000
000000
000000
000000
F8007C
F800F8
F801F8
F801F0
F803E0
F803E0
F807C0
F80FC0
F80F80
F81F00
F81F00
F83E00
F87E00
F87C00
F8F800
FFF800
FFF000
FFF000
FFF800
F8F800
F87C00
F83E00
F83E00
F81F00
F80F80
F80F80
F807C0
F803E0
F803E0
F801F0
F800F8
F800F8
F8007C
F8003E
F8003E
F8001F
ENDCHAR
STARTCHAR 040D
ENCODING 1037
SWIDTH 720 0
DWIDTH 36 0
BBX 28 47 4 0
BITMAP
00F80000
007C0000
003E0000
001E0000
000F0000
00078000
00038000
0001C000
00000000
00000000
00000000
F80001F0
F80001F0
F80001F0
F80001F0
F80001F0
F80003F0
F80007F0
F8000FF0
F8001FF0
F8001FF0
F8003FF0
F8007FF0
F800FDF0
F801F9F0
F803F1F0
F807E1F0
F80FC1F0
F81F81F0
F81F01F0
F83F01F0
F87E01F0
F8FC01F0
F9F801F0
FBF001F0
FFE001F0
FFC001F0
FF8001F0
FF0001F0
FF0001F0
FE0001F0
FC0001F0
F80001F0
F80001F0
F80001F0
F80001F0
F80001F0
ENDCHAR
STARTCHAR 040E
ENCODING 1038
SWIDTH 640 0
DWIDTH 32 0
BBX 30 46 1 0
BITMAP
01E01C00
00E01C00
00F03C00
00FFF800
007FF000
001FE000
00000000
00000000
00000000
00000000
FC00007C
7C0000FC
7E0000F8
3E0001F8
3F0001F0
1F0001F0
1F0003F0
1F8003E0
0F8007E0
0FC007C0
07C007C0
07E00F80
03E00F80
03E01F00
01F01F00
01F01F00
00F83E00
00F83E00
007C7C00
007C7C00
003EF800
003EF800
003EF000
001FF000
001FF000
000FE000
000FE000
0007C000
0007C000
00078000
000F8000
001F8000
03FF0000
03FE0000
03FC0000
03F80000
ENDCHAR
STARTCHAR 040F
ENCODING 1039
SWIDTH 720 0
DWIDTH 36 0
BBX 28 44 4 -8
BITMAP
F80001F0
F80001F0
F80001F0
F80001F0
F80001F0
F80001F0
F80001F0
F80001F0
F80001F0
F80001F0
F80001F0
F80001F0
F80001F0
F80001F0
F80001F0
F80001F0
F80001F0
F80001F0
F80001F0
F80001F0
F80001F0
F80001F0
F80001F0
F80001F0
F80001F0
F80001F0
F80001F0
F80001F0
F80001F0
F80001F0
F80001F0
F80001F0
FFFFFFF0
FFFFFFF0
FFFFFFF0
FFFFFFF0
000F0000
000F0000
000F0000
000F0000
000F0000
000F0000
000F0000
000F0000
ENDCHAR
STARTCHAR 0410
ENCODING 1040
SWIDTH 660 0
DWIDTH 33 0
BBX 31 36 1 0
BITMAP
0007E000
000FE000
000FF000
000FF000
001FF000
001FF800
003EF800
003E7800
003C7C00
007C7C00
007C3E00
00783E00
00F83E00
00F81F00
00F01F00
01F01F00
01E00F80
03E00F80
03E00F80
03C007C0
07C007C0
07FFFFC0
07FFFFE0
0FFFFFE0
0FFFFFF0
0F0001F0
1F0001F0
1F0001F8
3E0000F8
3E0000F8
3E00007C
7C00007C
7C00007C
7C00003E
F800003E
F800003E
ENDCHAR
STARTCHAR 0411
ENCODING 1041
SWIDTH 660 0
DWIDTH 33 0
BBX 27 36 4 0
BITMAP
FFFFFF00
FFFFFF00
FFFFFF00
FFFFFF00
F8000000
F8000000
F8000000
F8000000
F8000000
F8000000
F8000000
F8000000
F8000000
F8000000
F8000000
FFFFF000
FFFFFC00
FFFFFF00
FFFFFF80
F8003FC0
F8000FC0
F80007C0
F80003E0
F80003E0
F80003E0
F80003E0
F80003E0
F80003E0
F80003E0
F80007C0
F8000FC0
F8003FC0
FFFFFF80
FFFFFF00
FFFFFC00
FFFFF000
ENDCHAR
STARTCHAR 0412
ENCODING 1042
SWIDTH 660 0
DWIDTH 33 0
BBX 27 36 4 0
BITMAP
FFFFE000
FFFFF800
FFFFFE00
FFFFFF00
F8007F00
F8001F80
F8000F80
F80007C0
F80007C0
F80007C0
F80007C0
F8000780
F8000780
F8000F80
F8001F00
F8007E00
FFFFFC00
FFFFF800
FFFFFE00
FFFFFF80
F8001FC0
F80007C0
F80003E0
F80003E0
F80003E0
F80001E0
F80001E0
F80003E0
F80003E0
F80003E0
F80007C0
F8001FC0
FFFFFF80
FFFFFF00
FFFFFE00
FFFFF000
ENDCHAR
STARTCHAR 0413
ENCODING 1043
SWIDTH 540 0
DWIDTH 27 0
BBX 23 36 4 0
BITMAP
FFFFFE
FFFFFE
FFFFFE
FFFFFE
F80000
F80000
F80000
F80000
F80000
F80000
F80000
F80000
F80000
F80000
F80000
F80000
F80000
F80000
F80000
F80000
F80000
F80000
F80000
F80000
F80000
F80000
F80000
F80000
F80000
F80000
F80000
F80000
F80000
F80000
F80000
F80000
ENDCHAR
STARTCHAR 0414
ENCODING 1044
SWIDTH 680 0
DWIDTH 34 0
BBX 32 44 1 -8
BITMAP
00FFFFF8
00FFFFF8
00FFFFF8
00FFFFF8
00F80078
00F80078
00F80078
00F80078
00F80078
00F80078
00F80078
00F80078
00F80078
00F80078
00F80078
00F80078
00F80078
00F80078
00F80078
00F80078
00F80078
00F80078
00F80078
00F80078
00F00078
01F00078
01F00078
03E00078
03E00078
07C00078
0F800078
3F000078
FFFFFFFF
FFFFFFFF
FFFFFFFF
FFFFFFFF
F000001F
F000001F
F000001F
F000001F
F000001F
F000001F
F000001F
F000001F
ENDCHAR
STARTCHAR 0415
ENCODING 1045
SWIDTH 660 0
DWIDTH 33 0
BBX 26 36 4 0
BITMAP
FFFFFFC0
FFFFFFC0
FFFFFFC0
FFFFFFC0
F8000000
F8000000
F8000000
F8000000
F8000000
F8000000
F8000000
F8000000
F8000000
F8000000
F8000000
F8000000
FFFFFF80
FFFFFF80
FFFFFF80
FFFFFF80
F8000000
F8000000
F8000000
F8000000
F8000000
F8000000
F8000000
F8000000
F8000000
F8000000
F8000000
F8000000
FFFFFFC0
FFFFFFC0
FFFFFFC0
FFFFFFC0
ENDCHAR
STARTCHAR 0416
ENCODING 1046
SWIDTH 920 0
DWIDTH 46 0
BBX 46 36 0 0
BITMAP
3E00078001F0
3F00078003F0
1F00078003E0
0F80078007C0
0FC0078007C0
07C007800F80
03E007801F80
03E007801F00
01F007803E00
01F807803E00
00F807807C00
007C0780FC00
007C0780F800
003E0781F000
003F0781F000
001FFFFFE000
000FFFFFE000
000FFFFFC000
001FFFFFE000
003F0781F000
003E0781F000
007C0780F800
00FC07807C00
00F807807C00
01F007803E00
03F007801F00
03E007801F00
07C007800F80
0FC0078007C0
0F80078007C0
1F00078003E0
3F00078001F0
3E00078001F0
7C00078000F8
FC000780007C
F8000780007C
ENDCHAR
STARTCHAR 0417
ENCODING 1047
SWIDTH 600 0
DWIDTH 30 0
BBX 24 38 3 -1
BITMAP
007F00
03FFC0
07FFF0
0FFFF8
1FC3FC
3F00FC
3E007E
7C003E
7C003E
7C003E
7C003E
7C003E
00003E
00007C
00007C
0001F8
003FF0
003FE0
003FE0
003FF8
0001FC
00007E
00003E
00001F
00001F
00001F
F8001F
F8001F
F8001F
F8001F
FC001F
7C003E
7E007E
3FC1FC
1FFFF8
0FFFF0
03FFE0
00FF00
ENDCHAR
STARTCHAR 0418
ENCODING 1048
SWIDTH 720 0
DWIDTH 36 0
BBX 28 36 4 0
BITMAP
F80001F0
F80001F0
F80001F0
F80001F0
F80001F0
F80003F0
F80007F0
F8000FF0
F8001FF0
F8001FF0
F8003FF0
F8007FF0
F800FDF0
F801F9F0
F803F1F0
F807E1F0
F80FC1F0
F81F81F0
F81F01F0
F83F01F0
F87E01F0
F8FC01F0
F9F801F0
FBF001F0
FFE001F0
FFC001F0
FF8001F0
FF0001F0
FF0001F0
FE0001F0
FC0001F0
F80001F0
F80001F0
F80001F0
F80001F0
F80001F0
ENDCHAR
STARTCHAR 0419
ENCODING 1049
SWIDTH 720 0
DWIDTH 36 0
BBX 28 46 4 0
BITMAP
03C03800
01C03800
01E07800
01FFF000
00FFF000
003FC000
00000000
00000000
00000000
00000000
F80001F0
F80001F0
F80001F0
F80001F0
F80001F0
F80003F0
F80007F0
F8000FF0
F8001FF0
F8001FF0
F8003FF0
F8007FF0
F800FDF0
F801F9F0
F803F1F0
F807E1F0
F80FC1F0
F81F81F0
F83F01F0
F83F01F0
F87E01F0
F8FC01F0
F9F801F0
FBF001F0
FFE001F0
FFC001F0
FF8001F0
FF0001F0
FF0001F0
FE0001F0
FC0001F0
F80001F0
F80001F0
F80001F0
F80001F0
F80001F0
ENDCHAR
STARTCHAR 041A
ENCODING 1050
SWIDTH 580 0
DWIDTH 29 0
BBX 24 36 3 0
BITMAP
F8007C
F800F8
F801F8
F801F0
F803E0
F803E0
F807C0
F80FC0
F80F80
F81F00
F81F00
F83E00
F87E00
F87C00
F8F800
FFF800
FFF000
FFF000
FFF800
F8FC00
F87C00
F83E00
F83F00
F81F00
F80F80
F80FC0
F807C0
F803E0
F803F0
F801F0
F800F8
F800FC
F8007C
F8003E
F8003F
F8001F
ENDCHAR
STARTCHAR 041B
ENCODING 1051
SWIDTH 660 0
DWIDTH 33 0
BBX 30 36 0 0
BITMAP
03FFFFFC
03FFFFFC
03FFFFFC
03FFFFFC
03E0003C
03E0003C
03E0003C
03E0003C
03E0003C
03E0003C
03E0003C
03E0003C
03E0003C
03E0003C
03E0003C
03E0003C
03E0003C
03E0003C
03E0003C
03E0003C
03E0003C
03E0003C
03E0003C
03E0003C
03E0003C
03E0003C
03C0003C
07C0003C
07C0003C
0FC0003C
0F80003C
3F80003C
FF00003C
FE00003C
FC00003C
F000003C
ENDCHAR
STARTCHAR 041C
ENCODING 1052
SWIDTH 840 0
DWIDTH 42 0
BBX 34 36 4 0
BITMAP
FC00001FC0
FE00001FC0
FE00001FC0
FE00003FC0
FF00003FC0
FF00003FC0
FF00007BC0
F780007BC0
F780007BC0
F78000F3C0
F3C000F3C0
F3C000F3C0
F3C001E3C0
F1E001E3C0
F1E001E3C0
F1E003C3C0
F0F003C3C0
F0F003C3C0
F0F80783C0
F0780783C0
F0780783C0
F07C0F03C0
F03C0F03C0
F03C0F03C0
F03E1E03C0
F01E1E03C0
F01E1E03C0
F01F3C03C0
F00F3C03C0
F00F3C03C0
F007F803C0
F007F803C0
F007F803C0
F003F003C0
F003F003C0
F003F003C0
ENDCHAR
STARTCHAR 041D
ENCODING 1053
SWIDTH 720 0
DWIDTH 36 0
BBX 28 36 4 0
BITMAP
F80001F0
F80001F0
F80001F0
F80001F0
F80001F0
F80001F0
F80001F0
F80001F0
F80001F0
F80001F0
F80001F0
F80001F0
F80001F0
F80001F0
F80001F0
F80001F0
FFFFFFF0
FFFFFFF0
FFFFFFF0
FFFFFFF0
F80001F0
F80001F0
F80001F0
F80001F0
F80001F0
F80001F0
F80001F0
F80001F0
F80001F0
F80001F0
F80001F0
F80001F0
F80001F0
F80001F0
F80001F0
F80001F0
ENDCHAR
STARTCHAR 041E
ENCODING 1054
SWIDTH 780 0
DWIDTH 39 0
BBX 35 38 2 -1
BITMAP
0007FC0000
003FFF8000
00FFFFE000
01FFFFF000
03FC07FC00
07E001FC00
0FC0007E00
1F80003F00
3F00001F80
3E00000F80
7C00000FC0
7C000007C0
7C000007C0
78000003C0
F8000003E0
F8000003E0
F8000003E0
F8000003E0
F8000003E0
F8000003E0
F8000003E0
F8000003E0
F8000003E0
F8000003E0
F8000003C0
7C000007C0
7C000007C0
7E00000F80
3E00000F80
3F00001F80
1F80003F00
0FC0007E00
0FF000FC00
07FC07F800
01FFFFF000
00FFFFE000
003FFF8000
0007FC0000
ENDCHAR
STARTCHAR 041F
ENCODING 1055
SWIDTH 720 0
DWIDTH 36 0
BBX 28 36 4 0
BITMAP
FFFFFFF0
FFFFFFF0
FFFFFFF0
FFFFFFF0
F80001F0
F80001F0
F80001F0
F80001F0
F80001F0
F80001F0
F80001F0
F80001F0
F80001F0
F80001F0
F80001F0
F80001F0
F80001F0
F80001F0
F80001F0
F80001F0
F80001F0
F80001F0
F80001F0
F80001F0
F80001F0
F80001F0
F80001F0
F80001F0
F80001F0
F80001F0
F80001F0
F80001F0
F80001F0
F80001F0
F80001F0
F80001F0
ENDCHAR
STARTCHAR 0420
ENCODING 1056
SWIDTH 660 0
DWIDTH 33 0
BBX 26 36 5 0
BITMAP
FFFFE000
FFFFF800
FFFFFE00
FFFFFF00
F0007F00
F0001F80
F0000F80
F0000FC0
F00007C0
F00007C0
F00007C0
F00007C0
F00007C0
F0000FC0
F0000F80
F0001F80
F0007F00
FFFFFF00
FFFFFE00
FFFFF800
FFFFE000
F0000000
F0000000
F0000000
F0000000
F0000000
F0000000
F0000000
F0000000
F0000000
F0000000
F0000000
F0000000
F0000000
F0000000
F0000000
ENDCHAR
STARTCHAR 0421
ENCODING 1057
SWIDTH 720 0
DWIDTH 36 0
BBX 32 38 2 -1
BITMAP
0007FC00
003FFF00
00FFFFC0
01FFFFE0
03FC0FF8
07E001F8
0FC000FC
1F80007E
1F00003E
3E00003E
3E00003E
7C00001F
7C000000
78000000
78000000
F8000000
F8000000
F8000000
F8000000
F8000000
F8000000
F8000000
F8000000
F8000000
7800001F
7C00001F
7C00001F
3E00001F
3E00003E
3F00003E
1F80007C
0FC000FC
0FE001F8
07FC0FF0
03FFFFE0
00FFFFC0
007FFF00
000FF800
ENDCHAR
STARTCHAR 0422
ENCODING 1058
SWIDTH 620 0
DWIDTH 31 0
BBX 29 36 1 0
BITMAP
FFFFFFF8
FFFFFFF8
FFFFFFF8
FFFFFFF8
000F8000
000F8000
000F8000
000F8000
000F8000
000F8000
000F8000
000F8000
000F8000
000F8000
000F8000
000F8000
000F8000
000F8000
000F8000
000F8000
000F8000
000F8000
000F8000
000F8000
000F8000
000F8000
000F8000
000F8000
000F8000
000F8000
000F8000
000F8000
000F8000
000F8000
000F8000
000F8000
ENDCHAR
STARTCHAR 0423
ENCODING 1059
SWIDTH 640 0
DWIDTH 32 0
BBX 30 36 1 0
BITMAP
FC00007C
7C0000FC
7E0000F8
3E0001F8
3F0001F0
1F0001F0
1F0003F0
1F8003E0
0F8007E0
0FC007C0
07C007C0
07E00F80
03E00F80
03E01F00
01F01F00
01F01F00
00F83E00
00F83E00
007C7C00
007C7C00
003EF800
003EF800
003EF000
001FF000
001FF000
000FE000
000FE000
0007C000
0007C000
00078000
000F8000
001F8000
03FF0000
03FE0000
03FC0000
03F80000
ENDCHAR
STARTCHAR 0424
ENCODING 1060
SWIDTH 760 0
DWIDTH 38 0
BBX 36 38 1 -1
BITMAP
0000F00000
0000F00000
0000F00000
0000F00000
0000F00000
001FFFC000
00FFFFF000
03FFFFFC00
07FFFFFE00
0FF0F0FF00
1FC0F03F80
3F00F00FC0
3E00F007C0
7E00F007E0
7C00F003E0
7C00F003E0
7800F001E0
F800F001F0
F800F001F0
F800F001F0
F800F001F0
7800F001E0
7C00F003E0
7C00F003E0
7E00F003E0
3E00F007C0
3F00F00FC0
1FC0F03F80
0FF0F0FF00
07FFFFFE00
03FFFFFC00
00FFFFF000
003FFFC000
0000F00000
0000F00000
0000F00000
0000F00000
0000F00000
ENDCHAR
STARTCHAR 0425
ENCODING 1061
SWIDTH 660 0
DWIDTH 33 0
BBX 31 36 1 0
BITMAP
7E00007C
3E0000FC
1F0000F8
1F8001F0
0F8003F0
07C003E0
07E007C0
03E00F80
01F00F80
01F81F00
00F83E00
007C3E00
007E7C00
003EF800
001FF800
001FF000
000FE000
0007C000
000FE000
000FF000
001FF800
003EF800
007E7C00
007C7E00
00F83E00
01F81F00
01F01F80
03E00F80
07E007C0
07C007E0
0F8003F0
1F8001F0
3F0001F8
3E0000FC
7E00007C
FC00007E
ENDCHAR
STARTCHAR 0426
ENCODING 1062
SWIDTH 740 0
DWIDTH 37 0
BBX 31 44 4 -8
BITMAP
F80000F0
F80000F0
F80000F0
F80000F0
F80000F0
F80000F0
F80000F0
F80000F0
F80000F0
F80000F0
F80000F0
F80000F0
F80000F0
F80000F0
F80000F0
F80000F0
F80000F0
F80000F0
F80000F0
F80000F0
F80000F0
F80000F0
F80000F0
F80000F0
F80000F0
F80000F0
F80000F0
F80000F0
F80000F0
F80000F0
F80000F0
F80000F0
FFFFFFFE
FFFFFFFE
FFFFFFFE
FFFFFFFE
0000003E
0000003E
0000003E
0000003E
0000003E
0000003E
0000003E
0000003E
ENDCHAR
STARTCHAR 0427
ENCODING 1063
SWIDTH 660 0
DWIDTH 33 0
BBX 28 36 2 0
BITMAP
F80001F0
F80001F0
F80001F0
F80001F0
F80001F0
F80001F0
F80001F0
F80001F0
F80001F0
F80001F0
F80001F0
F80001F0
F80001F0
F80001F0
F80001F0
F80001F0
7C0001F0
7C0001F0
7E0001F0
3FC01FF0
3FFFFFF0
0FFFFFF0
07FFFFF0
00FFE1F0
000001F0
000001F0
000001F0
000001F0
000001F0
000001F0
000001F0
000001F0
000001F0
000001F0
000001F0
000001F0
ENDCHAR
STARTCHAR 0428
ENCODING 1064
SWIDTH 920 0
DWIDTH 46 0
BBX 40 36 3 0
BITMAP
F0003C000F
F0003C000F
F0003C000F
F0003C000F
F0003C000F
F0003C000F
F0003C000F
F0003C000F
F0003C000F
F0003C000F
F0003C000F
F0003C000F
F0003C000F
F0003C000F
F0003C000F
F0003C000F
F0003C000F
F0003C000F
F0003C000F
F0003C000F
F0003C000F
F0003C000F
F0003C000F
F0003C000F
F0003C000F
F0003C000F
F0003C000F
F0003C000F
F0003C000F
F0003C000F
F0003C000F
F0003C000F
FFFFFFFFFF
FFFFFFFFFF
FFFFFFFFFF
FFFFFFFFFF
ENDCHAR
STARTCHAR 0429
ENCODING 1065
SWIDTH 940 0
DWIDTH 47 0
BBX 44 44 3 -8
BITMAP
F0003C000F80
F0003C000F80
F0003C000F80
F0003C000F80
F0003C000F80
F0003C000F80
F0003C000F80
F0003C000F80
F0003C000F80
F0003C000F80
F0003C000F80
F0003C000F80
F0003C000F80
F0003C000F80
F0003C000F80
F0003C000F80
F0003C000F80
F0003C000F80
F0003C000F80
F0003C000F80
F0003C000F80
F0003C000F80
F0003C000F80
F0003C000F80
F0003C000F80
F0003C000F80
F0003C000F80
F0003C000F80
F0003C000F80
F0003C000F80
F0003C000F80
F0003C000F80
FFFFFFFFFFF0
FFFFFFFFFFF0
FFFFFFFFFFF0
FFFFFFFFFFF0
0000000001F0
0000000001F0
0000000001F0
0000000001F0
0000000001F0
0000000001F0
0000000001F0
0000000001F0
ENDCHAR
STARTCHAR 042A
ENCODING 1066
SWIDTH 800 0
DWIDTH 40 0
BBX 40 36 -2 0
BITMAP
FFFFE00000
FFFFE00000
FFFFE00000
FFFFE00000
0003E00000
0003E00000
0003E00000
0003E00000
0003E00000
0003E00000
0003E00000
0003E00000
0003E00000
0003E00000
0003E00000
0003FFFF80
0003FFFFF0
0003FFFFF8
0003FFFFFC
0003E001FE
0003E0007E
0003E0003F
0003E0001F
0003E0001F
0003E0001F
0003E0001F
0003E0001F
0003E0001F
0003E0001F
0003E0003F
0003E0007E
0003E001FE
0003FFFFFC
0003FFFFF8
0003FFFFE0
0003FFFF80
ENDCHAR
STARTCHAR 042B
ENCODING 1067
SWIDTH 880 0
DWIDTH 44 0
BBX 36 36 4 0
BITMAP
F8000001F0
F8000001F0
F8000001F0
F8000001F0
F8000001F0
F8000001F0
F8000001F0
F8000001F0
F8000001F0
F8000001F0
F8000001F0
F8000001F0
F8000001F0
F8000001F0
F8000001F0
FFFFF001F0
FFFFFE01F0
FFFFFF01F0
FFFFFF81F0
F8003FC1F0
F8000FC1F0
F80007E1F0
F80003E1F0
F80001E1F0
F80001E1F0
F80001E1F0
F80001E1F0
F80001E1F0
F80003E1F0
F80003E1F0
F8000FC1F0
F8003FC1F0
FFFFFF81F0
FFFFFF01F0
FFFFFE01F0
FFFFF001F0
ENDCHAR
STARTCHAR 042C
ENCODING 1068
SWIDTH 660 0
DWIDTH 33 0
BBX 27 36 4 0
BITMAP
F8000000
F8000000
F8000000
F8000000
F8000000
F8000000
F8000000
F8000000
F8000000
F8000000
F8000000
F8000000
F8000000
F8000000
F8000000
FFFFF000
FFFFFC00
FFFFFF00
FFFFFF80
F8003FC0
F8000FC0
F80007E0
F80003E0
F80003E0
F80003E0
F80003E0
F80003E0
F80003E0
F80003E0
F80007E0
F8000FC0
F8003FC0
FFFFFF80
FFFFFF00
FFFFFC00
FFFFF000
ENDCHAR
STARTCHAR 042D
ENCODING 1069
SWIDTH 720 0
DWIDTH 36 0
BBX 34 38 1 -1
BITMAP
000FF80000
007FFF0000
01FFFFC000
03FFFFF000
07F80FF800
0FE001FC00
1F8000FC00
3F00007E00
3E00003F00
7C00001F00
7C00000F80
3800000F80
0000000F80
00000007C0
00000007C0
00000007C0
00000007C0
0003FFFFC0
0003FFFFC0
0003FFFFC0
0003FFFFC0
00000007C0
00000007C0
00000007C0
10000007C0
F800000780
F800000F80
7C00000F80
7C00001F00
7E00003F00
3F00007E00
1F8000FC00
0FE001FC00
07F80FF800
03FFFFF000
01FFFFC000
007FFF0000
000FF80000
ENDCHAR
STARTCHAR 042E
ENCODING 1070
SWIDTH 1020 0
DWIDTH 51 0
BBX 44 38 4 -1
BITMAP
000000FF8000
F00007FFE000
F0000FFFF800
F0003FFFFC00
F0007F81FF00
F000FE003F00
F001F8001F80
F001F0000FC0
F003E00007C0
F003E00003E0
F007C00003E0
F007C00001E0
F007800001F0
F00F800001F0
F00F800001F0
F00F800000F0
FFFF000000F0
FFFF000000F0
FFFF000000F0
FFFF000000F0
F00F000000F0
F00F800000F0
F00F800000F0
F00F800001F0
F00F800001F0
F007800001F0
F007C00001E0
F007C00003E0
F003E00003E0
F003F00007C0
F001F0000FC0
F001FC001F80
F000FE003F00
F0007FC1FE00
F0003FFFFC00
F0000FFFF800
F00007FFE000
000000FF0000
ENDCHAR
STARTCHAR 042F
ENCODING 1071
SWIDTH 720 0
DWIDTH 36 0
BBX 29 36 3 0
BITMAP
00FFFFF8
07FFFFF8
0FFFFFF8
1FFFFFF8
3F8000F8
3E0000F8
7E0000F8
7C0000F8
7C0000F8
7C0000F8
7C0000F8
7C0000F8
7C0000F8
3E0000F8
3E0000F8
1F8000F8
0FFFFFF8
03FFFFF8
07FFFFF8
0FFFFFF8
1F8000F8
3F0000F8
3E0000F8
3C0000F8
3C0000F8
3C0000F8
3C0000F8
3C0000F8
3C0000F8
3C0000F8
3C0000F8
3C0000F8
7C0000F8
7C0000F8
7C0000F8
F80000F8
ENDCHAR
STARTCHAR 0430
ENCODING 1072
SWIDTH 560 0
DWIDTH 28 0
BBX 25 28 2 -1
BITMAP
00FF0000
07FFE000
0FFFF000
1FFFF800
3F01F800
3E007800
3C007C00
7C007C00
78007C00
00007C00
00007C00
0007FC00
01FFFC00
0FFFFC00
1FFF7C00
3FC07C00
7E007C00
78007C00
F8007C00
F0007C00
F0007C00
F800FC00
F801FC00
7C03FC00
7FFFFF80
3FFF3F80
1FFC3F80
07F01F80
ENDCHAR
STARTCHAR 0431
ENCODING 1073
SWIDTH 580 0
DWIDTH 29 0
BBX 23 40 3 -1
BITMAP
0003E0
0003E0
0003E0
0003E0
0007C0
003FC0
01FF80
07FF00
0FFC00
1FC000
3E0000
3C0000
787E00
7BFF80
7FFFE0
FFFFF0
FF03F8
FE00F8
FC007C
F8007C
F8003E
F0003E
F0003E
F0001E
F0001E
F0001E
F0001E
F0001E
F0001E
F0001E
F0003E
F8003E
78007C
7C007C
7E00F8
3F03F8
1FFFF0
0FFFE0
07FF80
00FE00
ENDCHAR
STARTCHAR 0432
ENCODING 1074
SWIDTH 540 0
DWIDTH 27 0
BBX 22 26 3 0
BITMAP
FFFF80
FFFFC0
FFFFF0
FFFFF0
F000F8
F000F8
F00078
F00078
F000F8
F000F0
FFFFF0
FFFFE0
FFFFE0
FFFFF0
F000F8
F0007C
F0003C
F0003C
F0003C
F0003C
F0007C
F000FC
FFFFF8
FFFFF8
FFFFF0
FFFFC0
ENDCHAR
STARTCHAR 0433
ENCODING 1075
SWIDTH 360 0
DWIDTH 18 0
BBX 16 26 3 0
BITMAP
FFFF
FFFF
FFFF
FFFF
F000
F000
F000
F000
F000
F000
F000
F000
F000
F000
F000
F000
F000
F000
F000
F000
F000
F000
F000
F000
F000
F000
ENDCHAR
STARTCHAR 0434
ENCODING 1076
SWIDTH 580 0
DWIDTH 29 0
BBX 26 31 1 -5
BITMAP
01FFFF00
01FFFF00
01FFFF00
01FFFF00
01F00F00
01F00F00
01F00F00
01E00F00
01E00F00
01E00F00
01E00F00
01E00F00
01E00F00
03E00F00
03C00F00
03C00F00
07C00F00
07800F00
0F800F00
0F000F00
1F000F00
7E000F00
FFFFFFC0
FFFFFFC0
FFFFFFC0
FFFFFFC0
F00003C0
F00003C0
F00003C0
F00003C0
F00003C0
ENDCHAR
STARTCHAR 0435
ENCODING 1077
SWIDTH 560 0
DWIDTH 28 0
BBX 24 28 2 -1
BITMAP
007F00
03FFC0
07FFF0
0FFFF8
1F81F8
3E007C
3C003E
7C003E
78001E
78001E
F8001F
F8001F
FFFFFF
FFFFFF
FFFFFF
F00000
F80000
F80000
780000
78001E
7C001E
7C003C
3E007C
1F80F8
1FFFF8
0FFFF0
03FFC0
00FF00
ENDCHAR
STARTCHAR 0436
ENCODING 1078
SWIDTH 660 0
DWIDTH 33 0
BBX 35 26 -1 0
BITMAP
1E00F00F80
1F00F01F00
0F80F01F00
0F80F03E00
07C0F03E00
07C0F07C00
03E0F07C00
03E0F0F800
01F0F0F800
01F0F1F000
00FFFFF000
00FFFFE000
00FFFFE000
00FFFFF000
01F0F1F000
03E0F0F800
03E0F07C00
07C0F07C00
07C0F03E00
0F80F03E00
1F00F01F00
1F00F00F80
3E00F00F80
3E00F007C0
7C00F007C0
F800F003E0
ENDCHAR
STARTCHAR 0437
ENCODING 1079
SWIDTH 460 0
DWIDTH 23 0
BBX 19 28 2 -1
BITMAP
03F800
0FFE00
1FFF00
3FFF80
3E0FC0
7C07C0
7803C0
7803C0
7803C0
0007C0
000F80
01FF00
01FE00
01FE00
01FF80
000FC0
0007C0
0003E0
F803E0
F803E0
F803E0
F803C0
7807C0
7E0FC0
3FFF80
3FFF00
0FFE00
03F800
ENDCHAR
STARTCHAR 0438
ENCODING 1080
SWIDTH 560 0
DWIDTH 28 0
BBX 20 26 4 0
BITMAP
F000F0
F000F0
F000F0
F001F0
F003F0
F007F0
F007F0
F00FF0
F01FF0
F03EF0
F07CF0
F078F0
F0F8F0
F1F0F0
F3E0F0
F3C0F0
F7C0F0
FF80F0
FF00F0
FE00F0
FE00F0
FC00F0
F800F0
F000F0
F000F0
F000F0
ENDCHAR
STARTCHAR 0439
ENCODING 1081
SWIDTH 560 0
DWIDTH 28 0
BBX 20 37 4 0
BITMAP
3C0380
1C0380
1E0780
1FFF80
0FFF00
07FE00
01F800
000000
000000
000000
000000
F000F0
F000F0
F000F0
F001F0
F003F0
F007F0
F007F0
F00FF0
F01FF0
F03EF0
F07CF0
F078F0
F0F8F0
F1F0F0
F3E0F0
F3C0F0
F7C0F0
FF80F0
FF00F0
FE00F0
FE00F0
FC00F0
F800F0
F000F0
F000F0
F000F0
ENDCHAR
STARTCHAR 043A
ENCODING 1082
SWIDTH 440 0
DWIDTH 22 0
BBX 21 26 2 0
BITMAP
F003E0
F003E0
F007C0
F007C0
F00F80
F00F00
F01F00
F01E00
F03E00
F07C00
FFFC00
FFF800
FFFC00
FFFC00
F03E00
F03E00
F01F00
F01F00
F00F80
F007C0
F007C0
F003E0
F003E0
F001F0
F000F8
F000F8
ENDCHAR
STARTCHAR 043B
ENCODING 1083
SWIDTH 580 0
DWIDTH 29 0
BBX 24 26 1 0
BITMAP
07FFFF
07FFFF
07FFFF
07FFFF
07800F
07800F
07800F
07800F
07800F
07800F
07800F
07800F
07800F
07800F
07800F
07800F
07800F
07800F
0F800F
0F000F
1F000F
3F000F
FE000F
FC000F
F8000F
E0000F
ENDCHAR
STARTCHAR 043C
ENCODING 1084
SWIDTH 680 0
DWIDTH 34 0
BBX 30 26 2 0
BITMAP
FE0000FC
FE0001FC
FE0001FC
FF0003FC
F70003FC
F78003BC
F78007BC
F38007BC
F3C00F3C
F1C00F3C
F1E00E3C
F1E01E3C
F0E01E3C
F0F03C3C
F0703C3C
F078383C
F078783C
F038783C
F03CF03C
F03CF03C
F01EE03C
F01FE03C
F00FE03C
F00FC03C
F00FC03C
F007C03C
ENDCHAR
STARTCHAR 043D
ENCODING 1085
SWIDTH 560 0
DWIDTH 28 0
BBX 20 26 4 0
BITMAP
F000F0
F000F0
F000F0
F000F0
F000F0
F000F0
F000F0
F000F0
F000F0
F000F0
FFFFF0
FFFFF0
FFFFF0
FFFFF0
F000F0
F000F0
F000F0
F000F0
F000F0
F000F0
F000F0
F000F0
F000F0
F000F0
F000F0
F000F0
ENDCHAR
STARTCHAR 043E
ENCODING 1086
SWIDTH 560 0
DWIDTH 28 0
BBX 24 28 2 -1
BITMAP
00FF00
03FFC0
0FFFF0
1FFFF8
1F81F8
3E00FC
3C007C
7C003E
78003E
78001E
F8001F
F8001F
F0001F
F0001F
F0001F
F0001F
F8001F
F8001F
78001E
78001E
7C003E
7C007C
3E00FC
1F81F8
1FFFF0
0FFFE0
03FFC0
00FE00
ENDCHAR
STARTCHAR 043F
ENCODING 1087
SWIDTH 540 0
DWIDTH 27 0
BBX 20 26 4 0
BITMAP
FFFFF0
FFFFF0
FFFFF0
FFFFF0
F001F0
F001F0
F001F0
F001F0
F001F0
F001F0
F001F0
F001F0
F001F0
F001F0
F001F0
F001F0
F001F0
F001F0
F001F0
F001F0
F001F0
F001F0
F001F0
F001F0
F001F0
F001F0
ENDCHAR
STARTCHAR 0440
ENCODING 1088
SWIDTH 560 0
DWIDTH 28 0
BBX 23 38 3 -11
BITMAP
007F00
F1FFC0
F3FFE0
F7FFF0
FF83F8
FE00F8
FC007C
FC007C
F8003E
F8003E
F0001E
F0001E
F0001E
F0001E
F0001E
F0001E
F0001E
F8001E
F8003E
F8003E
FC003C
FC007C
FE00F8
FF83F8
FFFFF0
F7FFE0
F1FFC0
F07E00
F00000
F00000
F00000
F00000
F00000
F00000
F00000
F00000
F00000
F00000
ENDCHAR
STARTCHAR 0441
ENCODING 1089
SWIDTH 500 0
DWIDTH 25 0
BBX 22 28 2 -1
BITMAP
00FE00
03FF80
0FFFE0
1FFFF0
3F03F0
3E00F8
7C00F8
780078
F8007C
F0007C
F00000
F00000
F00000
F00000
F00000
F00000
F00000
F00000
F0007C
F80078
F80078
7C00F8
7E01F0
3F03F0
1FFFE0
0FFFC0
07FF80
01FE00
ENDCHAR
STARTCHAR 0442
ENCODING 1090
SWIDTH 460 0
DWIDTH 23 0
BBX 19 26 2 0
BITMAP
FFFFE0
FFFFE0
FFFFE0
FFFFE0
01F000
01F000
01F000
01F000
01F000
01F000
01F000
01F000
01F000
01F000
01F000
01F000
01F000
01F000
01F000
01F000
01F000
01F000
01F000
01F000
01F000
01F000
ENDCHAR
STARTCHAR 0443
ENCODING 1091
SWIDTH 500 0
DWIDTH 25 0
BBX 23 37 1 -11
BITMAP
F8003E
78003C
78003C
7C007C
3C0078
3C0078
3E00F8
1E00F0
1E01F0
1F01E0
0F01E0
0F03E0
0F83C0
0783C0
0787C0
07C780
03C780
03CF80
03EF00
01EF00
01FE00
01FE00
00FE00
00FC00
00FC00
007C00
007800
00F800
00F000
00F000
01F000
01E000
03E000
3FC000
3FC000
3F8000
3E0000
ENDCHAR
STARTCHAR 0444
ENCODING 1092
SWIDTH 820 0
DWIDTH 41 0
BBX 34 44 4 -11
BITMAP
0003E00000
0003E00000
0003E00000
0003E00000
0003E00000
0003E00000
001FFC0000
00FFFFC000
03FFFFF000
0FFFFFF800
1FE3E3FC00
3F03E07E00
3E03E03F00
7C03E01F00
7803E00F80
F803E00F80
F003E00780
F003E007C0
F003E007C0
F003E007C0
F003E007C0
F003E007C0
F003E007C0
F003E00780
F803E00780
7803E00F80
7C03E01F00
3E03E03F00
3F03E07E00
1FC3E1FC00
0FFFFFF800
07FFFFF000
01FFFFC000
003FFE0000
0003E00000
0003E00000
0003E00000
0003E00000
0003E00000
0003E00000
0003E00000
0003E00000
0003E00000
0003E00000
ENDCHAR
STARTCHAR 0445
ENCODING 1093
SWIDTH 500 0
DWIDTH 25 0
BBX 21 26 2 0
BITMAP
F80078
F800F8
7C01F0
3E01E0
3E03E0
1F07C0
0F8780
078F00
07DF00
03FE00
01FC00
01FC00
00F800
00F800
01FC00
03FE00
03DE00
07DF00
0F8F80
0F0780
1F07C0
3E03E0
3C01E0
7801F0
F800F8
F00078
ENDCHAR
STARTCHAR 0446
ENCODING 1094
SWIDTH 580 0
DWIDTH 29 0
BBX 22 34 4 -8
BITMAP
F801F0
F801F0
F801F0
F801F0
F801F0
F801F0
F801F0
F801F0
F801F0
F801F0
F801F0
F801F0
F801F0
F801F0
F801F0
F801F0
F801F0
F801F0
F801F0
F801F0
F801F0
F801F0
FFFFFC
FFFFFC
FFFFFC
FFFFFC
00003C
00003C
00003C
00003C
00003C
00003C
00003C
00003C
ENDCHAR
STARTCHAR 0447
ENCODING 1095
SWIDTH 520 0
DWIDTH 26 0
BBX 19 26 3 0
BITMAP
F001E0
F001E0
F001E0
F001E0
F001E0
F001E0
F001E0
F001E0
F001E0
F001E0
F001E0
F001E0
F801E0
FC07E0
7FFFE0
7FFFE0
1FFFE0
07F1E0
0001E0
0001E0
0001E0
0001E0
0001E0
0001E0
0001E0
0001E0
ENDCHAR
STARTCHAR 0448
ENCODING 1096
SWIDTH 800 0
DWIDTH 40 0
BBX 34 26 3 0
BITMAP
F001E003C0
F001E003C0
F001E003C0
F001E003C0
F001E003C0
F001E003C0
F001E003C0
F001E003C0
F001E003C0
F001E003C0
F001E003C0
F001E003C0
F001E003C0
F001E003C0
F001E003C0
F001E003C0
F001E003C0
F001E003C0
F001E003C0
F001E003C0
F001E003C0
F001E003C0
FFFFFFFFC0
FFFFFFFFC0
FFFFFFFFC0
FFFFFFFFC0
ENDCHAR
STARTCHAR 0449
ENCODING 1097
SWIDTH 820 0
DWIDTH 41 0
BBX 35 34 4 -8
BITMAP
F003C00780
F003C00780
F003C00780
F003C00780
F003C00780
F003C00780
F003C00780
F003C00780
F003C00780
F003C00780
F003C00780
F003C00780
F003C00780
F003C00780
F003C00780
F003C00780
F003C00780
F003C00780
F003C00780
F003C00780
F003C00780
F003C00780
FFFFFFFFE0
FFFFFFFFE0
FFFFFFFFE0
FFFFFFFFE0
00000001E0
00000001E0
00000001E0
00000001E0
00000001E0
00000001E0
00000001E0
00000001E0
ENDCHAR
STARTCHAR 044A
ENCODING 1098
SWIDTH 620 0
DWIDTH 31 0
BBX 31 26 -1 0
BITMAP
FFFE0000
FFFE0000
FFFE0000
FFFE0000
003E0000
003E0000
003E0000
003E0000
003E0000
003E0000
003FFF80
003FFFF0
003FFFF8
003FFFFC
003E007E
003E003E
003E001E
003E001E
003E001E
003E001E
003E003E
003E003E
003FFFFC
003FFFF8
003FFFF0
003FFFC0
ENDCHAR
STARTCHAR 044B
ENCODING 1099
SWIDTH 720 0
DWIDTH 36 0
BBX 28 26 4 0
BITMAP
F00000F0
F00000F0
F00000F0
F00000F0
F00000F0
F00000F0
F00000F0
F00000F0
F00000F0
F00000F0
FFFE00F0
FFFF80F0
FFFFE0F0
FFFFF0F0
F001F0F0
F000F8F0
F000F8F0
F00078F0
F00078F0
F00078F0
F000F8F0
F001F0F0
FFFFF0F0
FFFFE0F0
FFFFC0F0
FFFF00F0
ENDCHAR
STARTCHAR 044C
ENCODING 1100
SWIDTH 520 0
DWIDTH 26 0
BBX 21 26 3 0
BITMAP
F80000
F80000
F80000
F80000
F80000
F80000
F80000
F80000
F80000
F80000
FFFE00
FFFFC0
FFFFE0
FFFFF0
F801F8
F800F8
F80078
F80078
F80078
F80078
F80078
F800F8
FFFFF0
FFFFF0
FFFFC0
FFFF00
ENDCHAR
STARTCHAR 044D
ENCODING 1101
SWIDTH 520 0
DWIDTH 26 0
BBX 23 28 1 -1
BITMAP
00FE00
07FFC0
0FFFE0
1FFFF0
3F81F8
3E00F8
7C007C
78003C
78003E
00001E
00001E
003FFE
003FFE
003FFE
003FFE
00001E
00001E
38001E
F8001E
F8003E
7C003C
7C007C
3E00F8
3F81F8
1FFFF0
0FFFE0
07FF80
00FE00
ENDCHAR
STARTCHAR 044E
ENCODING 1102
SWIDTH 760 0
DWIDTH 38 0
BBX 33 28 3 -1
BITMAP
00003F8000
F000FFF000
F003FFF800
F007FFFC00
F00FC0FE00
F00F803E00
F01F001F00
F01E000F00
F03E000F80
F03E000F80
F03C000780
FFFC000780
FFFC000780
FFFC000780
FFFC000780
F03C000780
F03C000780
F03C000780
F03E000F80
F03E000F80
F01E000F00
F01F001F00
F00F803E00
F00FE07E00
F007FFFC00
F003FFF800
F001FFF000
00003F8000
ENDCHAR
STARTCHAR 044F
ENCODING 1103
SWIDTH 540 0
DWIDTH 27 0
BBX 21 26 2 0
BITMAP
03FFF8
0FFFF8
3FFFF8
3FFFF8
7C0078
780078
F80078
F80078
F80078
F80078
780078
7E0078
3FFFF8
1FFFF8
07FFF8
0FFFF8
1F0078
3E0078
3C0078
3C0078
3C0078
3C0078
3C0078
3C0078
3C0078
7C0078
ENDCHAR
STARTCHAR 0450
ENCODING 1104
SWIDTH 560 0
DWIDTH 28 0
BBX 24 38 2 -1
BITMAP
07E000
03F000
01F000
00F800
007C00
003C00
001E00
000000
000000
000000
007F00
03FFC0
07FFE0
0FFFF8
1F81F8
3E00FC
3C007C
7C003E
78001E
78001E
F8001E
F8001F
FFFFFF
FFFFFF
FFFFFF
F00000
F00000
F80000
F80000
78001E
7C003E
7C003C
3E007C
1F81F8
1FFFF8
0FFFE0
03FFC0
00FE00
ENDCHAR
STARTCHAR 0451
ENCODING 1105
SWIDTH 560 0
DWIDTH 28 0
BBX 24 37 2 -1
BITMAP
07C7E0
07C7E0
07C7E0
07C7E0
07C7E0
000000
000000
000000
000000
007F00
03FFC0
07FFF0
0FFFF8
1F81F8
3E007C
3E003E
7C003E
78001E
78001E
78001F
F8001F
FFFFFF
FFFFFF
FFFFFF
F80000
F80000
F80000
780000
78001E
7C001E
3C003E
3E007C
1F80F8
1FFFF8
0FFFF0
03FFC0
00FF00
ENDCHAR
STARTCHAR 0452
ENCODING 1106
SWIDTH 560 0
DWIDTH 28 0
BBX 26 43 -1 -7
BITMAP
07800000
07800000
07800000
FFFE0000
FFFE0000
FFFE0000
FFFE0000
07800000
07800000
0781F800
0787FE00
079FFF00
07BFFF00
07FC1F80
07F00F80
07E00780
07C007C0
07C007C0
078007C0
078007C0
078007C0
078007C0
078007C0
078007C0
078007C0
078007C0
078007C0
078007C0
078007C0
078007C0
078007C0
078007C0
078007C0
078007C0
078007C0
07800780
00000780
00000F80
00001F00
003FFF00
003FFE00
003FF800
003FE000
ENDCHAR
STARTCHAR 0453
ENCODING 1107
SWIDTH 360 0
DWIDTH 18 0
BBX 16 37 3 0
BITMAP
00FC
00F8
01F0
01E0
03C0
0780
0700
0E00
0000
0000
0000
FFFF
FFFF
FFFF
FFFF
F000
F000
F000
F000
F000
F000
F000
F000
F000
F000
F000
F000
F000
F000
F000
F000
F000
F000
F000
F000
F000
F000
ENDCHAR
STARTCHAR 0454
ENCODING 1108
SWIDTH 520 0
DWIDTH 26 0
BBX 23 28 1 -1
BITMAP
007F00
03FFC0
07FFF0
0FFFF8
1F81F8
3E00FC
3C007C
7C003E
78001E
780000
F80000
FFFC00
FFFC00
FFFC00
FFFC00
F80000
F80000
F8001C
78001E
78003E
7C003E
3E007C
3F00FC
1F81F8
0FFFF0
07FFE0
03FFC0
00FF00
ENDCHAR
STARTCHAR 0455
ENCODING 1109
SWIDTH 500 0
DWIDTH 25 0
BBX 21 28 2 -1
BITMAP
01FC00
0FFF80
1FFFC0
3FFFE0
7E07E0
7C01F0
F801F0
F801F0
F80000
F80000
7E0000
7FC000
3FFC00
1FFF80
07FFE0
007FF0
0007F0
0001F8
0000F8
F00078
F00078
F800F8
F800F0
7E03F0
7FFFE0
3FFFC0
1FFF80
03FC00
ENDCHAR
STARTCHAR 0456
ENCODING 1110
SWIDTH 220 0
DWIDTH 11 0
BBX 5 36 3 0
BITMAP
F8
F8
F8
F8
F8
00
00
00
00
00
F8
F8
F8
F8
F8
F8
F8
F8
F8
F8
F8
F8
F8
F8
F8
F8
F8
F8
F8
F8
F8
F8
F8
F8
F8
F8
ENDCHAR
STARTCHAR 0457
ENCODING 1111
SWIDTH 280 0
DWIDTH 14 0
BBX 14 36 0 0
BITMAP
FCFC
FCFC
FCFC
FCFC
FCFC
0000
0000
0000
0000
0000
0780
0780
0780
0780
0780
0780
0780
0780
0780
0780
0780
0780
0780
0780
0780
0780
0780
0780
0780
0780
0780
0780
0780
0780
0780
0780
ENDCHAR
STARTCHAR 0458
ENCODING 1112
SWIDTH 220 0
DWIDTH 11 0
BBX 9 47 -1 -11
BITMAP
0F80
0F80
0F80
0F80
0F80
0000
0000
0000
0000
0000
0F80
0F80
0F80
0F80
0F80
0F80
0F80
0F80
0F80
0F80
0F80
0F80
0F80
0F80
0F80
0F80
0F80
0F80
0F80
0F80
0F80
0F80
0F80
0F80
0F80
0F80
0F80
0F80
0F80
0F80
0F80
0F80
0F80
FF00
FF00
FE00
F800
ENDCHAR
STARTCHAR 0459
ENCODING 1113
SWIDTH 900 0
DWIDTH 45 0
BBX 41 26 1 0
BITMAP
07FFFF800000
07FFFF800000
07FFFF800000
07FFFF800000
07800F800000
07800F800000
07800F800000
07800F800000
07800F800000
07800F800000
07800FFFE000
07800FFFFC00
07800FFFFE00
07800FFFFF00
07800F801F80
07800F800F80
07800F800780
0F800F800780
0F800F800780
0F000F800780
1F000F800F80
3F000F800F80
FE000FFFFF00
FC000FFFFE00
F8000FFFFC00
E0000FFFF000
ENDCHAR
STARTCHAR 045A
ENCODING 1114
SWIDTH 820 0
DWIDTH 41 0
BBX 37 26 3 0
BITMAP
F000F00000
F000F00000
F000F00000
F000F00000
F000F00000
F000F00000
F000F00000
F000F00000
F000F00000
F000F00000
FFFFFFFC00
FFFFFFFF80
FFFFFFFFE0
FFFFFFFFE0
F000F003F0
F000F000F0
F000F000F8
F000F000F8
F000F000F8
F000F000F8
F000F000F8
F000F001F0
F000FFFFF0
F000FFFFE0
F000FFFFC0
F000FFFF00
ENDCHAR
STARTCHAR 045B
ENCODING 1115
SWIDTH 560 0
DWIDTH 28 0
BBX 26 36 -1 0
BITMAP
07800000
07800000
07800000
FFFE0000
FFFE0000
FFFE0000
FFFE0000
07800000
07800000
0781F800
0787FE00
079FFF00
07BFFF00
07FC1F80
07F00F80
07E00780
07C007C0
07C007C0
078007C0
078007C0
078007C0
078007C0
078007C0
078007C0
078007C0
078007C0
078007C0
078007C0
078007C0
078007C0
078007C0
078007C0
078007C0
078007C0
078007C0
078007C0
ENDCHAR
STARTCHAR 045C
ENCODING 1116
SWIDTH 440 0
DWIDTH 22 0
BBX 21 37 2 0
BITMAP
003E00
007C00
007800
00F000
01E000
01C000
038000
070000
000000
000000
000000
F003E0
F003E0
F007C0
F007C0
F00F80
F00F00
F01F00
F01E00
F03E00
F07C00
FFFC00
FFF800
FFFC00
FFFC00
F03E00
F03E00
F01F00
F01F00
F00F80
F007C0
F007C0
F003E0
F003E0
F001F0
F000F8
F000F8
ENDCHAR
STARTCHAR 045D
ENCODING 1117
SWIDTH 560 0
DWIDTH 28 0
BBX 20 37 4 0
BITMAP
1F0000
0F8000
078000
03C000
03E000
01E000
00F000
007000
000000
000000
000000
F000F0
F000F0
F000F0
F001F0
F003F0
F007F0
F007F0
F00FF0
F01FF0
F03EF0
F07CF0
F078F0
F0F8F0
F1F0F0
F3E0F0
F3C0F0
F7C0F0
FF80F0
FF00F0
FE00F0
FE00F0
FC00F0
F800F0
F000F0
F000F0
F000F0
ENDCHAR
STARTCHAR 045E
ENCODING 1118
SWIDTH 500 0
DWIDTH 25 0
BBX 23 48 1 -11
BITMAP
0E00E0
0E00E0
0F01E0
07EFC0
07FFC0
03FF80
00FE00
000000
000000
000000
000000
F8003E
78003C
78003C
7C007C
3C0078
3C0078
3E00F8
1E00F0
1E01F0
1F01E0
0F01E0
0F03E0
0F83C0
0783C0
0787C0
07C780
03C780
03CF80
03EF00
01EF00
01FE00
01FE00
00FE00
00FC00
00FC00
007C00
007800
00F800
00F000
00F000
01F000
01E000
03E000
3FC000
3FC000
3F8000
3E0000
ENDCHAR
STARTCHAR 045F
ENCODING 1119
SWIDTH 560 0
DWIDTH 28 0
BBX 20 34 4 -8
BITMAP
F001F0
F001F0
F001F0
F001F0
F001F0
F001F0
F001F0
F001F0
F001F0
F001F0
F001F0
F001F0
F001F0
F001F0
F001F0
F001F0
F001F0
F001F0
F001F0
F001F0
F001F0
F001F0
FFFFF0
FFFFF0
FFFFF0
FFFFF0
00F000
00F000
00F000
00F000
00F000
00F000
00F000
00F000
ENDCHAR
STARTCHAR 0462
ENCODING 1122
SWIDTH 780 0
DWIDTH 39 0
BBX 37 36 0 0
BITMAP
007C000000
007C000000
007C000000
007C000000
FFFFFF0000
FFFFFF0000
FFFFFF0000
FFFFFF0000
007C000000
007C000000
007C000000
007C000000
007C000000
007C000000
007C000000
007FFFFC00
007FFFFF00
007FFFFF80
007FFFFFC0
007C001FE0
007C0003F0
007C0001F0
007C0001F0
007C0000F8
007C0000F8
007C0000F8
007C0000F8
007C0000F0
007C0001F0
007C0001F0
007C0003F0
007C000FE0
007FFFFFC0
007FFFFF80
007FFFFF00
007FFFF800
ENDCHAR
STARTCHAR 0463
ENCODING 1123
SWIDTH 620 0
DWIDTH 31 0
BBX 24 33 3 0
BITMAP
1E0000
1E0000
1E0000
1E0000
1E0000
1E0000
1E0000
FFF000
FFF000
FFF000
1E0000
1E0000
1E0000
1E0000
1E0000
1E0000
1E0000
1FFFC0
1FFFF8
1FFFFC
1FFFFE
1E003E
1E001F
1E000F
1E000F
1E000F
1E000F
1E001F
1E003F
1FFFFE
1FFFFC
1FFFF8
1FFFE0
ENDCHAR
STARTCHAR 0472
ENCODING 1138
SWIDTH 780 0
DWIDTH 39 0
BBX 35 38 2 -1
BITMAP
0007FC0000
003FFF8000
00FFFFE000
01FFFFF000
03FC07F800
07E001FC00
0FC0007E00
1F80003F00
3F00001F80
3E00000F80
7E00000F80
7C000007C0
7C000007C0
78000003C0
F8000003E0
F8000003E0
F87F0003E0
FBFF8003E0
FFFFF01FE0
FFFFFFFFE0
FC03FFFFE0
F800FFF3E0
F8001F83E0
F8000003E0
F8000003E0
7C000007C0
7C000007C0
7E00000FC0
3E00000F80
3F00001F80
1F80003F00
0FC0007E00
0FF000FE00
07FC07FC00
01FFFFF000
00FFFFE000
003FFF8000
0007FC0000
ENDCHAR
STARTCHAR 0473
ENCODING 1139
SWIDTH 560 0
DWIDTH 28 0
BBX 24 28 2 -1
BITMAP
007F00
03FFC0
07FFF0
1FFFF8
1F81F8
3F00FC
3E007C
7C003E
78003E
78001E
F8001F
F9E01F
FFF81F
FFFC7F
FFFFFF
FC3FFF
F80FDF
F8071F
F8001E
78001E
7C003E
7C003C
3E007C
3F81F8
1FFFF8
0FFFF0
03FFC0
00FF00
ENDCHAR
STARTCHAR 0474
ENCODING 1140
SWIDTH 800 0
DWIDTH 40 0
BBX 33 37 4 0
BITMAP
0000001F80
F800003F80
7C00007F80
7C0000FF80
3E0000FC80
3E0000F800
3E0001F000
1F0001F000
1F0001E000
1F0003E000
0F8003E000
0F8003C000
0F8007C000
07C007C000
07C007C000
07C0078000
03E00F8000
03E00F8000
01E00F0000
01F01F0000
01F01F0000
00F01E0000
00F81E0000
00F83E0000
007C3C0000
007C3C0000
007C7C0000
003E780000
003E780000
001EF80000
001FF00000
001FF00000
000FF00000
000FE00000
000FE00000
0007E00000
0007E00000
ENDCHAR
STARTCHAR 0475
ENCODING 1141
SWIDTH 640 0
DWIDTH 32 0
BBX 24 27 4 0
BITMAP
00001E
F8007F
F8007F
7C00FF
7C00F8
3C00F0
3E01F0
3E01E0
1E01E0
1F01E0
1F03E0
0F03C0
0F83C0
0F83C0
078780
07C780
07C780
03C700
03EF00
03EF00
01EF00
01FE00
00FE00
00FE00
00FC00
007C00
007C00
ENDCHAR
STARTCHAR 0490
ENCODING 1168
SWIDTH 480 0
DWIDTH 24 0
BBX 29 43 3 0
BITMAP
000001F8
000003E0
000003C0
00000780
00000F00
00000E00
00001C00
FFFFFC00
FFFFFC00
FFFFFC00
FFFFFC00
F8000000
F8000000
F8000000
F8000000
F8000000
F8000000
F8000000
F8000000
F8000000
F8000000
F8000000
F8000000
F8000000
F8000000
F8000000
F8000000
F8000000
F8000000
F8000000
F8000000
F8000000
F8000000
F8000000
F8000000
F8000000
F8000000
F8000000
F8000000
F8000000
F8000000
F8000000
F8000000
ENDCHAR
STARTCHAR 0491
ENCODING 1169
SWIDTH 420 0
DWIDTH 21 0
BBX 23 33 4 0
BITMAP
00007E
00007C
0000F8
0001F0
0001E0
0003C0
000380
FFFF00
FFFF00
FFFF00
FFFF00
F80000
F80000
F80000
F80000
F80000
F80000
F80000
F80000
F80000
F80000
F80000
F80000
F80000
F80000
F80000
F80000
F80000
F80000
F80000
F80000
F80000
F80000
ENDCHAR
STARTCHAR 0492
ENCODING 1170
SWIDTH 540 0
DWIDTH 27 0
BBX 25 36 2 0
BITMAP
3FFFFF80
3FFFFF80
3FFFFF80
3FFFFF80
3E000000
3E000000
3E000000
3E000000
3E000000
3E000000
3E000000
3E000000
3E000000
3E000000
3E000000
3E000000
FFFFF000
FFFFF000
FFFFF000
FFFFF000
3E000000
3E000000
3E000000
3E000000
3E000000
3E000000
3E000000
3E000000
3E000000
3E000000
3E000000
3E000000
3E000000
3E000000
3E000000
3E000000
ENDCHAR
STARTCHAR 0493
ENCODING 1171
SWIDTH 380 0
DWIDTH 19 0
BBX 17 26 2 0
BITMAP
7FFF80
7FFF80
7FFF80
7FFF80
7C0000
7C0000
7C0000
7C0000
7C0000
7C0000
FFF800
FFF800
FFF800
FFF800
7C0000
7C0000
7C0000
7C0000
7C0000
7C0000
7C0000
7C0000
7C0000
7C0000
7C0000
7C0000
ENDCHAR
STARTCHAR 0496
ENCODING 1174
SWIDTH 1020 0
DWIDTH 51 0
BBX 51 43 0 -7
BITMAP
1F0003E0007C00
1F0003E000FC00
0F8003E000F800
0FC003E001F000
07C003E001F000
03E003E003E000
03E003E007E000
01F003E007C000
01F803E00F8000
00F803E00F8000
007C03E01F0000
007C03E03F0000
003E03E03E0000
003F03E07C0000
001F03E07C0000
000FFFFFF80000
000FFFFFF80000
000FFFFFF80000
000FFFFFF80000
001F03E07C0000
003F03E07E0000
003E03E03E0000
007C03E01F0000
00FC03E01F8000
00F803E00F8000
01F003E007C000
03F003E007E000
03E003E003E000
07C003E001F000
0FC003E001F800
0F8003E000F800
1F0003E0007C00
3F0003E0007FE0
3E0003E0003FE0
7C0003E0001FE0
FC0003E0001FE0
000000000003E0
000000000003E0
000000000003E0
000000000003E0
000000000003E0
000000000003E0
000000000003E0
ENDCHAR
STARTCHAR 0497
ENCODING 1175
SWIDTH 820 0
DWIDTH 41 0
BBX 41 34 0 -8
BITMAP
1E003C00F800
1F003C01F000
0F003C01F000
0F803C03E000
07803C03E000
07C03C07C000
03E03C07C000
03E03C0F8000
01F03C0F8000
01F03C1F0000
00FFFFFF0000
00FFFFFE0000
00FFFFFE0000
01FFFFFF0000
01F03C1F0000
03E03C0F8000
03E03C07C000
07C03C07C000
07C03C03E000
0F803C03E000
1F003C01F000
1F003C00F800
3E003C00FF80
3C003C007F80
7C003C007F80
F8003C003F80
000000000780
000000000780
000000000780
000000000780
000000000780
000000000780
000000000780
000000000780
ENDCHAR
STARTCHAR 0498
ENCODING 1176
SWIDTH 600 0
DWIDTH 30 0
BBX 24 48 3 -11
BITMAP
007F00
03FFC0
07FFF0
0FFFF8
1FC1FC
3F007C
3E007E
3C003E
7C003E
7C001E
7C001E
7C003E
00003E
00003E
00007C
0001F8
003FF8
003FE0
003FF0
003FF8
0001FC
00007E
00003F
00001F
00001F
00000F
F8000F
F8000F
F8000F
F8001F
7C001F
7C003E
3E007E
3F80FC
1FFFFC
0FFFF8
03FFE0
00FF80
003000
003000
007F00
007F80
000780
000780
000780
070F00
07FF00
00FC00
ENDCHAR
STARTCHAR 0499
ENCODING 1177
SWIDTH 460 0
DWIDTH 23 0
BBX 19 38 2 -11
BITMAP
03F800
0FFE00
1FFF00
3FFF80
3E0F80
7C07C0
7803C0
7803C0
7803C0
7803C0
0007C0
001F80
01FF00
01FE00
01FF00
01FF80
000FC0
0003C0
0003E0
F803E0
F803E0
F803C0
7807C0
7E0FC0
3FFF80
3FFF00
0FFE00
03F000
00C000
01B000
01FC00
013E00
001E00
001E00
101E00
1C3C00
1FF800
07F000
ENDCHAR
STARTCHAR 049A
ENCODING 1178
SWIDTH 660 0
DWIDTH 33 0
BBX 27 44 4 -8
BITMAP
F8007C00
F800FC00
F800F800
F801F000
F801F000
F803E000
F807E000
F807C000
F80F8000
F80F8000
F81F0000
F83F0000
F83E0000
F87C0000
F87C0000
FFF80000
FFF80000
FFF00000
FFF80000
F87C0000
F87C0000
F83E0000
F81F0000
F81F0000
F80F8000
F807C000
F807C000
F803E000
F801F000
F801F000
F800F800
F8007C00
F8007FE0
F8003FE0
F8001FE0
F8001FE0
000003E0
000003E0
000003E0
000003E0
000003E0
000003E0
000003E0
000003E0
ENDCHAR
STARTCHAR 049B
ENCODING 1179
SWIDTH 540 0
DWIDTH 27 0
BBX 23 34 4 -8
BITMAP
F003E0
F007C0
F007C0
F00F80
F00F80
F01F00
F01F00
F03E00
F03E00
F07C00
FFFC00
FFF800
FFF800
FFFC00
F07C00
F03E00
F01F00
F01F00
F00F80
F00F80
F007C0
F003E0
F003FE
F001FE
F001FE
F000FE
00001E
00001E
00001E
00001E
00001E
00001E
00001E
00001E
ENDCHAR
STARTCHAR 049C
ENCODING 1180
SWIDTH 620 0
DWIDTH 31 0
BBX 26 36 4 0
BITMAP
F8001F00
F8003F00
F8003E00
F8007C00
F8007C00
F800F800
F9C1F800
F9C1F000
F9C3E000
F9C3E000
F9C7C000
F9CFC000
F9CF8000
F9DF0000
F9DF0000
FFFE0000
FFFE0000
FFFC0000
FFFE0000
F9DF0000
F9DF0000
F9CF8000
F9C7C000
F9C7C000
F9C3E000
F9C1F000
F9C1F000
F9C0F800
F8007C00
F8007C00
F8003E00
F8001F00
F8001F00
F8000F80
F80007C0
F80007C0
ENDCHAR
STARTCHAR 049D
ENCODING 1181
SWIDTH 500 0
DWIDTH 25 0
BBX 21 26 4 0
BITMAP
F003E0
F007C0
F007C0
F00F80
F38F80
F39F00
F39F00
F3BE00
F3BE00
F3FC00
FFFC00
FFF800
FFF800
FFFC00
F3FC00
F3BE00
F39F00
F39F00
F38F80
F38F80
F007C0
F003E0
F003E0
F001F0
F001F0
F000F8
ENDCHAR
STARTCHAR 04A0
ENCODING 1184
SWIDTH 580 0
DWIDTH 29 0
BBX 38 36 -11 0
BITMAP
FFFFE001F0
FFFFE003E0
FFFFE007E0
FFFFE007C0
0003E00F80
0003E00F80
0003E01F00
0003E03F00
0003E03E00
0003E07C00
0003E07C00
0003E0F800
0003E1F800
0003E1F000
0003E3E000
0003FFE000
0003FFC000
0003FFC000
0003FFE000
0003E3F000
0003E1F000
0003E0F800
0003E0FC00
0003E07C00
0003E03E00
0003E03F00
0003E01F00
0003E00F80
0003E00FC0
0003E007C0
0003E003E0
0003E003F0
0003E001F0
0003E000F8
0003E000FC
0003E0007C
ENDCHAR
STARTCHAR 04A1
ENCODING 1185
SWIDTH 440 0
DWIDTH 22 0
BBX 32 26 -9 0
BITMAP
FFFE007C
FFFE007C
FFFE00F8
FFFE00F8
001E01F0
001E01E0
001E03E0
001E03C0
001E07C0
001E0F80
001FFF80
001FFF00
001FFF80
001FFF80
001E07C0
001E07C0
001E03E0
001E03E0
001E01F0
001E00F8
001E00F8
001E007C
001E007C
001E003E
001E001F
001E001F
ENDCHAR
STARTCHAR 04A2
ENCODING 1186
SWIDTH 720 0
DWIDTH 36 0
BBX 31 44 4 -8
BITMAP
F80001F0
F80001F0
F80001F0
F80001F0
F80001F0
F80001F0
F80001F0
F80001F0
F80001F0
F80001F0
F80001F0
F80001F0
F80001F0
F80001F0
F80001F0
F80001F0
FFFFFFF0
FFFFFFF0
FFFFFFF0
FFFFFFF0
F80001F0
F80001F0
F80001F0
F80001F0
F80001F0
F80001F0
F80001F0
F80001F0
F80001F0
F80001F0
F80001F0
F80001F0
F80001FE
F80001FE
F80001FE
F80001FE
0000003E
0000003E
0000003E
0000003E
0000003E
0000003E
0000003E
0000003E
ENDCHAR
STARTCHAR 04A3
ENCODING 1187
SWIDTH 560 0
DWIDTH 28 0
BBX 22 34 4 -8
BITMAP
F000F0
F000F0
F000F0
F000F0
F000F0
F000F0
F000F0
F000F0
F000F0
F000F0
FFFFF0
FFFFF0
FFFFF0
FFFFF0
F000F0
F000F0
F000F0
F000F0
F000F0
F000F0
F000F0
F000F0
F000FC
F000FC
F000FC
F000FC
00007C
00007C
00007C
00007C
00007C
00007C
00007C
00007C
ENDCHAR
STARTCHAR 04AA
ENCODING 1194
SWIDTH 720 0
DWIDTH 36 0
BBX 32 48 2 -11
BITMAP
0007FC00
003FFF00
00FFFFC0
01FFFFE0
03F80FF0
07E003F8
0FC000F8
1F80007C
1F00007C
3E00003E
3E00003E
3C00003E
7C000000
7C000000
7C000000
78000000
78000000
F8000000
F8000000
F8000000
F8000000
78000000
78000000
7C000000
7C00001F
7C00001F
7C00003E
3E00003E
3E00003E
1F00007C
1F80007C
0FC000FC
0FE001F8
07FC0FF0
03FFFFE0
00FFFFC0
007FFF00
000FFC00
00018000
00018000
0003F800
0003FC00
00003C00
00003C00
00003C00
003C7C00
003FF800
0007E000
ENDCHAR
STARTCHAR 04AB
ENCODING 1195
SWIDTH 500 0
DWIDTH 25 0
BBX 22 38 2 -11
BITMAP
00FE00
03FF80
0FFFE0
1FFFF0
3F03F0
3E00F8
7C00F8
780078
F80078
F00000
F00000
F00000
F00000
F00000
F00000
F00000
F00000
F00000
F8003C
F8007C
780078
7C00F8
3E01F8
3F83F0
1FFFE0
0FFFC0
03FF80
00FC00
003000
007800
007F00
004F00
000780
000780
040700
070F00
07FE00
01F800
ENDCHAR
ENDFONT
